SplineFontDB: 3.2
FontName: Kodito
FullName: Kodito
FamilyName: Kodito
Weight: Regular
Copyright: Copyright (c) 2025, W.F.Turnip
UComments: "2024-2-27: Created with FontForge (http://fontforge.org)"
Version: 001.000
ItalicAngle: 0
UnderlinePosition: -100
UnderlineWidth: 50
Ascent: 650
Descent: 200
InvalidEm: 0
LayerCount: 2
Layer: 0 1 "+gMyXYgAA" 1
Layer: 1 1 "+Uk2XYgAA" 0
XUID: [1021 352 -730677569 13050500]
StyleMap: 0x0000
FSType: 0
OS2Version: 0
OS2_WeightWidthSlopeOnly: 0
OS2_UseTypoMetrics: 1
CreationTime: 1709032616
ModificationTime: 1763049322
OS2TypoAscent: 0
OS2TypoAOffset: 1
OS2TypoDescent: 0
OS2TypoDOffset: 1
OS2TypoLinegap: 76
OS2WinAscent: 0
OS2WinAOffset: 1
OS2WinDescent: 0
OS2WinDOffset: 1
HheadAscent: 0
HheadAOffset: 1
HheadDescent: 0
HheadDOffset: 1
OS2Vendor: 'PfEd'
MarkAttachClasses: 1
DEI: 91125
Encoding: UnicodeBmp
UnicodeInterp: none
NameList: AGL For New Fonts
DisplaySize: -128
AntiAlias: 0
FitToEm: 0
WinInfo: 60 5 3
BeginPrivate: 0
EndPrivate
BeginChars: 65536 98

StartChar: exclam
Encoding: 33 33 1
Width: 500
Flags: W
LayerCount: 2
Fore
SplineSet
250 450 m 128,-1,1
 260 450 260 450 267.5 442.5 c 128,-1,2
 275 435 275 435 275 425 c 128,-1,3
 275 415 275 415 267.5 407.5 c 128,-1,4
 260 400 260 400 250 400 c 128,-1,5
 240 400 240 400 232.5 407.5 c 128,-1,6
 225 415 225 415 225 425 c 128,-1,7
 225 435 225 435 232.5 442.5 c 128,-1,0
 240 450 240 450 250 450 c 128,-1,1
250 50 m 128,-1,9
 260 50 260 50 267.5 42.5 c 128,-1,10
 275 35 275 35 275 25 c 128,-1,11
 275 15 275 15 267.5 7.5 c 128,-1,12
 260 0 260 0 250 0 c 128,-1,13
 240 0 240 0 232.5 7.5 c 128,-1,14
 225 15 225 15 225 25 c 128,-1,15
 225 35 225 35 232.5 42.5 c 128,-1,8
 240 50 240 50 250 50 c 128,-1,9
EndSplineSet
EndChar

StartChar: quotedbl
Encoding: 34 34 2
Width: 500
Flags: W
LayerCount: 2
Fore
SplineSet
50 250 m 128,-1,1
 60 250 60 250 67.5 242.5 c 128,-1,2
 75 235 75 235 75 225 c 128,-1,3
 75 215 75 215 67.5 207.5 c 128,-1,4
 60 200 60 200 50 200 c 128,-1,5
 40 200 40 200 32.5 207.5 c 128,-1,6
 25 215 25 215 25 225 c 128,-1,7
 25 235 25 235 32.5 242.5 c 128,-1,0
 40 250 40 250 50 250 c 128,-1,1
450 250 m 128,-1,9
 460 250 460 250 467.5 242.5 c 128,-1,10
 475 235 475 235 475 225 c 128,-1,11
 475 215 475 215 467.5 207.5 c 128,-1,12
 460 200 460 200 450 200 c 128,-1,13
 440 200 440 200 432.5 207.5 c 128,-1,14
 425 215 425 215 425 225 c 128,-1,15
 425 235 425 235 432.5 242.5 c 128,-1,8
 440 250 440 250 450 250 c 128,-1,9
EndSplineSet
EndChar

StartChar: numbersign
Encoding: 35 35 3
Width: 500
Flags: W
LayerCount: 2
Fore
SplineSet
387.51171875 391.11328125 m 0,0,1
 389.478210449 391.424804688 389.478210449 391.424804688 391.42578125 391.424804688 c 0,2,3
 401.772832971 391.424804688 401.772832971 391.424804688 409.099609375 384.099609375 c 128,-1,4
 416.42578125 376.7734375 416.42578125 376.7734375 416.42578125 366.41796875 c 128,-1,5
 416.42578125 356.0703125 416.42578125 356.0703125 409.099609375 348.744140625 c 2,6,-1
 338.387152778 278.033203125 l 0,7,8
 267.674696181 207.322265625 267.674696181 207.322265625 196.963758681 136.611328125 c 128,-1,9
 126.252821181 65.900390625 126.252821181 65.900390625 126.255859375 65.900390625 c 1,10,11
 118.9296875 58.57421875 118.9296875 58.57421875 108.57421875 58.57421875 c 128,-1,12
 98.2265625 58.57421875 98.2265625 58.57421875 90.900390625 65.900390625 c 128,-1,13
 83.57421875 73.2265625 83.57421875 73.2265625 83.57421875 83.58203125 c 128,-1,14
 83.57421875 93.9296875 83.57421875 93.9296875 90.900390625 101.255859375 c 2,15,-1
 161.617404514 171.966145833 l 0,16,17
 232.334418403 242.676432292 232.334418403 242.676432292 303.045355903 313.387369792 c 128,-1,18
 373.756293403 384.098307292 373.756293403 384.098307292 373.744140625 384.099609375 c 1,19,20
 379.489787968 389.843718392 379.489787968 389.843718392 387.51171875 391.11328125 c 0,0,1
104.66796875 391.11328125 m 0,21,22
 106.634460449 391.424804688 106.634460449 391.424804688 108.58203125 391.424804688 c 0,23,24
 118.929082971 391.424804688 118.929082971 391.424804688 126.255859375 384.099609375 c 2,25,-1
 409.099609375 101.255859375 l 1,26,27
 416.42578125 93.9296875 416.42578125 93.9296875 416.42578125 83.57421875 c 128,-1,28
 416.42578125 73.2265625 416.42578125 73.2265625 409.099609375 65.900390625 c 128,-1,29
 401.7734375 58.57421875 401.7734375 58.57421875 391.41796875 58.57421875 c 128,-1,30
 381.0703125 58.57421875 381.0703125 58.57421875 373.744140625 65.900390625 c 2,31,-1
 90.900390625 348.744140625 l 1,32,33
 83.57421875 356.0703125 83.57421875 356.0703125 83.57421875 366.42578125 c 128,-1,34
 83.57421875 376.7734375 83.57421875 376.7734375 90.900390625 384.099609375 c 0,35,36
 96.6460379679 389.843718392 96.6460379679 389.843718392 104.66796875 391.11328125 c 0,21,22
250 350 m 0,37,38
 301.238592177 349.673127357 301.238592177 349.673127357 338.388671875 313.388671875 c 0,39,40
 345.710693359 306.066650391 345.710693359 306.066650391 345.710693359 295.7109375 c 128,-1,41
 345.710693359 285.355224609 345.710693359 285.355224609 338.388671875 278.033203125 c 128,-1,42
 331.066650391 270.711181641 331.066650391 270.711181641 320.7109375 270.711181641 c 128,-1,43
 310.355224609 270.711181641 310.355224609 270.711181641 303.033203125 278.033203125 c 0,44,45
 281.06640625 300 281.06640625 300 250 300 c 128,-1,46
 218.932013291 300 218.932013291 300 196.966796875 278.033203125 c 0,47,48
 189.644775391 270.711181641 189.644775391 270.711181641 179.2890625 270.711181641 c 128,-1,49
 168.933349609 270.711181641 168.933349609 270.711181641 161.611328125 278.033203125 c 128,-1,50
 154.289306641 285.355224609 154.289306641 285.355224609 154.289306641 295.7109375 c 128,-1,51
 154.289306641 306.066650391 154.289306641 306.066650391 161.611328125 313.388671875 c 0,52,53
 198.754404448 349.673182595 198.754404448 349.673182595 250 350 c 0,37,38
179.2890625 179.2890625 m 0,54,-1
 179.325195312 179.29296875 l 0,55,56
 189.659600623 179.29296875 189.659600623 179.29296875 196.966796875 171.966796875 c 0,57,58
 218.93359375 150 218.93359375 150 250 150 c 128,-1,59
 281.067986709 150 281.067986709 150 303.033203125 171.966796875 c 0,60,61
 310.355224609 179.288818359 310.355224609 179.288818359 320.7109375 179.288818359 c 128,-1,62
 331.066650391 179.288818359 331.066650391 179.288818359 338.388671875 171.966796875 c 128,-1,63
 345.710693359 164.644775391 345.710693359 164.644775391 345.710693359 154.2890625 c 128,-1,64
 345.710693359 143.933349609 345.710693359 143.933349609 338.388671875 136.611328125 c 0,65,66
 301.245595552 100.326817405 301.245595552 100.326817405 250 100 c 0,67,68
 198.75689324 100.326901443 198.75689324 100.326901443 161.611328125 136.611328125 c 0,69,70
 154.289306641 143.933349609 154.289306641 143.933349609 154.289306641 154.2890625 c 128,-1,71
 154.289306641 164.644775391 154.289306641 164.644775391 161.611328125 171.966796875 c 128,-1,72
 168.914628244 179.2890625 168.914628244 179.2890625 179.254882812 179.2890625 c 0,73,-1
 179.2890625 179.2890625 l 0,54,-1
EndSplineSet
EndChar

StartChar: dollar
Encoding: 36 36 4
Width: 500
Flags: W
LayerCount: 2
Fore
SplineSet
108.578125 391.421875 m 128,-1,1
 118.93359375 391.421875 118.93359375 391.421875 126.255859375 384.099609375 c 128,-1,2
 133.58203125 376.7734375 133.58203125 376.7734375 133.58203125 366.41796875 c 128,-1,3
 133.58203125 356.0703125 133.58203125 356.0703125 126.255859375 348.744140625 c 0,4,5
 74.974609375 297.462890625 74.974609375 297.462890625 74.974609375 224.975585938 c 128,-1,6
 74.974609375 152.537109375 74.974609375 152.537109375 126.255859375 101.255859375 c 128,-1,7
 177.537109375 49.974609375 177.537109375 49.974609375 250.024414062 49.974609375 c 128,-1,8
 322.462890625 49.974609375 322.462890625 49.974609375 373.744140625 101.255859375 c 128,-1,9
 425.025390625 152.537109375 425.025390625 152.537109375 425.025390625 225.024414062 c 128,-1,10
 425.025390625 297.462890625 425.025390625 297.462890625 373.744140625 348.744140625 c 0,11,12
 366.41796875 356.0703125 366.41796875 356.0703125 366.41796875 366.42578125 c 128,-1,13
 366.41796875 376.7734375 366.41796875 376.7734375 373.744140625 384.099609375 c 128,-1,14
 381.0703125 391.42578125 381.0703125 391.42578125 391.42578125 391.42578125 c 128,-1,15
 401.7734375 391.42578125 401.7734375 391.42578125 409.099609375 384.099609375 c 1,16,-1
 409.09765625 384.09765625 l 0,17,18
 409.534295214 383.662477617 409.534295214 383.662477617 409.9453125 383.2109375 c 2,19,-1
 409.955078125 383.1953125 l 1,20,21
 475.008789062 317.417957436 475.008789062 317.417957436 475.008789062 224.947265625 c 0,22,23
 475.008789062 131.828913403 475.008789062 131.828913403 409.09765625 65.900390625 c 128,-1,24
 343.166015625 -0.03125 343.166015625 -0.03125 249.967773438 -0.03125 c 128,-1,25
 156.83203125 -0.03125 156.83203125 -0.03125 90.900390625 65.900390625 c 128,-1,26
 25.1474609375 131.787648647 25.1474609375 131.787648647 25.1474609375 224.888671875 c 0,27,28
 25.1474609375 315.943096718 25.1474609375 315.943096718 88.5625 381.3984375 c 0,29,30
 89.6362951807 382.835513931 89.6362951807 382.835513931 90.900390625 384.099609375 c 0,31,0
 98.22265625 391.421875 98.22265625 391.421875 108.578125 391.421875 c 128,-1,1
104.66796875 391.11328125 m 0,32,33
 106.634460449 391.424804688 106.634460449 391.424804688 108.58203125 391.424804688 c 0,34,35
 118.929082971 391.424804688 118.929082971 391.424804688 126.255859375 384.099609375 c 2,36,-1
 409.099609375 101.255859375 l 1,37,38
 416.42578125 93.9296875 416.42578125 93.9296875 416.42578125 83.57421875 c 128,-1,39
 416.42578125 73.2265625 416.42578125 73.2265625 409.099609375 65.900390625 c 128,-1,40
 401.7734375 58.57421875 401.7734375 58.57421875 391.41796875 58.57421875 c 128,-1,41
 381.0703125 58.57421875 381.0703125 58.57421875 373.744140625 65.900390625 c 2,42,-1
 90.900390625 348.744140625 l 1,43,44
 83.57421875 356.0703125 83.57421875 356.0703125 83.57421875 366.42578125 c 128,-1,45
 83.57421875 376.7734375 83.57421875 376.7734375 90.900390625 384.099609375 c 0,46,47
 96.6460379679 389.843718392 96.6460379679 389.843718392 104.66796875 391.11328125 c 0,32,33
250 650 m 128,-1,49
 260 650 260 650 267.5 642.5 c 128,-1,50
 275 635 275 635 275 625 c 2,51,-1
 275 -175 l 2,52,53
 275 -185 275 -185 267.5 -192.5 c 128,-1,54
 260 -200 260 -200 250 -200 c 128,-1,55
 240 -200 240 -200 232.5 -192.5 c 128,-1,56
 225 -185 225 -185 225 -175 c 2,57,-1
 225 625 l 2,58,59
 225 635 225 635 232.5 642.5 c 128,-1,48
 240 650 240 650 250 650 c 128,-1,49
EndSplineSet
EndChar

StartChar: percent
Encoding: 37 37 5
Width: 500
Flags: W
LayerCount: 2
Fore
SplineSet
390.861328125 391.4140625 m 0,0,1
 391.337402344 391.423828125 391.337402344 391.423828125 391.426757812 391.423828125 c 0,2,3
 401.773809745 391.423828125 401.773809745 391.423828125 409.099609375 384.099609375 c 128,-1,4
 416.42578125 376.7734375 416.42578125 376.7734375 416.42578125 366.41796875 c 128,-1,5
 416.42578125 356.0703125 416.42578125 356.0703125 409.099609375 348.744140625 c 2,6,-1
 395.411241319 335.010850694 l 0,7,8
 381.722873264 321.277560764 381.722873264 321.277560764 368.017795139 307.572482639 c 128,-1,9
 354.312717014 293.867404514 354.312717014 293.867404514 354.279296875 293.923828125 c 1,10,11
 374.99855574 262.578194878 374.99855574 262.578194878 375 225 c 0,12,13
 375 173 375 173 338.5 136.5 c 128,-1,14
 302 100 302 100 250 100 c 0,15,16
 212.421805122 100.00144426 212.421805122 100.00144426 181.076171875 120.720703125 c 1,17,-1
 167.369574653 107.015625 l 0,18,19
 153.662977431 93.310546875 153.662977431 93.310546875 139.957899306 79.60546875 c 128,-1,20
 126.252821181 65.900390625 126.252821181 65.900390625 126.255859375 65.900390625 c 1,21,22
 118.9296875 58.57421875 118.9296875 58.57421875 108.57421875 58.57421875 c 128,-1,23
 98.2265625 58.57421875 98.2265625 58.57421875 90.900390625 65.900390625 c 128,-1,24
 83.57421875 73.2265625 83.57421875 73.2265625 83.57421875 83.58203125 c 128,-1,25
 83.57421875 93.9296875 83.57421875 93.9296875 90.900390625 101.255859375 c 2,26,-1
 104.588758681 114.989149306 l 0,27,28
 118.277126736 128.722439236 118.277126736 128.722439236 131.982204861 142.427517361 c 128,-1,29
 145.687282986 156.132595486 145.687282986 156.132595486 145.720703125 156.076171875 c 1,30,31
 125.00144426 187.421805122 125.00144426 187.421805122 125 225 c 0,32,33
 125 277 125 277 161.5 313.5 c 128,-1,34
 198 350 198 350 250 350 c 0,35,36
 287.578194878 349.99855574 287.578194878 349.99855574 318.923828125 329.279296875 c 1,37,-1
 332.634982639 342.983723958 l 0,38,39
 346.346137153 356.688151042 346.346137153 356.688151042 360.051215278 370.393229167 c 128,-1,40
 373.756293403 384.098307292 373.756293403 384.098307292 373.744140625 384.099609375 c 1,41,42
 379.489787968 389.843718392 379.489787968 389.843718392 387.51171875 391.11328125 c 0,43,44
 389.177509555 391.376612301 389.177509555 391.376612301 390.861328125 391.4140625 c 0,0,1
250 300 m 0,45,46
 219 300 219 300 197 278 c 128,-1,47
 175 256 175 256 175 225 c 0,48,49
 175 208.010212322 175 208.010212322 182.322265625 192.677734375 c 1,50,-1
 282.322265625 292.677734375 l 1,51,52
 266.989787678 300 266.989787678 300 250 300 c 0,45,46
317.677734375 257.322265625 m 1,53,-1
 217.677734375 157.322265625 l 1,54,55
 233.010212322 150 233.010212322 150 250 150 c 0,56,57
 281 150 281 150 303 172 c 128,-1,58
 325 194 325 194 325 225 c 0,59,60
 325 241.989787678 325 241.989787678 317.677734375 257.322265625 c 1,53,-1
EndSplineSet
EndChar

StartChar: ampersand
Encoding: 38 38 6
Width: 500
Flags: W
LayerCount: 2
Fore
SplineSet
234.634765625 449.453125 m 0,0,1
 242.778139067 450.010742188 242.778139067 450.010742188 250.05078125 450.010742188 c 0,2,3
 343.170714288 450.010742188 343.170714288 450.010742188 409.099609375 384.09765625 c 128,-1,4
 475.03125 318.166015625 475.03125 318.166015625 475.03125 224.967773438 c 128,-1,5
 475.03125 131.83203125 475.03125 131.83203125 409.099609375 65.900390625 c 128,-1,6
 343.212351353 0.1474609375 343.212351353 0.1474609375 250.111328125 0.1474609375 c 0,7,8
 159.056903282 0.1474609375 159.056903282 0.1474609375 93.6015625 63.5625 c 0,9,10
 92.1644860693 64.6362951807 92.1644860693 64.6362951807 90.900390625 65.900390625 c 0,11,12
 83.57421875 73.2265625 83.57421875 73.2265625 83.57421875 83.58203125 c 128,-1,13
 83.57421875 93.9296875 83.57421875 93.9296875 90.900390625 101.255859375 c 128,-1,14
 98.2265625 108.58203125 98.2265625 108.58203125 108.58203125 108.58203125 c 128,-1,15
 118.9296875 108.58203125 118.9296875 108.58203125 126.255859375 101.255859375 c 0,16,17
 177.537109375 49.974609375 177.537109375 49.974609375 250.024414062 49.974609375 c 128,-1,18
 322.462890625 49.974609375 322.462890625 49.974609375 373.744140625 101.255859375 c 128,-1,19
 425.025390625 152.537109375 425.025390625 152.537109375 425.025390625 225.024414062 c 128,-1,20
 425.025390625 297.462890625 425.025390625 297.462890625 373.744140625 348.744140625 c 128,-1,21
 322.462890625 400.025390625 322.462890625 400.025390625 249.975585938 400.025390625 c 128,-1,22
 177.537109375 400.025390625 177.537109375 400.025390625 126.255859375 348.744140625 c 0,23,24
 118.9296875 341.41796875 118.9296875 341.41796875 108.57421875 341.41796875 c 128,-1,25
 98.2265625 341.41796875 98.2265625 341.41796875 90.900390625 348.744140625 c 128,-1,26
 83.57421875 356.0703125 83.57421875 356.0703125 83.57421875 366.42578125 c 128,-1,27
 83.57421875 376.7734375 83.57421875 376.7734375 90.900390625 384.099609375 c 1,28,-1
 90.90234375 384.09765625 l 0,29,30
 91.3375223833 384.534295214 91.3375223833 384.534295214 91.7890625 384.9453125 c 2,31,-1
 91.8046875 384.955078125 l 1,32,33
 151.23963867 443.736280718 151.23963867 443.736280718 234.634765625 449.453125 c 0,0,1
250 350 m 0,34,35
 302 350 302 350 338.5 313.5 c 128,-1,36
 375 277 375 277 375 225 c 128,-1,37
 375 173 375 173 338.5 136.5 c 128,-1,38
 302 100 302 100 250 100 c 0,39,40
 198.75689324 100.326901443 198.75689324 100.326901443 161.611328125 136.611328125 c 0,41,42
 154.289306641 143.933349609 154.289306641 143.933349609 154.289306641 154.2890625 c 128,-1,43
 154.289306641 164.644775391 154.289306641 164.644775391 161.611328125 171.966796875 c 128,-1,44
 168.933349609 179.288818359 168.933349609 179.288818359 179.2890625 179.288818359 c 128,-1,45
 189.644775391 179.288818359 189.644775391 179.288818359 196.966796875 171.966796875 c 1,46,-1
 197.16796875 172.16796875 l 1,47,48
 219.002791354 150.165744787 219.002791354 150.165744787 250 150 c 128,-1,49
 281 150 281 150 303 172 c 128,-1,50
 325 194 325 194 325 225 c 128,-1,51
 325 256 325 256 303 278 c 128,-1,52
 281 300 281 300 250 300 c 128,-1,53
 219.002791354 299.834255213 219.002791354 299.834255213 197.16796875 277.83203125 c 1,54,-1
 196.966796875 278.033203125 l 1,55,56
 189.644775391 270.711181641 189.644775391 270.711181641 179.2890625 270.711181641 c 128,-1,57
 168.933349609 270.711181641 168.933349609 270.711181641 161.611328125 278.033203125 c 128,-1,58
 154.289306641 285.355224609 154.289306641 285.355224609 154.289306641 295.7109375 c 128,-1,59
 154.289306641 306.066650391 154.289306641 306.066650391 161.611328125 313.388671875 c 0,60,61
 198.754404448 349.673182595 198.754404448 349.673182595 250 350 c 0,34,35
250 250 m 128,-1,63
 260 250 260 250 267.5 242.5 c 128,-1,64
 275 235 275 235 275 225 c 128,-1,65
 275 215 275 215 267.5 207.5 c 128,-1,66
 260 200 260 200 250 200 c 128,-1,67
 240 200 240 200 232.5 207.5 c 128,-1,68
 225 215 225 215 225 225 c 128,-1,69
 225 235 225 235 232.5 242.5 c 128,-1,62
 240 250 240 250 250 250 c 128,-1,63
EndSplineSet
EndChar

StartChar: quotesingle
Encoding: 39 39 7
Width: 500
Flags: W
LayerCount: 2
Fore
SplineSet
250 250 m 128,-1,1
 260 250 260 250 267.5 242.5 c 128,-1,2
 275 235 275 235 275 225 c 128,-1,3
 275 215 275 215 267.5 207.5 c 128,-1,4
 260 200 260 200 250 200 c 128,-1,5
 240 200 240 200 232.5 207.5 c 128,-1,6
 225 215 225 215 225 225 c 128,-1,7
 225 235 225 235 232.5 242.5 c 128,-1,0
 240 250 240 250 250 250 c 128,-1,1
EndSplineSet
EndChar

StartChar: parenleft
Encoding: 40 40 8
Width: 500
Flags: W
LayerCount: 2
Fore
SplineSet
350 550 m 0,0,1
 360 550 360 550 367.5 542.5 c 128,-1,2
 375 535 375 535 375 525 c 128,-1,3
 375 515 375 515 367.5 507.5 c 128,-1,4
 360 500 360 500 350 500 c 1,5,-1
 350 499.716796875 l 1,6,-1
 349.703125 499.725585938 l 0,7,8
 318.893008723 499.725585938 318.893008723 499.725585938 296.966796875 478.033203125 c 0,9,10
 275 456.067871094 275 456.067871094 275 425 c 2,11,-1
 275 25 l 2,12,13
 275 -6.06640625 275 -6.06640625 296.966796875 -28.033203125 c 0,14,15
 318.88511201 -49.7177734375 318.88511201 -49.7177734375 349.709960938 -49.7177734375 c 0,16,-1
 350 -49.716796875 l 1,17,-1
 350 -50 l 1,18,19
 360.354625616 -50 360.354625616 -50 367.677312808 -57.3236750888 c 128,-1,20
 375 -64.6473501777 375 -64.6473501777 375 -75.001953125 c 128,-1,21
 375 -85.3563698082 375 -85.3563698082 367.677405918 -92.6791614666 c 128,-1,22
 360.354811837 -100.001953125 360.354811837 -100.001953125 350 -100.001953125 c 0,23,24
 298.08038125 -99.3951529751 298.08038125 -99.3951529751 261.611328125 -63.388671875 c 0,25,26
 225 -26.7758789453 225 -26.7758789453 225 25 c 2,27,-1
 225 425 l 2,28,29
 225 476.775878945 225 476.775878945 261.611328125 513.388671875 c 0,30,31
 298.078814947 549.394492054 298.078814947 549.394492054 350 550 c 0,0,1
253.400390625 449.748046875 m 1,32,33
 254.575518533 449.588334977 254.575518533 449.588334977 255.724609375 449.3203125 c 1,34,35
 254.575518533 449.588334977 254.575518533 449.588334977 253.400390625 449.748046875 c 1,32,33
256.048828125 449.251953125 m 1,36,37
 257.346177314 448.922444163 257.346177314 448.922444163 258.5859375 448.462890625 c 1,38,39
 257.346177314 448.922444163 257.346177314 448.922444163 256.048828125 449.251953125 c 1,36,37
273.4609375 433.587890625 m 1,40,41
 273.926695205 432.331393152 273.926695205 432.331393152 274.251953125 431.05078125 c 1,42,43
 273.922829192 432.3451386 273.922829192 432.3451386 273.462890625 433.5859375 c 2,44,-1
 273.4609375 433.587890625 l 1,40,41
EndSplineSet
EndChar

StartChar: parenright
Encoding: 41 41 9
Width: 500
Flags: W
LayerCount: 2
Fore
SplineSet
150 550.001953125 m 0,0,1
 201.91961875 549.395152975 201.91961875 549.395152975 238.388671875 513.388671875 c 0,2,3
 275 476.775878945 275 476.775878945 275 425 c 2,4,-1
 275 25 l 2,5,6
 275 -26.7758789453 275 -26.7758789453 238.388671875 -63.388671875 c 0,7,8
 201.921185053 -99.3944920541 201.921185053 -99.3944920541 150 -100 c 0,9,10
 140 -100 140 -100 132.5 -92.5 c 128,-1,11
 125 -85 125 -85 125 -75 c 128,-1,12
 125 -65 125 -65 132.5 -57.5 c 128,-1,13
 140 -50 140 -50 150 -50 c 1,14,-1
 150 -49.716796875 l 1,15,-1
 150.296875 -49.7255859375 l 0,16,17
 181.106991277 -49.7255859375 181.106991277 -49.7255859375 203.033203125 -28.033203125 c 0,18,19
 225 -6.06787109375 225 -6.06787109375 225 25 c 2,20,-1
 225 425 l 2,21,22
 225 456.06640625 225 456.06640625 203.033203125 478.033203125 c 0,23,24
 181.11488799 499.717773438 181.11488799 499.717773438 150.290039062 499.717773438 c 0,25,-1
 150 499.716796875 l 1,26,-1
 150 500 l 1,27,28
 139.645374384 500 139.645374384 500 132.322687192 507.323675089 c 128,-1,29
 125 514.647350178 125 514.647350178 125 525.001953125 c 128,-1,30
 125 535.356369808 125 535.356369808 132.322594082 542.679161467 c 128,-1,31
 139.645188163 550.001953125 139.645188163 550.001953125 150 550.001953125 c 0,0,1
253.400390625 449.748046875 m 1,32,33
 254.575518533 449.588334977 254.575518533 449.588334977 255.724609375 449.3203125 c 1,34,35
 254.575518533 449.588334977 254.575518533 449.588334977 253.400390625 449.748046875 c 1,32,33
256.048828125 449.251953125 m 1,36,37
 257.346177314 448.922444163 257.346177314 448.922444163 258.5859375 448.462890625 c 1,38,39
 257.346177314 448.922444163 257.346177314 448.922444163 256.048828125 449.251953125 c 1,36,37
273.4609375 433.587890625 m 1,40,41
 273.926695205 432.331393152 273.926695205 432.331393152 274.251953125 431.05078125 c 1,42,43
 273.922829192 432.3451386 273.922829192 432.3451386 273.462890625 433.5859375 c 2,44,-1
 273.4609375 433.587890625 l 1,40,41
EndSplineSet
EndChar

StartChar: asterisk
Encoding: 42 42 10
Width: 500
Flags: W
LayerCount: 2
Fore
SplineSet
250 450 m 128,-1,1
 260 450 260 450 267.5 442.5 c 128,-1,2
 275 435 275 435 275 425 c 2,3,-1
 275 285.35546875 l 1,4,-1
 299.687554253 310.041503906 l 0,5,6
 324.375108507 334.727539062 324.375108507 334.727539062 349.061143663 359.413574219 c 128,-1,7
 373.747178819 384.099609375 373.747178819 384.099609375 373.744140625 384.099609375 c 1,8,9
 381.0703125 391.42578125 381.0703125 391.42578125 391.42578125 391.42578125 c 128,-1,10
 401.7734375 391.42578125 401.7734375 391.42578125 409.099609375 384.099609375 c 128,-1,11
 416.42578125 376.7734375 416.42578125 376.7734375 416.42578125 366.41796875 c 128,-1,12
 416.42578125 356.0703125 416.42578125 356.0703125 409.099609375 348.744140625 c 2,13,-1
 285.35546875 225 l 1,14,-1
 409.099609375 101.255859375 l 1,15,16
 416.42578125 93.9296875 416.42578125 93.9296875 416.42578125 83.57421875 c 128,-1,17
 416.42578125 73.2265625 416.42578125 73.2265625 409.099609375 65.900390625 c 128,-1,18
 401.7734375 58.57421875 401.7734375 58.57421875 391.41796875 58.57421875 c 128,-1,19
 381.0703125 58.57421875 381.0703125 58.57421875 373.744140625 65.900390625 c 2,20,-1
 275 164.64453125 l 1,21,-1
 275 25 l 2,22,23
 275 15 275 15 267.5 7.5 c 128,-1,24
 260 0 260 0 250 0 c 128,-1,25
 240 0 240 0 232.5 7.5 c 128,-1,26
 225 15 225 15 225 25 c 2,27,-1
 225 164.64453125 l 1,28,-1
 200.312445747 139.958496094 l 0,29,30
 175.624891493 115.272460938 175.624891493 115.272460938 150.938856337 90.5864257812 c 128,-1,31
 126.252821181 65.900390625 126.252821181 65.900390625 126.255859375 65.900390625 c 1,32,33
 118.9296875 58.57421875 118.9296875 58.57421875 108.57421875 58.57421875 c 128,-1,34
 98.2265625 58.57421875 98.2265625 58.57421875 90.900390625 65.900390625 c 128,-1,35
 83.57421875 73.2265625 83.57421875 73.2265625 83.57421875 83.58203125 c 128,-1,36
 83.57421875 93.9296875 83.57421875 93.9296875 90.900390625 101.255859375 c 2,37,-1
 214.64453125 225 l 1,38,-1
 90.900390625 348.744140625 l 1,39,40
 83.57421875 356.0703125 83.57421875 356.0703125 83.57421875 366.42578125 c 128,-1,41
 83.57421875 376.7734375 83.57421875 376.7734375 90.900390625 384.099609375 c 128,-1,42
 98.2265625 391.42578125 98.2265625 391.42578125 108.58203125 391.42578125 c 128,-1,43
 118.9296875 391.42578125 118.9296875 391.42578125 126.255859375 384.099609375 c 2,44,-1
 225 285.35546875 l 1,45,-1
 225 425 l 2,46,47
 225 435 225 435 232.5 442.5 c 128,-1,0
 240 450 240 450 250 450 c 128,-1,1
EndSplineSet
EndChar

StartChar: plus
Encoding: 43 43 11
Width: 500
Flags: W
LayerCount: 2
Fore
SplineSet
250 450 m 128,-1,1
 260 450 260 450 267.5 442.5 c 128,-1,2
 275 435 275 435 275 425 c 2,3,-1
 275 250 l 1,4,-1
 450 250 l 2,5,6
 460 250 460 250 467.5 242.5 c 128,-1,7
 475 235 475 235 475 225 c 128,-1,8
 475 215 475 215 467.5 207.5 c 128,-1,9
 460 200 460 200 450 200 c 2,10,-1
 275 200 l 1,11,-1
 275 25 l 2,12,13
 275 15 275 15 267.5 7.5 c 128,-1,14
 260 0 260 0 250 0 c 128,-1,15
 240 0 240 0 232.5 7.5 c 128,-1,16
 225 15 225 15 225 25 c 2,17,-1
 225 200 l 1,18,-1
 50 200 l 2,19,20
 40 200 40 200 32.5 207.5 c 128,-1,21
 25 215 25 215 25 225 c 128,-1,22
 25 235 25 235 32.5 242.5 c 128,-1,23
 40 250 40 250 50 250 c 2,24,-1
 225 250 l 1,25,-1
 225 425 l 2,26,27
 225 435 225 435 232.5 442.5 c 128,-1,0
 240 450 240 450 250 450 c 128,-1,1
EndSplineSet
EndChar

StartChar: comma
Encoding: 44 44 12
Width: 500
Flags: W
LayerCount: 2
Fore
SplineSet
50 250 m 128,-1,1
 60 250 60 250 67.5 242.5 c 128,-1,2
 75 235 75 235 75 225 c 128,-1,3
 75 215 75 215 67.5 207.5 c 128,-1,4
 60 200 60 200 50 200 c 128,-1,5
 40 200 40 200 32.5 207.5 c 128,-1,6
 25 215 25 215 25 225 c 128,-1,7
 25 235 25 235 32.5 242.5 c 128,-1,0
 40 250 40 250 50 250 c 128,-1,1
250 250 m 128,-1,9
 260 250 260 250 267.5 242.5 c 128,-1,10
 275 235 275 235 275 225 c 128,-1,11
 275 215 275 215 267.5 207.5 c 128,-1,12
 260 200 260 200 250 200 c 128,-1,13
 240 200 240 200 232.5 207.5 c 128,-1,14
 225 215 225 215 225 225 c 128,-1,15
 225 235 225 235 232.5 242.5 c 128,-1,8
 240 250 240 250 250 250 c 128,-1,9
450 250 m 128,-1,17
 460 250 460 250 467.5 242.5 c 128,-1,18
 475 235 475 235 475 225 c 128,-1,19
 475 215 475 215 467.5 207.5 c 128,-1,20
 460 200 460 200 450 200 c 128,-1,21
 440 200 440 200 432.5 207.5 c 128,-1,22
 425 215 425 215 425 225 c 128,-1,23
 425 235 425 235 432.5 242.5 c 128,-1,16
 440 250 440 250 450 250 c 128,-1,17
EndSplineSet
EndChar

StartChar: hyphen
Encoding: 45 45 13
Width: 500
Flags: W
LayerCount: 2
Fore
SplineSet
50 250 m 2,0,-1
 450 250 l 2,1,2
 460 250 460 250 467.5 242.5 c 128,-1,3
 475 235 475 235 475 225 c 128,-1,4
 475 215 475 215 467.5 207.5 c 128,-1,5
 460 200 460 200 450 200 c 2,6,-1
 50 200 l 2,7,8
 40 200 40 200 32.5 207.5 c 128,-1,9
 25 215 25 215 25 225 c 128,-1,10
 25 235 25 235 32.5 242.5 c 128,-1,11
 40 250 40 250 50 250 c 2,0,-1
EndSplineSet
EndChar

StartChar: period
Encoding: 46 46 14
Width: 500
Flags: W
LayerCount: 2
Fore
SplineSet
250 450 m 128,-1,1
 260 450 260 450 267.5 442.5 c 128,-1,2
 275 435 275 435 275 425 c 128,-1,3
 275 415 275 415 267.5 407.5 c 128,-1,4
 260 400 260 400 250 400 c 128,-1,5
 240 400 240 400 232.5 407.5 c 128,-1,6
 225 415 225 415 225 425 c 128,-1,7
 225 435 225 435 232.5 442.5 c 128,-1,0
 240 450 240 450 250 450 c 128,-1,1
50 250 m 128,-1,9
 60 250 60 250 67.5 242.5 c 128,-1,10
 75 235 75 235 75 225 c 128,-1,11
 75 215 75 215 67.5 207.5 c 128,-1,12
 60 200 60 200 50 200 c 128,-1,13
 40 200 40 200 32.5 207.5 c 128,-1,14
 25 215 25 215 25 225 c 128,-1,15
 25 235 25 235 32.5 242.5 c 128,-1,8
 40 250 40 250 50 250 c 128,-1,9
250 250 m 128,-1,17
 260 250 260 250 267.5 242.5 c 128,-1,18
 275 235 275 235 275 225 c 128,-1,19
 275 215 275 215 267.5 207.5 c 128,-1,20
 260 200 260 200 250 200 c 128,-1,21
 240 200 240 200 232.5 207.5 c 128,-1,22
 225 215 225 215 225 225 c 128,-1,23
 225 235 225 235 232.5 242.5 c 128,-1,16
 240 250 240 250 250 250 c 128,-1,17
450 250 m 128,-1,25
 460 250 460 250 467.5 242.5 c 128,-1,26
 475 235 475 235 475 225 c 128,-1,27
 475 215 475 215 467.5 207.5 c 128,-1,28
 460 200 460 200 450 200 c 128,-1,29
 440 200 440 200 432.5 207.5 c 128,-1,30
 425 215 425 215 425 225 c 128,-1,31
 425 235 425 235 432.5 242.5 c 128,-1,24
 440 250 440 250 450 250 c 128,-1,25
250 50 m 128,-1,33
 260 50 260 50 267.5 42.5 c 128,-1,34
 275 35 275 35 275 25 c 128,-1,35
 275 15 275 15 267.5 7.5 c 128,-1,36
 260 0 260 0 250 0 c 128,-1,37
 240 0 240 0 232.5 7.5 c 128,-1,38
 225 15 225 15 225 25 c 128,-1,39
 225 35 225 35 232.5 42.5 c 128,-1,32
 240 50 240 50 250 50 c 128,-1,33
EndSplineSet
EndChar

StartChar: slash
Encoding: 47 47 15
Width: 500
Flags: W
LayerCount: 2
Fore
SplineSet
387.51171875 391.11328125 m 0,0,1
 389.478210449 391.424804688 389.478210449 391.424804688 391.42578125 391.424804688 c 0,2,3
 401.772832971 391.424804688 401.772832971 391.424804688 409.099609375 384.099609375 c 128,-1,4
 416.42578125 376.7734375 416.42578125 376.7734375 416.42578125 366.41796875 c 128,-1,5
 416.42578125 356.0703125 416.42578125 356.0703125 409.099609375 348.744140625 c 2,6,-1
 338.387152778 278.033203125 l 0,7,8
 267.674696181 207.322265625 267.674696181 207.322265625 196.963758681 136.611328125 c 128,-1,9
 126.252821181 65.900390625 126.252821181 65.900390625 126.255859375 65.900390625 c 1,10,11
 118.9296875 58.57421875 118.9296875 58.57421875 108.57421875 58.57421875 c 128,-1,12
 98.2265625 58.57421875 98.2265625 58.57421875 90.900390625 65.900390625 c 128,-1,13
 83.57421875 73.2265625 83.57421875 73.2265625 83.57421875 83.58203125 c 128,-1,14
 83.57421875 93.9296875 83.57421875 93.9296875 90.900390625 101.255859375 c 2,15,-1
 161.617404514 171.966145833 l 0,16,17
 232.334418403 242.676432292 232.334418403 242.676432292 303.045355903 313.387369792 c 128,-1,18
 373.756293403 384.098307292 373.756293403 384.098307292 373.744140625 384.099609375 c 1,19,20
 379.489787968 389.843718392 379.489787968 389.843718392 387.51171875 391.11328125 c 0,0,1
EndSplineSet
EndChar

StartChar: zero
Encoding: 48 48 16
Width: 500
Flags: W
LayerCount: 2
Fore
SplineSet
250 350 m 128,-1,1
 302 350 302 350 338.5 313.5 c 128,-1,2
 375 277 375 277 375 225 c 128,-1,3
 375 173 375 173 338.5 136.5 c 128,-1,4
 302 100 302 100 250 100 c 128,-1,5
 198 100 198 100 161.5 136.5 c 128,-1,6
 125 173 125 173 125 225 c 128,-1,7
 125 277 125 277 161.5 313.5 c 128,-1,0
 198 350 198 350 250 350 c 128,-1,1
250 300 m 128,-1,9
 219 300 219 300 197 278 c 128,-1,10
 175 256 175 256 175 225 c 128,-1,11
 175 194 175 194 197 172 c 128,-1,12
 219 150 219 150 250 150 c 128,-1,13
 281 150 281 150 303 172 c 128,-1,14
 325 194 325 194 325 225 c 128,-1,15
 325 256 325 256 303 278 c 128,-1,8
 281 300 281 300 250 300 c 128,-1,9
EndSplineSet
EndChar

StartChar: one
Encoding: 49 49 17
Width: 500
Flags: W
LayerCount: 2
Fore
SplineSet
250 450 m 0,0,-1
 249.999023438 450 l 0,1,2
 250.615722656 450 250.615722656 450 251.2265625 449.970703125 c 2,3,-1
 251.244140625 449.96875 l 1,4,5
 343.962438538 449.455907295 343.962438538 449.455907295 409.475361576 383.619054958 c 128,-1,6
 474.988284613 317.782202622 474.988284613 317.782202622 475 225 c 0,7,8
 475 132 475 132 409 66 c 128,-1,9
 343 0 343 0 250 0 c 0,10,11
 157.923997391 0.09294544504 157.923997391 0.09294544504 92.3174234462 64.8164879247 c 128,-1,12
 26.7108495016 129.540030404 26.7108495016 129.540030404 25.255859375 221.4375 c 0,13,14
 25 223.21224711 25 223.21224711 25 225 c 0,15,16
 25 235 25 235 32.5 242.5 c 128,-1,17
 40 250 40 250 50 250 c 128,-1,18
 60 250 60 250 67.5 242.5 c 128,-1,19
 75 235 75 235 75 225 c 0,20,21
 75 153 75 153 126.5 101.5 c 128,-1,22
 178 50 178 50 250 50 c 128,-1,23
 322 50 322 50 373.5 101.5 c 128,-1,24
 425 153 425 153 425 225 c 128,-1,25
 425 297 425 297 373.5 348.5 c 128,-1,26
 322 400 322 400 250 400 c 0,27,28
 240 400 240 400 232.5 407.5 c 128,-1,29
 225 415 225 415 225 425 c 128,-1,30
 225 435 225 435 232.5 442.5 c 128,-1,31
 240 450 240 450 250 450 c 0,0,-1
250 350 m 128,-1,33
 302 350 302 350 338.5 313.5 c 128,-1,34
 375 277 375 277 375 225 c 128,-1,35
 375 173 375 173 338.5 136.5 c 128,-1,36
 302 100 302 100 250 100 c 128,-1,37
 198 100 198 100 161.5 136.5 c 128,-1,38
 125 173 125 173 125 225 c 128,-1,39
 125 277 125 277 161.5 313.5 c 128,-1,32
 198 350 198 350 250 350 c 128,-1,33
250 300 m 128,-1,41
 219 300 219 300 197 278 c 128,-1,42
 175 256 175 256 175 225 c 128,-1,43
 175 194 175 194 197 172 c 128,-1,44
 219 150 219 150 250 150 c 128,-1,45
 281 150 281 150 303 172 c 128,-1,46
 325 194 325 194 325 225 c 128,-1,47
 325 256 325 256 303 278 c 128,-1,40
 281 300 281 300 250 300 c 128,-1,41
EndSplineSet
EndChar

StartChar: two
Encoding: 50 50 18
Width: 500
Flags: W
LayerCount: 2
Fore
SplineSet
108.578125 391.421875 m 128,-1,1
 118.93359375 391.421875 118.93359375 391.421875 126.255859375 384.099609375 c 128,-1,2
 133.58203125 376.7734375 133.58203125 376.7734375 133.58203125 366.41796875 c 128,-1,3
 133.58203125 356.0703125 133.58203125 356.0703125 126.255859375 348.744140625 c 0,4,5
 74.974609375 297.462890625 74.974609375 297.462890625 74.974609375 224.975585938 c 128,-1,6
 74.974609375 152.537109375 74.974609375 152.537109375 126.255859375 101.255859375 c 128,-1,7
 177.537109375 49.974609375 177.537109375 49.974609375 250.024414062 49.974609375 c 128,-1,8
 322.462890625 49.974609375 322.462890625 49.974609375 373.744140625 101.255859375 c 128,-1,9
 425.025390625 152.537109375 425.025390625 152.537109375 425.025390625 225.024414062 c 128,-1,10
 425.025390625 297.462890625 425.025390625 297.462890625 373.744140625 348.744140625 c 0,11,12
 366.41796875 356.0703125 366.41796875 356.0703125 366.41796875 366.42578125 c 128,-1,13
 366.41796875 376.7734375 366.41796875 376.7734375 373.744140625 384.099609375 c 128,-1,14
 381.0703125 391.42578125 381.0703125 391.42578125 391.42578125 391.42578125 c 128,-1,15
 401.7734375 391.42578125 401.7734375 391.42578125 409.099609375 384.099609375 c 1,16,-1
 409.09765625 384.09765625 l 0,17,18
 409.534295214 383.662477617 409.534295214 383.662477617 409.9453125 383.2109375 c 2,19,-1
 409.955078125 383.1953125 l 1,20,21
 475.008789062 317.417957436 475.008789062 317.417957436 475.008789062 224.947265625 c 0,22,23
 475.008789062 131.828913403 475.008789062 131.828913403 409.09765625 65.900390625 c 128,-1,24
 343.166015625 -0.03125 343.166015625 -0.03125 249.967773438 -0.03125 c 128,-1,25
 156.83203125 -0.03125 156.83203125 -0.03125 90.900390625 65.900390625 c 128,-1,26
 25.1474609375 131.787648647 25.1474609375 131.787648647 25.1474609375 224.888671875 c 0,27,28
 25.1474609375 315.943096718 25.1474609375 315.943096718 88.5625 381.3984375 c 0,29,30
 89.6362951807 382.835513931 89.6362951807 382.835513931 90.900390625 384.099609375 c 0,31,0
 98.22265625 391.421875 98.22265625 391.421875 108.578125 391.421875 c 128,-1,1
250 350 m 128,-1,33
 302 350 302 350 338.5 313.5 c 128,-1,34
 375 277 375 277 375 225 c 128,-1,35
 375 173 375 173 338.5 136.5 c 128,-1,36
 302 100 302 100 250 100 c 128,-1,37
 198 100 198 100 161.5 136.5 c 128,-1,38
 125 173 125 173 125 225 c 128,-1,39
 125 277 125 277 161.5 313.5 c 128,-1,32
 198 350 198 350 250 350 c 128,-1,33
250 300 m 128,-1,41
 219 300 219 300 197 278 c 128,-1,42
 175 256 175 256 175 225 c 128,-1,43
 175 194 175 194 197 172 c 128,-1,44
 219 150 219 150 250 150 c 128,-1,45
 281 150 281 150 303 172 c 128,-1,46
 325 194 325 194 325 225 c 128,-1,47
 325 256 325 256 303 278 c 128,-1,40
 281 300 281 300 250 300 c 128,-1,41
EndSplineSet
EndChar

StartChar: three
Encoding: 51 51 19
Width: 500
Flags: W
LayerCount: 2
Fore
SplineSet
250 450 m 0,0,1
 260 450 260 450 267.5 442.5 c 128,-1,2
 275 435 275 435 275 425 c 128,-1,3
 275 415 275 415 267.5 407.5 c 128,-1,4
 260 400 260 400 250 400 c 0,5,6
 178 400 178 400 126.5 348.5 c 128,-1,7
 75 297 75 297 75 225 c 128,-1,8
 75 153 75 153 126.5 101.5 c 128,-1,9
 178 50 178 50 250 50 c 128,-1,10
 322 50 322 50 373.5 101.5 c 128,-1,11
 425 153 425 153 425 225 c 0,12,13
 425 235 425 235 432.5 242.5 c 128,-1,14
 440 250 440 250 450 250 c 128,-1,15
 460 250 460 250 467.5 242.5 c 128,-1,16
 475 235 475 235 475 225 c 0,17,-1
 475 225.000976562 l 0,18,19
 475 224.384277344 475 224.384277344 474.970703125 223.7734375 c 2,20,-1
 474.96875 223.755859375 l 1,21,22
 474.455907295 131.037561462 474.455907295 131.037561462 408.619054958 65.5246384244 c 128,-1,23
 342.782202622 0.0117153868283 342.782202622 0.0117153868283 250 0 c 0,24,25
 157 0 157 0 91 66 c 128,-1,26
 25 132 25 132 25 225 c 0,27,28
 25.092945445 317.076002609 25.092945445 317.076002609 89.8164879247 382.682576554 c 128,-1,29
 154.540030404 448.289150498 154.540030404 448.289150498 246.4375 449.744140625 c 0,30,31
 248.21224711 450 248.21224711 450 250 450 c 0,0,1
250 350 m 128,-1,33
 302 350 302 350 338.5 313.5 c 128,-1,34
 375 277 375 277 375 225 c 128,-1,35
 375 173 375 173 338.5 136.5 c 128,-1,36
 302 100 302 100 250 100 c 128,-1,37
 198 100 198 100 161.5 136.5 c 128,-1,38
 125 173 125 173 125 225 c 128,-1,39
 125 277 125 277 161.5 313.5 c 128,-1,32
 198 350 198 350 250 350 c 128,-1,33
250 300 m 128,-1,41
 219 300 219 300 197 278 c 128,-1,42
 175 256 175 256 175 225 c 128,-1,43
 175 194 175 194 197 172 c 128,-1,44
 219 150 219 150 250 150 c 128,-1,45
 281 150 281 150 303 172 c 128,-1,46
 325 194 325 194 325 225 c 128,-1,47
 325 256 325 256 303 278 c 128,-1,40
 281 300 281 300 250 300 c 128,-1,41
EndSplineSet
EndChar

StartChar: four
Encoding: 52 52 20
Width: 500
Flags: W
LayerCount: 2
Fore
SplineSet
234.634765625 449.453125 m 0,0,1
 242.778139067 450.010742188 242.778139067 450.010742188 250.05078125 450.010742188 c 0,2,3
 343.170714288 450.010742188 343.170714288 450.010742188 409.099609375 384.09765625 c 128,-1,4
 475.03125 318.166015625 475.03125 318.166015625 475.03125 224.967773438 c 128,-1,5
 475.03125 131.83203125 475.03125 131.83203125 409.099609375 65.900390625 c 128,-1,6
 343.212351353 0.1474609375 343.212351353 0.1474609375 250.111328125 0.1474609375 c 0,7,8
 159.056903282 0.1474609375 159.056903282 0.1474609375 93.6015625 63.5625 c 0,9,10
 92.1644860693 64.6362951807 92.1644860693 64.6362951807 90.900390625 65.900390625 c 0,11,12
 83.57421875 73.2265625 83.57421875 73.2265625 83.57421875 83.58203125 c 128,-1,13
 83.57421875 93.9296875 83.57421875 93.9296875 90.900390625 101.255859375 c 128,-1,14
 98.2265625 108.58203125 98.2265625 108.58203125 108.58203125 108.58203125 c 128,-1,15
 118.9296875 108.58203125 118.9296875 108.58203125 126.255859375 101.255859375 c 0,16,17
 177.537109375 49.974609375 177.537109375 49.974609375 250.024414062 49.974609375 c 128,-1,18
 322.462890625 49.974609375 322.462890625 49.974609375 373.744140625 101.255859375 c 128,-1,19
 425.025390625 152.537109375 425.025390625 152.537109375 425.025390625 225.024414062 c 128,-1,20
 425.025390625 297.462890625 425.025390625 297.462890625 373.744140625 348.744140625 c 128,-1,21
 322.462890625 400.025390625 322.462890625 400.025390625 249.975585938 400.025390625 c 128,-1,22
 177.537109375 400.025390625 177.537109375 400.025390625 126.255859375 348.744140625 c 0,23,24
 118.9296875 341.41796875 118.9296875 341.41796875 108.57421875 341.41796875 c 128,-1,25
 98.2265625 341.41796875 98.2265625 341.41796875 90.900390625 348.744140625 c 128,-1,26
 83.57421875 356.0703125 83.57421875 356.0703125 83.57421875 366.42578125 c 128,-1,27
 83.57421875 376.7734375 83.57421875 376.7734375 90.900390625 384.099609375 c 1,28,-1
 90.90234375 384.09765625 l 0,29,30
 91.3375223833 384.534295214 91.3375223833 384.534295214 91.7890625 384.9453125 c 2,31,-1
 91.8046875 384.955078125 l 1,32,33
 151.23963867 443.736280718 151.23963867 443.736280718 234.634765625 449.453125 c 0,0,1
250 350 m 128,-1,35
 302 350 302 350 338.5 313.5 c 128,-1,36
 375 277 375 277 375 225 c 128,-1,37
 375 173 375 173 338.5 136.5 c 128,-1,38
 302 100 302 100 250 100 c 128,-1,39
 198 100 198 100 161.5 136.5 c 128,-1,40
 125 173 125 173 125 225 c 128,-1,41
 125 277 125 277 161.5 313.5 c 128,-1,34
 198 350 198 350 250 350 c 128,-1,35
250 300 m 128,-1,43
 219 300 219 300 197 278 c 128,-1,44
 175 256 175 256 175 225 c 128,-1,45
 175 194 175 194 197 172 c 128,-1,46
 219 150 219 150 250 150 c 128,-1,47
 281 150 281 150 303 172 c 128,-1,48
 325 194 325 194 325 225 c 128,-1,49
 325 256 325 256 303 278 c 128,-1,42
 281 300 281 300 250 300 c 128,-1,43
EndSplineSet
EndChar

StartChar: five
Encoding: 53 53 21
Width: 500
Flags: W
LayerCount: 2
Fore
SplineSet
234.634765625 449.453125 m 0,0,1
 241.321876469 449.845703125 241.321876469 449.845703125 247.635742188 449.845703125 c 0,2,3
 254.959279186 449.845703125 254.959279186 449.845703125 262.255859375 449.376953125 c 0,4,-1
 262.512695312 449.376953125 l 0,5,6
 263.354003906 449.376953125 263.354003906 449.376953125 264.193359375 449.37109375 c 0,7,8
 279.674450873 448.363002436 279.674450873 448.363002436 294.861328125 445.2421875 c 2,9,-1
 294.861328125 445.2421875 l 0,10,-1
 295.583984375 445.13671875 l 1,11,12
 359.508091582 431.863904584 359.508091582 431.863904584 406.3984375 386.4375 c 0,13,14
 406.991315938 385.954030551 406.991315938 385.954030551 407.53515625 385.453125 c 0,15,16
 408.345196719 384.808873783 408.345196719 384.808873783 409.099609375 384.099609375 c 2,17,-1
 409.099609375 384.09765625 l 1,18,-1
 409.1171875 384.078125 l 1,19,20
 475.030273438 318.149229913 475.030273438 318.149229913 475.030273438 224.966796875 c 128,-1,21
 475.030273438 131.832635607 475.030273438 131.832635607 409.099609375 65.900390625 c 1,22,-1
 409.056640625 65.86328125 l 0,23,24
 408.651150414 65.4563632563 408.651150414 65.4563632563 408.2109375 65.0546875 c 2,25,-1
 408.1953125 65.044921875 l 0,26,27
 404.161201789 61.4142222351 404.161201789 61.4142222351 399.958984375 57.984375 c 0,28,29
 392.51302165 50.9905667207 392.51302165 50.9905667207 384.482421875 44.712890625 c 0,30,31
 377.219443645 39.6160637971 377.219443645 39.6160637971 369.57421875 35.10546875 c 0,32,33
 363.834354051 31.2017750541 363.834354051 31.2017750541 357.861328125 27.65625 c 0,34,35
 347.926770596 22.4730668889 347.926770596 22.4730668889 337.53515625 18.3046875 c 0,36,37
 333.345830993 16.3083623689 333.345830993 16.3083623689 329.099609375 14.49609375 c 0,38,39
 317.072792236 10.1504315946 317.072792236 10.1504315946 304.6328125 7.1953125 c 0,40,41
 301.698067889 6.30225857015 301.698067889 6.30225857015 298.765625 5.49609375 c 0,42,43
 284.973985187 2.53936338841 284.973985187 2.53936338841 270.921875 1.328125 c 0,44,45
 269.213245948 1.07380382369 269.213245948 1.07380382369 267.48046875 0.84375 c 0,46,47
 259.157786271 0.23046875 259.157786271 0.23046875 251.126953125 0.23046875 c 0,48,49
 244.435679041 0.23046875 244.435679041 0.23046875 237.744140625 0.623046875 c 0,50,-1
 237.487304688 0.623046875 l 0,51,52
 236.645996094 0.623046875 236.645996094 0.623046875 235.806640625 0.62890625 c 0,53,54
 220.325549127 1.63699756371 220.325549127 1.63699756371 205.138671875 4.7578125 c 2,55,-1
 205.138671875 4.7578125 l 0,56,-1
 204.416015625 4.86328125 l 1,57,58
 140.491908418 18.136095416 140.491908418 18.136095416 93.6015625 63.5625 c 0,59,60
 93.0086840623 64.0459694492 93.0086840623 64.0459694492 92.46484375 64.546875 c 0,61,62
 91.6548032806 65.1911262172 91.6548032806 65.1911262172 90.900390625 65.900390625 c 2,63,-1
 90.900390625 65.90234375 l 1,64,-1
 90.89453125 65.908203125 l 1,65,66
 24.96875 131.838727123 24.96875 131.838727123 24.96875 225.032226562 c 128,-1,67
 24.96875 318.16796875 24.96875 318.16796875 90.900390625 384.099609375 c 1,68,-1
 90.943359375 384.13671875 l 0,69,70
 91.3488495862 384.543636744 91.3488495862 384.543636744 91.7890625 384.9453125 c 2,71,-1
 91.8046875 384.955078125 l 0,72,73
 95.838798211 388.585777765 95.838798211 388.585777765 100.041015625 392.015625 c 0,74,75
 107.48697835 399.009433279 107.48697835 399.009433279 115.517578125 405.287109375 c 0,76,77
 122.780556355 410.383936203 122.780556355 410.383936203 130.42578125 414.89453125 c 0,78,79
 136.165645949 418.798224946 136.165645949 418.798224946 142.138671875 422.34375 c 0,80,81
 152.073229404 427.526933111 152.073229404 427.526933111 162.46484375 431.6953125 c 0,82,83
 166.654169007 433.691637631 166.654169007 433.691637631 170.900390625 435.50390625 c 0,84,85
 182.927207764 439.849568405 182.927207764 439.849568405 195.3671875 442.8046875 c 0,86,87
 198.301932111 443.69774143 198.301932111 443.69774143 201.234375 444.50390625 c 0,88,89
 215.026014813 447.460636612 215.026014813 447.460636612 229.078125 448.671875 c 0,90,91
 230.786754052 448.926196176 230.786754052 448.926196176 232.51953125 449.15625 c 0,92,93
 233.615404946 449.314763024 233.615404946 449.314763024 234.634765625 449.453125 c 0,0,1
250 400 m 0,94,95
 193.138895157 400 193.138895157 400 147.13671875 366.578125 c 0,96,97
 135.993487094 358.481768344 135.993487094 358.481768344 126.255859375 348.744140625 c 0,98,99
 74.974609375 297.462890625 74.974609375 297.462890625 74.974609375 224.975585938 c 128,-1,100
 74.974609375 152.537109375 74.974609375 152.537109375 126.255859375 101.255859375 c 128,-1,101
 177.517578125 49.994140625 177.517578125 49.994140625 249.830078125 49.994140625 c 0,102,103
 263.742450421 49.994140625 263.742450421 49.994140625 277.376953125 52.154296875 c 0,104,105
 333.53771536 61.04943411 333.53771536 61.04943411 373.744140625 101.255859375 c 0,106,107
 425.025390625 152.537109375 425.025390625 152.537109375 425.025390625 225.024414062 c 128,-1,108
 425.025390625 297.462890625 425.025390625 297.462890625 373.744140625 348.744140625 c 128,-1,109
 322.48828125 400 322.48828125 400 250 400 c 0,94,95
250 350 m 128,-1,111
 302 350 302 350 338.5 313.5 c 128,-1,112
 375 277 375 277 375 225 c 128,-1,113
 375 173 375 173 338.5 136.5 c 128,-1,114
 302 100 302 100 250 100 c 128,-1,115
 198 100 198 100 161.5 136.5 c 128,-1,116
 125 173 125 173 125 225 c 128,-1,117
 125 277 125 277 161.5 313.5 c 128,-1,110
 198 350 198 350 250 350 c 128,-1,111
250 300 m 128,-1,119
 219 300 219 300 197 278 c 128,-1,120
 175 256 175 256 175 225 c 128,-1,121
 175 194 175 194 197 172 c 128,-1,122
 219 150 219 150 250 150 c 128,-1,123
 281 150 281 150 303 172 c 128,-1,124
 325 194 325 194 325 225 c 128,-1,125
 325 256 325 256 303 278 c 128,-1,118
 281 300 281 300 250 300 c 128,-1,119
EndSplineSet
EndChar

StartChar: six
Encoding: 54 54 22
Width: 500
Flags: W
LayerCount: 2
Fore
SplineSet
264.0546875 449.390625 m 0,0,1
 346.8300979 444.149204604 346.8300979 444.149204604 406.3984375 386.4375 c 0,2,3
 407.835513931 385.363704819 407.835513931 385.363704819 409.099609375 384.099609375 c 0,4,5
 416.42578125 376.7734375 416.42578125 376.7734375 416.42578125 366.41796875 c 128,-1,6
 416.42578125 356.0703125 416.42578125 356.0703125 409.099609375 348.744140625 c 128,-1,7
 401.7734375 341.41796875 401.7734375 341.41796875 391.41796875 341.41796875 c 128,-1,8
 381.0703125 341.41796875 381.0703125 341.41796875 373.744140625 348.744140625 c 0,9,10
 322.462890625 400.025390625 322.462890625 400.025390625 249.975585938 400.025390625 c 128,-1,11
 177.537109375 400.025390625 177.537109375 400.025390625 126.255859375 348.744140625 c 128,-1,12
 74.974609375 297.462890625 74.974609375 297.462890625 74.974609375 224.975585938 c 128,-1,13
 74.974609375 152.537109375 74.974609375 152.537109375 126.255859375 101.255859375 c 128,-1,14
 177.537109375 49.974609375 177.537109375 49.974609375 250.024414062 49.974609375 c 128,-1,15
 322.462890625 49.974609375 322.462890625 49.974609375 373.744140625 101.255859375 c 0,16,17
 381.0703125 108.58203125 381.0703125 108.58203125 391.42578125 108.58203125 c 128,-1,18
 401.7734375 108.58203125 401.7734375 108.58203125 409.099609375 101.255859375 c 128,-1,19
 416.42578125 93.9296875 416.42578125 93.9296875 416.42578125 83.57421875 c 128,-1,20
 416.42578125 73.2265625 416.42578125 73.2265625 409.099609375 65.900390625 c 1,21,-1
 409.09765625 65.90234375 l 0,22,23
 408.662477617 65.4657047857 408.662477617 65.4657047857 408.2109375 65.0546875 c 2,24,-1
 408.1953125 65.044921875 l 1,25,26
 342.417957436 -0.0087890625 342.417957436 -0.0087890625 249.947265625 -0.0087890625 c 0,27,28
 156.828913403 -0.0087890625 156.828913403 -0.0087890625 90.900390625 65.90234375 c 128,-1,29
 24.96875 131.833984375 24.96875 131.833984375 24.96875 225.032226562 c 128,-1,30
 24.96875 318.16796875 24.96875 318.16796875 90.900390625 384.099609375 c 128,-1,31
 156.779215385 449.845703125 156.779215385 449.845703125 249.650390625 449.845703125 c 0,32,33
 256.872111398 449.845703125 256.872111398 449.845703125 264.0546875 449.390625 c 0,0,1
250 350 m 128,-1,35
 302 350 302 350 338.5 313.5 c 128,-1,36
 375 277 375 277 375 225 c 128,-1,37
 375 173 375 173 338.5 136.5 c 128,-1,38
 302 100 302 100 250 100 c 128,-1,39
 198 100 198 100 161.5 136.5 c 128,-1,40
 125 173 125 173 125 225 c 128,-1,41
 125 277 125 277 161.5 313.5 c 128,-1,34
 198 350 198 350 250 350 c 128,-1,35
250 300 m 128,-1,43
 219 300 219 300 197 278 c 128,-1,44
 175 256 175 256 175 225 c 128,-1,45
 175 194 175 194 197 172 c 128,-1,46
 219 150 219 150 250 150 c 128,-1,47
 281 150 281 150 303 172 c 128,-1,48
 325 194 325 194 325 225 c 128,-1,49
 325 256 325 256 303 278 c 128,-1,42
 281 300 281 300 250 300 c 128,-1,43
EndSplineSet
EndChar

StartChar: seven
Encoding: 55 55 23
Width: 500
Flags: W
LayerCount: 2
Fore
SplineSet
250 450 m 0,0,1
 343 450 343 450 409 384 c 128,-1,2
 475 318 475 318 475 225 c 0,3,4
 474.907054555 132.923997391 474.907054555 132.923997391 410.183512075 67.3174234462 c 128,-1,5
 345.459969596 1.71084950164 345.459969596 1.71084950164 253.5625 0.255859375 c 0,6,7
 251.78775289 0 251.78775289 0 250 0 c 0,8,9
 240 0 240 0 232.5 7.5 c 128,-1,10
 225 15 225 15 225 25 c 128,-1,11
 225 35 225 35 232.5 42.5 c 128,-1,12
 240 50 240 50 250 50 c 0,13,14
 322 50 322 50 373.5 101.5 c 128,-1,15
 425 153 425 153 425 225 c 128,-1,16
 425 297 425 297 373.5 348.5 c 128,-1,17
 322 400 322 400 250 400 c 128,-1,18
 178 400 178 400 126.5 348.5 c 128,-1,19
 75 297 75 297 75 225 c 0,20,21
 75 215 75 215 67.5 207.5 c 128,-1,22
 60 200 60 200 50 200 c 128,-1,23
 40 200 40 200 32.5 207.5 c 128,-1,24
 25 215 25 215 25 225 c 0,25,-1
 25 224.999023438 l 0,26,27
 25 225.615722656 25 225.615722656 25.029296875 226.2265625 c 2,28,-1
 25.03125 226.244140625 l 1,29,30
 25.5440927051 318.962438538 25.5440927051 318.962438538 91.3809450415 384.475361576 c 128,-1,31
 157.217797378 449.988284613 157.217797378 449.988284613 250 450 c 0,0,1
250 350 m 128,-1,33
 302 350 302 350 338.5 313.5 c 128,-1,34
 375 277 375 277 375 225 c 128,-1,35
 375 173 375 173 338.5 136.5 c 128,-1,36
 302 100 302 100 250 100 c 128,-1,37
 198 100 198 100 161.5 136.5 c 128,-1,38
 125 173 125 173 125 225 c 128,-1,39
 125 277 125 277 161.5 313.5 c 128,-1,32
 198 350 198 350 250 350 c 128,-1,33
250 300 m 128,-1,41
 219 300 219 300 197 278 c 128,-1,42
 175 256 175 256 175 225 c 128,-1,43
 175 194 175 194 197 172 c 128,-1,44
 219 150 219 150 250 150 c 128,-1,45
 281 150 281 150 303 172 c 128,-1,46
 325 194 325 194 325 225 c 128,-1,47
 325 256 325 256 303 278 c 128,-1,40
 281 300 281 300 250 300 c 128,-1,41
EndSplineSet
EndChar

StartChar: eight
Encoding: 56 56 24
Width: 500
Flags: W
LayerCount: 2
Fore
SplineSet
233.94921875 449.427734375 m 0,0,1
 242.404418635 450.032226562 242.404418635 450.032226562 250.03125 450.032226562 c 0,2,3
 343.166992188 450.032226562 343.166992188 450.032226562 409.099609375 384.099609375 c 128,-1,4
 474.852539062 318.212351353 474.852539062 318.212351353 474.852539062 225.111328125 c 0,5,6
 474.852539062 134.056903282 474.852539062 134.056903282 411.4375 68.6015625 c 0,7,8
 410.363704819 67.1644860693 410.363704819 67.1644860693 409.099609375 65.900390625 c 0,9,10
 401.7734375 58.57421875 401.7734375 58.57421875 391.41796875 58.57421875 c 128,-1,11
 381.0703125 58.57421875 381.0703125 58.57421875 373.744140625 65.900390625 c 128,-1,12
 366.41796875 73.2265625 366.41796875 73.2265625 366.41796875 83.58203125 c 128,-1,13
 366.41796875 93.9296875 366.41796875 93.9296875 373.744140625 101.255859375 c 0,14,15
 425.025390625 152.537109375 425.025390625 152.537109375 425.025390625 225.024414062 c 128,-1,16
 425.025390625 297.462890625 425.025390625 297.462890625 373.744140625 348.744140625 c 128,-1,17
 322.462890625 400.025390625 322.462890625 400.025390625 249.975585938 400.025390625 c 128,-1,18
 177.537109375 400.025390625 177.537109375 400.025390625 126.255859375 348.744140625 c 128,-1,19
 74.974609375 297.462890625 74.974609375 297.462890625 74.974609375 224.975585938 c 128,-1,20
 74.974609375 152.537109375 74.974609375 152.537109375 126.255859375 101.255859375 c 0,21,22
 133.58203125 93.9296875 133.58203125 93.9296875 133.58203125 83.57421875 c 128,-1,23
 133.58203125 73.2265625 133.58203125 73.2265625 126.255859375 65.900390625 c 128,-1,24
 118.9296875 58.57421875 118.9296875 58.57421875 108.57421875 58.57421875 c 128,-1,25
 98.2265625 58.57421875 98.2265625 58.57421875 90.900390625 65.900390625 c 1,26,-1
 90.90234375 65.90234375 l 0,27,28
 90.4657047857 66.3375223833 90.4657047857 66.3375223833 90.0546875 66.7890625 c 2,29,-1
 90.044921875 66.8046875 l 1,30,31
 24.9912109375 132.582042564 24.9912109375 132.582042564 24.9912109375 225.052734375 c 0,32,33
 24.9912109375 318.171086597 24.9912109375 318.171086597 90.90234375 384.099609375 c 0,34,35
 150.242832829 443.440098454 150.242832829 443.440098454 233.94921875 449.427734375 c 0,0,1
250 350 m 128,-1,37
 302 350 302 350 338.5 313.5 c 128,-1,38
 375 277 375 277 375 225 c 128,-1,39
 375 173 375 173 338.5 136.5 c 128,-1,40
 302 100 302 100 250 100 c 128,-1,41
 198 100 198 100 161.5 136.5 c 128,-1,42
 125 173 125 173 125 225 c 128,-1,43
 125 277 125 277 161.5 313.5 c 128,-1,36
 198 350 198 350 250 350 c 128,-1,37
250 300 m 128,-1,45
 219 300 219 300 197 278 c 128,-1,46
 175 256 175 256 175 225 c 128,-1,47
 175 194 175 194 197 172 c 128,-1,48
 219 150 219 150 250 150 c 128,-1,49
 281 150 281 150 303 172 c 128,-1,50
 325 194 325 194 325 225 c 128,-1,51
 325 256 325 256 303 278 c 128,-1,44
 281 300 281 300 250 300 c 128,-1,45
EndSplineSet
EndChar

StartChar: nine
Encoding: 57 57 25
Width: 500
Flags: W
LayerCount: 2
Fore
SplineSet
250 450 m 0,0,1
 342.076002609 449.907054555 342.076002609 449.907054555 407.682576554 385.183512075 c 128,-1,2
 473.289150498 320.459969596 473.289150498 320.459969596 474.744140625 228.5625 c 0,3,4
 475 226.78775289 475 226.78775289 475 225 c 0,5,6
 475 215 475 215 467.5 207.5 c 128,-1,7
 460 200 460 200 450 200 c 128,-1,8
 440 200 440 200 432.5 207.5 c 128,-1,9
 425 215 425 215 425 225 c 0,10,11
 425 297 425 297 373.5 348.5 c 128,-1,12
 322 400 322 400 250 400 c 128,-1,13
 178 400 178 400 126.5 348.5 c 128,-1,14
 75 297 75 297 75 225 c 128,-1,15
 75 153 75 153 126.5 101.5 c 128,-1,16
 178 50 178 50 250 50 c 0,17,18
 260 50 260 50 267.5 42.5 c 128,-1,19
 275 35 275 35 275 25 c 128,-1,20
 275 15 275 15 267.5 7.5 c 128,-1,21
 260 0 260 0 250 0 c 0,22,-1
 250.000976562 -0 l 0,23,24
 249.384277344 0 249.384277344 0 248.7734375 0.029296875 c 2,25,-1
 248.755859375 0.03125 l 1,26,27
 156.037561462 0.544092705062 156.037561462 0.544092705062 90.5246384244 66.3809450415 c 128,-1,28
 25.0117153868 132.217797378 25.0117153868 132.217797378 25 225 c 0,29,30
 25 318 25 318 91 384 c 128,-1,31
 157 450 157 450 250 450 c 0,0,1
250 350 m 128,-1,33
 302 350 302 350 338.5 313.5 c 128,-1,34
 375 277 375 277 375 225 c 128,-1,35
 375 173 375 173 338.5 136.5 c 128,-1,36
 302 100 302 100 250 100 c 128,-1,37
 198 100 198 100 161.5 136.5 c 128,-1,38
 125 173 125 173 125 225 c 128,-1,39
 125 277 125 277 161.5 313.5 c 128,-1,32
 198 350 198 350 250 350 c 128,-1,33
250 300 m 128,-1,41
 219 300 219 300 197 278 c 128,-1,42
 175 256 175 256 175 225 c 128,-1,43
 175 194 175 194 197 172 c 128,-1,44
 219 150 219 150 250 150 c 128,-1,45
 281 150 281 150 303 172 c 128,-1,46
 325 194 325 194 325 225 c 128,-1,47
 325 256 325 256 303 278 c 128,-1,40
 281 300 281 300 250 300 c 128,-1,41
EndSplineSet
EndChar

StartChar: colon
Encoding: 58 58 26
Width: 500
Flags: W
LayerCount: 2
Fore
SplineSet
250 450 m 128,-1,1
 260 450 260 450 267.5 442.5 c 128,-1,2
 275 435 275 435 275 425 c 128,-1,3
 275 415 275 415 267.5 407.5 c 128,-1,4
 260 400 260 400 250 400 c 128,-1,5
 240 400 240 400 232.5 407.5 c 128,-1,6
 225 415 225 415 225 425 c 128,-1,7
 225 435 225 435 232.5 442.5 c 128,-1,0
 240 450 240 450 250 450 c 128,-1,1
50 250 m 128,-1,9
 60 250 60 250 67.5 242.5 c 128,-1,10
 75 235 75 235 75 225 c 128,-1,11
 75 215 75 215 67.5 207.5 c 128,-1,12
 60 200 60 200 50 200 c 128,-1,13
 40 200 40 200 32.5 207.5 c 128,-1,14
 25 215 25 215 25 225 c 128,-1,15
 25 235 25 235 32.5 242.5 c 128,-1,8
 40 250 40 250 50 250 c 128,-1,9
250 250 m 128,-1,17
 260 250 260 250 267.5 242.5 c 128,-1,18
 275 235 275 235 275 225 c 128,-1,19
 275 215 275 215 267.5 207.5 c 128,-1,20
 260 200 260 200 250 200 c 128,-1,21
 240 200 240 200 232.5 207.5 c 128,-1,22
 225 215 225 215 225 225 c 128,-1,23
 225 235 225 235 232.5 242.5 c 128,-1,16
 240 250 240 250 250 250 c 128,-1,17
450 250 m 128,-1,25
 460 250 460 250 467.5 242.5 c 128,-1,26
 475 235 475 235 475 225 c 128,-1,27
 475 215 475 215 467.5 207.5 c 128,-1,28
 460 200 460 200 450 200 c 128,-1,29
 440 200 440 200 432.5 207.5 c 128,-1,30
 425 215 425 215 425 225 c 128,-1,31
 425 235 425 235 432.5 242.5 c 128,-1,24
 440 250 440 250 450 250 c 128,-1,25
250 50 m 128,-1,33
 260 50 260 50 267.5 42.5 c 128,-1,34
 275 35 275 35 275 25 c 128,-1,35
 275 15 275 15 267.5 7.5 c 128,-1,36
 260 0 260 0 250 0 c 128,-1,37
 240 0 240 0 232.5 7.5 c 128,-1,38
 225 15 225 15 225 25 c 128,-1,39
 225 35 225 35 232.5 42.5 c 128,-1,32
 240 50 240 50 250 50 c 128,-1,33
250 350 m 128,-1,41
 302 350 302 350 338.5 313.5 c 128,-1,42
 375 277 375 277 375 225 c 128,-1,43
 375 173 375 173 338.5 136.5 c 128,-1,44
 302 100 302 100 250 100 c 128,-1,45
 198 100 198 100 161.5 136.5 c 128,-1,46
 125 173 125 173 125 225 c 128,-1,47
 125 277 125 277 161.5 313.5 c 128,-1,40
 198 350 198 350 250 350 c 128,-1,41
250 300 m 128,-1,49
 219 300 219 300 197 278 c 128,-1,50
 175 256 175 256 175 225 c 128,-1,51
 175 194 175 194 197 172 c 128,-1,52
 219 150 219 150 250 150 c 128,-1,53
 281 150 281 150 303 172 c 128,-1,54
 325 194 325 194 325 225 c 128,-1,55
 325 256 325 256 303 278 c 128,-1,48
 281 300 281 300 250 300 c 128,-1,49
EndSplineSet
EndChar

StartChar: semicolon
Encoding: 59 59 27
Width: 500
Flags: W
LayerCount: 2
Fore
SplineSet
50 250 m 128,-1,1
 60 250 60 250 67.5 242.5 c 128,-1,2
 75 235 75 235 75 225 c 128,-1,3
 75 215 75 215 67.5 207.5 c 128,-1,4
 60 200 60 200 50 200 c 128,-1,5
 40 200 40 200 32.5 207.5 c 128,-1,6
 25 215 25 215 25 225 c 128,-1,7
 25 235 25 235 32.5 242.5 c 128,-1,0
 40 250 40 250 50 250 c 128,-1,1
250 250 m 128,-1,9
 260 250 260 250 267.5 242.5 c 128,-1,10
 275 235 275 235 275 225 c 128,-1,11
 275 215 275 215 267.5 207.5 c 128,-1,12
 260 200 260 200 250 200 c 128,-1,13
 240 200 240 200 232.5 207.5 c 128,-1,14
 225 215 225 215 225 225 c 128,-1,15
 225 235 225 235 232.5 242.5 c 128,-1,8
 240 250 240 250 250 250 c 128,-1,9
450 250 m 128,-1,17
 460 250 460 250 467.5 242.5 c 128,-1,18
 475 235 475 235 475 225 c 128,-1,19
 475 215 475 215 467.5 207.5 c 128,-1,20
 460 200 460 200 450 200 c 128,-1,21
 440 200 440 200 432.5 207.5 c 128,-1,22
 425 215 425 215 425 225 c 128,-1,23
 425 235 425 235 432.5 242.5 c 128,-1,16
 440 250 440 250 450 250 c 128,-1,17
250 350 m 128,-1,25
 302 350 302 350 338.5 313.5 c 128,-1,26
 375 277 375 277 375 225 c 128,-1,27
 375 173 375 173 338.5 136.5 c 128,-1,28
 302 100 302 100 250 100 c 128,-1,29
 198 100 198 100 161.5 136.5 c 128,-1,30
 125 173 125 173 125 225 c 128,-1,31
 125 277 125 277 161.5 313.5 c 128,-1,24
 198 350 198 350 250 350 c 128,-1,25
250 300 m 128,-1,33
 219 300 219 300 197 278 c 128,-1,34
 175 256 175 256 175 225 c 128,-1,35
 175 194 175 194 197 172 c 128,-1,36
 219 150 219 150 250 150 c 128,-1,37
 281 150 281 150 303 172 c 128,-1,38
 325 194 325 194 325 225 c 128,-1,39
 325 256 325 256 303 278 c 128,-1,32
 281 300 281 300 250 300 c 128,-1,33
EndSplineSet
EndChar

StartChar: less
Encoding: 60 60 28
Width: 500
Flags: W
LayerCount: 2
Fore
SplineSet
250 350 m 0,0,1
 301.24310676 349.673098557 301.24310676 349.673098557 338.388671875 313.388671875 c 0,2,3
 345.710693359 306.066650391 345.710693359 306.066650391 345.710693359 295.7109375 c 128,-1,4
 345.710693359 285.355224609 345.710693359 285.355224609 338.388671875 278.033203125 c 128,-1,5
 331.066650391 270.711181641 331.066650391 270.711181641 320.7109375 270.711181641 c 128,-1,6
 310.355224609 270.711181641 310.355224609 270.711181641 303.033203125 278.033203125 c 1,7,-1
 302.83203125 277.83203125 l 1,8,9
 280.997208646 299.834255213 280.997208646 299.834255213 250 300 c 128,-1,10
 219 300 219 300 197 278 c 128,-1,11
 175 256 175 256 175 225 c 128,-1,12
 175 194 175 194 197 172 c 128,-1,13
 219 150 219 150 250 150 c 128,-1,14
 280.997208646 150.165744787 280.997208646 150.165744787 302.83203125 172.16796875 c 1,15,-1
 303.033203125 171.966796875 l 1,16,17
 310.355224609 179.288818359 310.355224609 179.288818359 320.7109375 179.288818359 c 128,-1,18
 331.066650391 179.288818359 331.066650391 179.288818359 338.388671875 171.966796875 c 128,-1,19
 345.710693359 164.644775391 345.710693359 164.644775391 345.710693359 154.2890625 c 128,-1,20
 345.710693359 143.933349609 345.710693359 143.933349609 338.388671875 136.611328125 c 0,21,22
 301.245595552 100.326817405 301.245595552 100.326817405 250 100 c 0,23,24
 198 100 198 100 161.5 136.5 c 128,-1,25
 125 173 125 173 125 225 c 128,-1,26
 125 277 125 277 161.5 313.5 c 128,-1,27
 198 350 198 350 250 350 c 0,0,1
EndSplineSet
EndChar

StartChar: equal
Encoding: 61 61 29
Width: 500
Flags: W
LayerCount: 2
Fore
SplineSet
250 350 m 0,0,1
 301.238592177 349.673127357 301.238592177 349.673127357 338.388671875 313.388671875 c 0,2,3
 345.710693359 306.066650391 345.710693359 306.066650391 345.710693359 295.7109375 c 128,-1,4
 345.710693359 285.355224609 345.710693359 285.355224609 338.388671875 278.033203125 c 128,-1,5
 331.066650391 270.711181641 331.066650391 270.711181641 320.7109375 270.711181641 c 128,-1,6
 310.355224609 270.711181641 310.355224609 270.711181641 303.033203125 278.033203125 c 0,7,8
 281.06640625 300 281.06640625 300 250 300 c 128,-1,9
 218.932013291 300 218.932013291 300 196.966796875 278.033203125 c 0,10,11
 189.644775391 270.711181641 189.644775391 270.711181641 179.2890625 270.711181641 c 128,-1,12
 168.933349609 270.711181641 168.933349609 270.711181641 161.611328125 278.033203125 c 128,-1,13
 154.289306641 285.355224609 154.289306641 285.355224609 154.289306641 295.7109375 c 128,-1,14
 154.289306641 306.066650391 154.289306641 306.066650391 161.611328125 313.388671875 c 0,15,16
 198.754404448 349.673182595 198.754404448 349.673182595 250 350 c 0,0,1
179.2890625 179.2890625 m 0,17,-1
 179.325195312 179.29296875 l 0,18,19
 189.659600623 179.29296875 189.659600623 179.29296875 196.966796875 171.966796875 c 0,20,21
 218.93359375 150 218.93359375 150 250 150 c 128,-1,22
 281.067986709 150 281.067986709 150 303.033203125 171.966796875 c 0,23,24
 310.355224609 179.288818359 310.355224609 179.288818359 320.7109375 179.288818359 c 128,-1,25
 331.066650391 179.288818359 331.066650391 179.288818359 338.388671875 171.966796875 c 128,-1,26
 345.710693359 164.644775391 345.710693359 164.644775391 345.710693359 154.2890625 c 128,-1,27
 345.710693359 143.933349609 345.710693359 143.933349609 338.388671875 136.611328125 c 0,28,29
 301.245595552 100.326817405 301.245595552 100.326817405 250 100 c 0,30,31
 198.75689324 100.326901443 198.75689324 100.326901443 161.611328125 136.611328125 c 0,32,33
 154.289306641 143.933349609 154.289306641 143.933349609 154.289306641 154.2890625 c 128,-1,34
 154.289306641 164.644775391 154.289306641 164.644775391 161.611328125 171.966796875 c 128,-1,35
 168.914628244 179.2890625 168.914628244 179.2890625 179.254882812 179.2890625 c 0,36,-1
 179.2890625 179.2890625 l 0,17,-1
EndSplineSet
EndChar

StartChar: greater
Encoding: 62 62 30
Width: 500
Flags: W
LayerCount: 2
Fore
SplineSet
250 350 m 0,0,1
 302 350 302 350 338.5 313.5 c 128,-1,2
 375 277 375 277 375 225 c 128,-1,3
 375 173 375 173 338.5 136.5 c 128,-1,4
 302 100 302 100 250 100 c 0,5,6
 198.75689324 100.326901443 198.75689324 100.326901443 161.611328125 136.611328125 c 0,7,8
 154.289306641 143.933349609 154.289306641 143.933349609 154.289306641 154.2890625 c 128,-1,9
 154.289306641 164.644775391 154.289306641 164.644775391 161.611328125 171.966796875 c 128,-1,10
 168.933349609 179.288818359 168.933349609 179.288818359 179.2890625 179.288818359 c 128,-1,11
 189.644775391 179.288818359 189.644775391 179.288818359 196.966796875 171.966796875 c 1,12,-1
 197.16796875 172.16796875 l 1,13,14
 219.002791354 150.165744787 219.002791354 150.165744787 250 150 c 128,-1,15
 281 150 281 150 303 172 c 128,-1,16
 325 194 325 194 325 225 c 128,-1,17
 325 256 325 256 303 278 c 128,-1,18
 281 300 281 300 250 300 c 128,-1,19
 219.002791354 299.834255213 219.002791354 299.834255213 197.16796875 277.83203125 c 1,20,-1
 196.966796875 278.033203125 l 1,21,22
 189.644775391 270.711181641 189.644775391 270.711181641 179.2890625 270.711181641 c 128,-1,23
 168.933349609 270.711181641 168.933349609 270.711181641 161.611328125 278.033203125 c 128,-1,24
 154.289306641 285.355224609 154.289306641 285.355224609 154.289306641 295.7109375 c 128,-1,25
 154.289306641 306.066650391 154.289306641 306.066650391 161.611328125 313.388671875 c 0,26,27
 198.754404448 349.673182595 198.754404448 349.673182595 250 350 c 0,0,1
EndSplineSet
EndChar

StartChar: question
Encoding: 63 63 31
Width: 500
Flags: W
LayerCount: 2
Fore
SplineSet
250 450 m 128,-1,1
 260 450 260 450 267.5 442.5 c 128,-1,2
 275 435 275 435 275 425 c 128,-1,3
 275 415 275 415 267.5 407.5 c 128,-1,4
 260 400 260 400 250 400 c 128,-1,5
 240 400 240 400 232.5 407.5 c 128,-1,6
 225 415 225 415 225 425 c 128,-1,7
 225 435 225 435 232.5 442.5 c 128,-1,0
 240 450 240 450 250 450 c 128,-1,1
250 250 m 128,-1,9
 260 250 260 250 267.5 242.5 c 128,-1,10
 275 235 275 235 275 225 c 128,-1,11
 275 215 275 215 267.5 207.5 c 128,-1,12
 260 200 260 200 250 200 c 128,-1,13
 240 200 240 200 232.5 207.5 c 128,-1,14
 225 215 225 215 225 225 c 128,-1,15
 225 235 225 235 232.5 242.5 c 128,-1,8
 240 250 240 250 250 250 c 128,-1,9
250 50 m 128,-1,17
 260 50 260 50 267.5 42.5 c 128,-1,18
 275 35 275 35 275 25 c 128,-1,19
 275 15 275 15 267.5 7.5 c 128,-1,20
 260 0 260 0 250 0 c 128,-1,21
 240 0 240 0 232.5 7.5 c 128,-1,22
 225 15 225 15 225 25 c 128,-1,23
 225 35 225 35 232.5 42.5 c 128,-1,16
 240 50 240 50 250 50 c 128,-1,17
EndSplineSet
EndChar

StartChar: at
Encoding: 64 64 32
Width: 500
Flags: W
LayerCount: 2
Fore
SplineSet
234.634765625 449.453125 m 0,0,1
 241.321876469 449.845703125 241.321876469 449.845703125 247.635742188 449.845703125 c 0,2,3
 254.959279186 449.845703125 254.959279186 449.845703125 262.255859375 449.376953125 c 0,4,-1
 262.512695312 449.376953125 l 0,5,6
 263.354003906 449.376953125 263.354003906 449.376953125 264.193359375 449.37109375 c 0,7,8
 279.674450873 448.363002436 279.674450873 448.363002436 294.861328125 445.2421875 c 2,9,-1
 294.861328125 445.2421875 l 0,10,-1
 295.583984375 445.13671875 l 1,11,12
 359.508091582 431.863904584 359.508091582 431.863904584 406.3984375 386.4375 c 0,13,14
 406.991315938 385.954030551 406.991315938 385.954030551 407.53515625 385.453125 c 0,15,16
 408.345196719 384.808873783 408.345196719 384.808873783 409.099609375 384.099609375 c 2,17,-1
 409.099609375 384.09765625 l 1,18,-1
 409.1171875 384.078125 l 1,19,20
 475.030273438 318.149229913 475.030273438 318.149229913 475.030273438 224.966796875 c 128,-1,21
 475.030273438 131.832635607 475.030273438 131.832635607 409.099609375 65.900390625 c 1,22,-1
 409.056640625 65.86328125 l 0,23,24
 408.651150414 65.4563632563 408.651150414 65.4563632563 408.2109375 65.0546875 c 2,25,-1
 408.1953125 65.044921875 l 0,26,27
 404.161201789 61.4142222351 404.161201789 61.4142222351 399.958984375 57.984375 c 0,28,29
 392.51302165 50.9905667207 392.51302165 50.9905667207 384.482421875 44.712890625 c 0,30,31
 377.219443645 39.6160637971 377.219443645 39.6160637971 369.57421875 35.10546875 c 0,32,33
 363.834354051 31.2017750541 363.834354051 31.2017750541 357.861328125 27.65625 c 0,34,35
 347.926770596 22.4730668889 347.926770596 22.4730668889 337.53515625 18.3046875 c 0,36,37
 333.345830993 16.3083623689 333.345830993 16.3083623689 329.099609375 14.49609375 c 0,38,39
 317.072792236 10.1504315946 317.072792236 10.1504315946 304.6328125 7.1953125 c 0,40,41
 301.698067889 6.30225857015 301.698067889 6.30225857015 298.765625 5.49609375 c 0,42,43
 284.973985187 2.53936338841 284.973985187 2.53936338841 270.921875 1.328125 c 0,44,45
 269.213245948 1.07380382369 269.213245948 1.07380382369 267.48046875 0.84375 c 0,46,47
 259.157786271 0.23046875 259.157786271 0.23046875 251.126953125 0.23046875 c 0,48,49
 244.435679041 0.23046875 244.435679041 0.23046875 237.744140625 0.623046875 c 0,50,-1
 237.487304688 0.623046875 l 0,51,52
 236.645996094 0.623046875 236.645996094 0.623046875 235.806640625 0.62890625 c 0,53,54
 220.325549127 1.63699756371 220.325549127 1.63699756371 205.138671875 4.7578125 c 2,55,-1
 205.138671875 4.7578125 l 0,56,-1
 204.416015625 4.86328125 l 1,57,58
 140.491908418 18.136095416 140.491908418 18.136095416 93.6015625 63.5625 c 0,59,60
 93.0086840623 64.0459694492 93.0086840623 64.0459694492 92.46484375 64.546875 c 0,61,62
 91.6548032806 65.1911262172 91.6548032806 65.1911262172 90.900390625 65.900390625 c 2,63,-1
 90.900390625 65.90234375 l 1,64,-1
 90.89453125 65.908203125 l 1,65,66
 24.96875 131.838727123 24.96875 131.838727123 24.96875 225.032226562 c 128,-1,67
 24.96875 318.16796875 24.96875 318.16796875 90.900390625 384.099609375 c 1,68,-1
 90.943359375 384.13671875 l 0,69,70
 91.3488495862 384.543636744 91.3488495862 384.543636744 91.7890625 384.9453125 c 2,71,-1
 91.8046875 384.955078125 l 0,72,73
 95.838798211 388.585777765 95.838798211 388.585777765 100.041015625 392.015625 c 0,74,75
 107.48697835 399.009433279 107.48697835 399.009433279 115.517578125 405.287109375 c 0,76,77
 122.780556355 410.383936203 122.780556355 410.383936203 130.42578125 414.89453125 c 0,78,79
 136.165645949 418.798224946 136.165645949 418.798224946 142.138671875 422.34375 c 0,80,81
 152.073229404 427.526933111 152.073229404 427.526933111 162.46484375 431.6953125 c 0,82,83
 166.654169007 433.691637631 166.654169007 433.691637631 170.900390625 435.50390625 c 0,84,85
 182.927207764 439.849568405 182.927207764 439.849568405 195.3671875 442.8046875 c 0,86,87
 198.301932111 443.69774143 198.301932111 443.69774143 201.234375 444.50390625 c 0,88,89
 215.026014813 447.460636612 215.026014813 447.460636612 229.078125 448.671875 c 0,90,91
 230.786754052 448.926196176 230.786754052 448.926196176 232.51953125 449.15625 c 0,92,93
 233.615404946 449.314763024 233.615404946 449.314763024 234.634765625 449.453125 c 0,0,1
250 400 m 0,94,95
 193.138895157 400 193.138895157 400 147.13671875 366.578125 c 0,96,97
 146.197727143 365.787632066 146.197727143 365.787632066 145.32421875 365.03125 c 1,98,-1
 154.30984158 356.091417101 l 0,99,100
 163.29546441 347.151584201 163.29546441 347.151584201 172.252007378 338.195041233 c 128,-1,101
 181.208550347 329.238498264 181.208550347 329.238498264 181.150390625 329.205078125 c 1,102,103
 212.45289919 349.943668516 212.45289919 349.943668516 250 350 c 0,104,105
 302 350 302 350 338.5 313.5 c 128,-1,106
 375 277 375 277 375 225 c 0,107,108
 374.943668516 187.45289919 374.943668516 187.45289919 354.205078125 156.150390625 c 1,109,-1
 390.103515625 120.251953125 l 1,110,111
 424.975585938 166.888959886 424.975585938 166.888959886 424.975585938 225.07421875 c 0,112,113
 424.975585938 297.473174634 424.975585938 297.473174634 373.744140625 348.744140625 c 128,-1,114
 322.48828125 400 322.48828125 400 250 400 c 0,94,95
109.96875 329.67578125 m 1,115,116
 75.0966796875 283.038774489 75.0966796875 283.038774489 75.0966796875 224.853515625 c 0,117,118
 75.0966796875 152.514625897 75.0966796875 152.514625897 126.255859375 101.255859375 c 128,-1,119
 177.517578125 49.994140625 177.517578125 49.994140625 249.830078125 49.994140625 c 0,120,121
 263.742450421 49.994140625 263.742450421 49.994140625 277.376953125 52.154296875 c 0,122,123
 320.079983684 59.0085728998 320.079983684 59.0085728998 354.67578125 84.96875 c 1,124,-1
 345.69015842 93.9085828993 l 0,125,126
 336.70453559 102.848415799 336.70453559 102.848415799 327.747992622 111.804958767 c 128,-1,127
 318.791449653 120.761501736 318.791449653 120.761501736 318.849609375 120.794921875 c 1,128,129
 287.54710081 100.056331484 287.54710081 100.056331484 250 100 c 0,130,131
 198 100 198 100 161.5 136.5 c 128,-1,132
 125 173 125 173 125 225 c 0,133,134
 125.056331484 262.54710081 125.056331484 262.54710081 145.794921875 293.849609375 c 1,135,-1
 109.96875 329.67578125 l 1,115,116
250 300 m 0,136,137
 233.093405964 299.850320441 233.093405964 299.850320441 217.890625 292.46484375 c 1,138,-1
 317.46484375 192.890625 l 1,139,140
 324.850320441 208.093405964 324.850320441 208.093405964 325 225 c 0,141,142
 325 256 325 256 303 278 c 128,-1,143
 281 300 281 300 250 300 c 0,136,137
182.53515625 257.109375 m 1,144,145
 175.149679559 241.906594036 175.149679559 241.906594036 175 225 c 0,146,147
 175 194 175 194 197 172 c 128,-1,148
 219 150 219 150 250 150 c 0,149,150
 266.906594036 150.149679559 266.906594036 150.149679559 282.109375 157.53515625 c 1,151,-1
 182.53515625 257.109375 l 1,144,145
EndSplineSet
EndChar

StartChar: A
Encoding: 65 65 33
Width: 500
Flags: W
LayerCount: 2
Fore
SplineSet
250 450 m 0,0,1
 342.076002609 449.907054555 342.076002609 449.907054555 407.682576554 385.183512075 c 128,-1,2
 473.289150498 320.459969596 473.289150498 320.459969596 474.744140625 228.5625 c 0,3,4
 475 226.78775289 475 226.78775289 475 225 c 0,5,6
 475 215 475 215 467.5 207.5 c 128,-1,7
 460 200 460 200 450 200 c 128,-1,8
 440 200 440 200 432.5 207.5 c 128,-1,9
 425 215 425 215 425 225 c 0,10,11
 425 297 425 297 373.5 348.5 c 128,-1,12
 322 400 322 400 250 400 c 0,13,14
 191.921893394 399.759378898 191.921893394 399.759378898 145.513671875 364.841796875 c 1,15,-1
 267.677734375 242.677734375 l 1,16,17
 275 235.35546875 275 235.35546875 275 225 c 0,18,19
 275 215 275 215 267.5 207.5 c 128,-1,20
 260 200 260 200 250 200 c 0,21,22
 239.6598045 200.03666216 239.6598045 200.03666216 232.3671875 207.3671875 c 1,23,-1
 232.322265625 207.322265625 l 1,24,-1
 110.15234375 329.4921875 l 1,25,26
 84.135574878 295.006719746 84.135574878 295.006719746 77.154296875 252.376953125 c 0,27,28
 75 238.771568943 75 238.771568943 75 225 c 0,29,30
 75 215 75 215 67.5 207.5 c 128,-1,31
 60 200 60 200 50 200 c 128,-1,32
 40 200 40 200 32.5 207.5 c 128,-1,33
 25 215 25 215 25 225 c 0,34,35
 25.2705327276 231.131110692 25.2705327276 231.131110692 25.876953125 237.248046875 c 0,36,37
 26.1947751577 247.545480734 26.1947751577 247.545480734 27.451171875 257.759765625 c 0,38,39
 28.4991315761 263.21739845 28.4991315761 263.21739845 29.810546875 268.603515625 c 0,40,41
 31.6099924792 278.941161969 31.6099924792 278.941161969 34.361328125 289.05859375 c 0,42,43
 36.0656572546 293.973403333 36.0656572546 293.973403333 38.0078125 298.833984375 c 0,44,45
 41.3385662262 309.117282287 41.3385662262 309.117282287 45.638671875 319.03125 c 0,46,47
 48.0038039482 323.606279472 48.0038039482 323.606279472 50.578125 328.07421875 c 0,48,49
 55.3595691275 337.840603862 55.3595691275 337.840603862 61.05859375 347.09765625 c 0,50,51
 64.0168841959 351.242184643 64.0168841959 351.242184643 67.14453125 355.228515625 c 0,52,53
 73.2949475727 364.273673563 73.2949475727 364.273673563 80.30859375 372.6953125 c 0,54,55
 83.8160279705 376.365612654 83.8160279705 376.365612654 87.486328125 379.873046875 c 0,56,57
 87.72265625 380.109375 87.72265625 380.109375 88.208984375 380.591796875 c 0,58,59
 89.3975077189 382.463429837 89.3975077189 382.463429837 90.900390625 384.099609375 c 0,60,61
 92.7318945128 385.869722071 92.7318945128 385.869722071 94.890625 387.23828125 c 0,62,63
 98.8395271426 391.37071776 98.8395271426 391.37071776 102.98046875 395.28515625 c 0,64,65
 107.224323434 398.623985604 107.224323434 398.623985604 111.634765625 401.763671875 c 0,66,67
 119.843104115 408.504826487 119.843104115 408.504826487 128.64453125 414.439453125 c 0,68,69
 133.234522232 417.087524845 133.234522232 417.087524845 137.93359375 419.51171875 c 0,70,71
 147.104480277 425.081333186 147.104480277 425.081333186 156.779296875 429.759765625 c 0,72,73
 161.391129625 431.597419481 161.391129625 431.597419481 166.10546875 433.23828125 c 0,74,75
 176.243371355 437.584155021 176.243371355 437.584155021 186.783203125 440.923828125 c 0,76,77
 193.11839149 442.495772665 193.11839149 442.495772665 199.53125 443.697265625 c 0,78,79
 208.694537411 446.093293397 208.694537411 446.093293397 218.056640625 447.71484375 c 0,80,81
 233.949919435 449.997129814 233.949919435 449.997129814 250 450 c 0,0,1
EndSplineSet
EndChar

StartChar: B
Encoding: 66 66 34
Width: 500
Flags: W
LayerCount: 2
Fore
SplineSet
264.0546875 449.390625 m 0,0,1
 346.8300979 444.149204604 346.8300979 444.149204604 406.3984375 386.4375 c 0,2,3
 407.835513931 385.363704819 407.835513931 385.363704819 409.099609375 384.099609375 c 0,4,5
 416.42578125 376.7734375 416.42578125 376.7734375 416.42578125 366.41796875 c 128,-1,6
 416.42578125 356.0703125 416.42578125 356.0703125 409.099609375 348.744140625 c 128,-1,7
 401.7734375 341.41796875 401.7734375 341.41796875 391.41796875 341.41796875 c 128,-1,8
 381.0703125 341.41796875 381.0703125 341.41796875 373.744140625 348.744140625 c 0,9,10
 322.462890625 400.025390625 322.462890625 400.025390625 249.975585938 400.025390625 c 128,-1,11
 177.537109375 400.025390625 177.537109375 400.025390625 126.255859375 348.744140625 c 128,-1,12
 74.974609375 297.462890625 74.974609375 297.462890625 74.974609375 224.975585938 c 128,-1,13
 74.974609375 152.537109375 74.974609375 152.537109375 126.255859375 101.255859375 c 128,-1,14
 177.537109375 49.974609375 177.537109375 49.974609375 250.024414062 49.974609375 c 128,-1,15
 322.462890625 49.974609375 322.462890625 49.974609375 373.744140625 101.255859375 c 0,16,17
 381.0703125 108.58203125 381.0703125 108.58203125 391.42578125 108.58203125 c 128,-1,18
 401.7734375 108.58203125 401.7734375 108.58203125 409.099609375 101.255859375 c 128,-1,19
 416.42578125 93.9296875 416.42578125 93.9296875 416.42578125 83.57421875 c 128,-1,20
 416.42578125 73.2265625 416.42578125 73.2265625 409.099609375 65.900390625 c 1,21,-1
 409.09765625 65.90234375 l 0,22,23
 408.662477617 65.4657047857 408.662477617 65.4657047857 408.2109375 65.0546875 c 2,24,-1
 408.1953125 65.044921875 l 1,25,26
 342.417957436 -0.0087890625 342.417957436 -0.0087890625 249.947265625 -0.0087890625 c 0,27,28
 156.828913403 -0.0087890625 156.828913403 -0.0087890625 90.900390625 65.90234375 c 128,-1,29
 24.96875 131.833984375 24.96875 131.833984375 24.96875 225.032226562 c 128,-1,30
 24.96875 318.16796875 24.96875 318.16796875 90.900390625 384.099609375 c 128,-1,31
 156.779215385 449.845703125 156.779215385 449.845703125 249.650390625 449.845703125 c 0,32,33
 256.872111398 449.845703125 256.872111398 449.845703125 264.0546875 449.390625 c 0,0,1
104.66796875 391.11328125 m 0,34,35
 106.634460449 391.424804688 106.634460449 391.424804688 108.58203125 391.424804688 c 0,36,37
 118.929082971 391.424804688 118.929082971 391.424804688 126.255859375 384.099609375 c 2,38,-1
 409.099609375 101.255859375 l 1,39,40
 416.42578125 93.9296875 416.42578125 93.9296875 416.42578125 83.57421875 c 128,-1,41
 416.42578125 73.2265625 416.42578125 73.2265625 409.099609375 65.900390625 c 128,-1,42
 401.7734375 58.57421875 401.7734375 58.57421875 391.41796875 58.57421875 c 128,-1,43
 381.0703125 58.57421875 381.0703125 58.57421875 373.744140625 65.900390625 c 2,44,-1
 90.900390625 348.744140625 l 1,45,46
 83.57421875 356.0703125 83.57421875 356.0703125 83.57421875 366.42578125 c 128,-1,47
 83.57421875 376.7734375 83.57421875 376.7734375 90.900390625 384.099609375 c 0,48,49
 96.6460379679 389.843718392 96.6460379679 389.843718392 104.66796875 391.11328125 c 0,34,35
EndSplineSet
EndChar

StartChar: C
Encoding: 67 67 35
Width: 500
Flags: W
LayerCount: 2
Fore
SplineSet
234.634765625 449.453125 m 0,0,1
 242.778139067 450.010742188 242.778139067 450.010742188 250.05078125 450.010742188 c 0,2,3
 343.170714288 450.010742188 343.170714288 450.010742188 409.099609375 384.09765625 c 128,-1,4
 475.03125 318.166015625 475.03125 318.166015625 475.03125 224.967773438 c 128,-1,5
 475.03125 131.83203125 475.03125 131.83203125 409.099609375 65.900390625 c 128,-1,6
 343.212351353 0.1474609375 343.212351353 0.1474609375 250.111328125 0.1474609375 c 0,7,8
 159.056903282 0.1474609375 159.056903282 0.1474609375 93.6015625 63.5625 c 0,9,10
 92.1644860693 64.6362951807 92.1644860693 64.6362951807 90.900390625 65.900390625 c 0,11,12
 83.57421875 73.2265625 83.57421875 73.2265625 83.57421875 83.58203125 c 128,-1,13
 83.57421875 93.9296875 83.57421875 93.9296875 90.900390625 101.255859375 c 128,-1,14
 98.2265625 108.58203125 98.2265625 108.58203125 108.58203125 108.58203125 c 128,-1,15
 118.9296875 108.58203125 118.9296875 108.58203125 126.255859375 101.255859375 c 0,16,17
 177.537109375 49.974609375 177.537109375 49.974609375 250.024414062 49.974609375 c 128,-1,18
 322.462890625 49.974609375 322.462890625 49.974609375 373.744140625 101.255859375 c 128,-1,19
 425.025390625 152.537109375 425.025390625 152.537109375 425.025390625 225.024414062 c 128,-1,20
 425.025390625 297.462890625 425.025390625 297.462890625 373.744140625 348.744140625 c 128,-1,21
 322.462890625 400.025390625 322.462890625 400.025390625 249.975585938 400.025390625 c 128,-1,22
 177.537109375 400.025390625 177.537109375 400.025390625 126.255859375 348.744140625 c 0,23,24
 118.9296875 341.41796875 118.9296875 341.41796875 108.57421875 341.41796875 c 128,-1,25
 98.2265625 341.41796875 98.2265625 341.41796875 90.900390625 348.744140625 c 128,-1,26
 83.57421875 356.0703125 83.57421875 356.0703125 83.57421875 366.42578125 c 128,-1,27
 83.57421875 376.7734375 83.57421875 376.7734375 90.900390625 384.099609375 c 1,28,-1
 90.90234375 384.09765625 l 0,29,30
 91.3375223833 384.534295214 91.3375223833 384.534295214 91.7890625 384.9453125 c 2,31,-1
 91.8046875 384.955078125 l 1,32,33
 151.23963867 443.736280718 151.23963867 443.736280718 234.634765625 449.453125 c 0,0,1
104.66796875 391.11328125 m 0,34,35
 106.634460449 391.424804688 106.634460449 391.424804688 108.58203125 391.424804688 c 0,36,37
 118.929082971 391.424804688 118.929082971 391.424804688 126.255859375 384.099609375 c 2,38,-1
 409.099609375 101.255859375 l 1,39,40
 416.42578125 93.9296875 416.42578125 93.9296875 416.42578125 83.57421875 c 128,-1,41
 416.42578125 73.2265625 416.42578125 73.2265625 409.099609375 65.900390625 c 128,-1,42
 401.7734375 58.57421875 401.7734375 58.57421875 391.41796875 58.57421875 c 128,-1,43
 381.0703125 58.57421875 381.0703125 58.57421875 373.744140625 65.900390625 c 2,44,-1
 90.900390625 348.744140625 l 1,45,46
 83.57421875 356.0703125 83.57421875 356.0703125 83.57421875 366.42578125 c 128,-1,47
 83.57421875 376.7734375 83.57421875 376.7734375 90.900390625 384.099609375 c 0,48,49
 96.6460379679 389.843718392 96.6460379679 389.843718392 104.66796875 391.11328125 c 0,34,35
EndSplineSet
EndChar

StartChar: D
Encoding: 68 68 36
Width: 500
Flags: W
LayerCount: 2
Fore
SplineSet
108.578125 391.421875 m 128,-1,1
 118.93359375 391.421875 118.93359375 391.421875 126.255859375 384.099609375 c 128,-1,2
 133.58203125 376.7734375 133.58203125 376.7734375 133.58203125 366.41796875 c 128,-1,3
 133.58203125 356.0703125 133.58203125 356.0703125 126.255859375 348.744140625 c 0,4,5
 74.974609375 297.462890625 74.974609375 297.462890625 74.974609375 224.975585938 c 128,-1,6
 74.974609375 152.537109375 74.974609375 152.537109375 126.255859375 101.255859375 c 128,-1,7
 177.537109375 49.974609375 177.537109375 49.974609375 250.024414062 49.974609375 c 128,-1,8
 322.462890625 49.974609375 322.462890625 49.974609375 373.744140625 101.255859375 c 128,-1,9
 425.025390625 152.537109375 425.025390625 152.537109375 425.025390625 225.024414062 c 128,-1,10
 425.025390625 297.462890625 425.025390625 297.462890625 373.744140625 348.744140625 c 0,11,12
 366.41796875 356.0703125 366.41796875 356.0703125 366.41796875 366.42578125 c 128,-1,13
 366.41796875 376.7734375 366.41796875 376.7734375 373.744140625 384.099609375 c 128,-1,14
 381.0703125 391.42578125 381.0703125 391.42578125 391.42578125 391.42578125 c 128,-1,15
 401.7734375 391.42578125 401.7734375 391.42578125 409.099609375 384.099609375 c 1,16,-1
 409.09765625 384.09765625 l 0,17,18
 409.534295214 383.662477617 409.534295214 383.662477617 409.9453125 383.2109375 c 2,19,-1
 409.955078125 383.1953125 l 1,20,21
 475.008789062 317.417957436 475.008789062 317.417957436 475.008789062 224.947265625 c 0,22,23
 475.008789062 131.828913403 475.008789062 131.828913403 409.09765625 65.900390625 c 128,-1,24
 343.166015625 -0.03125 343.166015625 -0.03125 249.967773438 -0.03125 c 128,-1,25
 156.83203125 -0.03125 156.83203125 -0.03125 90.900390625 65.900390625 c 128,-1,26
 25.1474609375 131.787648647 25.1474609375 131.787648647 25.1474609375 224.888671875 c 0,27,28
 25.1474609375 315.943096718 25.1474609375 315.943096718 88.5625 381.3984375 c 0,29,30
 89.6362951807 382.835513931 89.6362951807 382.835513931 90.900390625 384.099609375 c 0,31,0
 98.22265625 391.421875 98.22265625 391.421875 108.578125 391.421875 c 128,-1,1
104.66796875 391.11328125 m 0,32,33
 106.634460449 391.424804688 106.634460449 391.424804688 108.58203125 391.424804688 c 0,34,35
 118.929082971 391.424804688 118.929082971 391.424804688 126.255859375 384.099609375 c 2,36,-1
 409.099609375 101.255859375 l 1,37,38
 416.42578125 93.9296875 416.42578125 93.9296875 416.42578125 83.57421875 c 128,-1,39
 416.42578125 73.2265625 416.42578125 73.2265625 409.099609375 65.900390625 c 128,-1,40
 401.7734375 58.57421875 401.7734375 58.57421875 391.41796875 58.57421875 c 128,-1,41
 381.0703125 58.57421875 381.0703125 58.57421875 373.744140625 65.900390625 c 2,42,-1
 90.900390625 348.744140625 l 1,43,44
 83.57421875 356.0703125 83.57421875 356.0703125 83.57421875 366.42578125 c 128,-1,45
 83.57421875 376.7734375 83.57421875 376.7734375 90.900390625 384.099609375 c 0,46,47
 96.6460379679 389.843718392 96.6460379679 389.843718392 104.66796875 391.11328125 c 0,32,33
EndSplineSet
EndChar

StartChar: E
Encoding: 69 69 37
Width: 500
Flags: W
LayerCount: 2
Fore
SplineSet
106.794921875 391.357421875 m 0,0,1
 107.730624112 391.424804688 107.730624112 391.424804688 108.58203125 391.424804688 c 0,2,3
 118.929082971 391.424804688 118.929082971 391.424804688 126.255859375 384.099609375 c 2,4,-1
 267.677734375 242.677734375 l 1,5,6
 275 235.35546875 275 235.35546875 275 225 c 0,7,8
 275 215 275 215 267.5 207.5 c 128,-1,9
 260 200 260 200 250 200 c 0,10,11
 239.6598045 200.03666216 239.6598045 200.03666216 232.3671875 207.3671875 c 1,12,-1
 232.322265625 207.322265625 l 1,13,-1
 90.900390625 348.744140625 l 1,14,15
 83.57421875 356.0703125 83.57421875 356.0703125 83.57421875 366.42578125 c 128,-1,16
 83.57421875 376.7734375 83.57421875 376.7734375 90.900390625 384.099609375 c 0,17,18
 97.4938401442 390.693058894 97.4938401442 390.693058894 106.794921875 391.357421875 c 0,0,1
EndSplineSet
EndChar

StartChar: F
Encoding: 70 70 38
Width: 500
Flags: W
LayerCount: 2
Fore
SplineSet
233.94921875 449.427734375 m 0,0,1
 242.404418635 450.032226562 242.404418635 450.032226562 250.03125 450.032226562 c 0,2,3
 343.166992188 450.032226562 343.166992188 450.032226562 409.099609375 384.099609375 c 128,-1,4
 474.852539062 318.212351353 474.852539062 318.212351353 474.852539062 225.111328125 c 0,5,6
 474.852539062 134.056903282 474.852539062 134.056903282 411.4375 68.6015625 c 0,7,8
 410.363704819 67.1644860693 410.363704819 67.1644860693 409.099609375 65.900390625 c 0,9,10
 401.7734375 58.57421875 401.7734375 58.57421875 391.41796875 58.57421875 c 128,-1,11
 381.0703125 58.57421875 381.0703125 58.57421875 373.744140625 65.900390625 c 128,-1,12
 366.41796875 73.2265625 366.41796875 73.2265625 366.41796875 83.58203125 c 128,-1,13
 366.41796875 93.9296875 366.41796875 93.9296875 373.744140625 101.255859375 c 0,14,15
 425.025390625 152.537109375 425.025390625 152.537109375 425.025390625 225.024414062 c 128,-1,16
 425.025390625 297.462890625 425.025390625 297.462890625 373.744140625 348.744140625 c 128,-1,17
 322.462890625 400.025390625 322.462890625 400.025390625 249.975585938 400.025390625 c 128,-1,18
 177.537109375 400.025390625 177.537109375 400.025390625 126.255859375 348.744140625 c 128,-1,19
 74.974609375 297.462890625 74.974609375 297.462890625 74.974609375 224.975585938 c 128,-1,20
 74.974609375 152.537109375 74.974609375 152.537109375 126.255859375 101.255859375 c 0,21,22
 133.58203125 93.9296875 133.58203125 93.9296875 133.58203125 83.57421875 c 128,-1,23
 133.58203125 73.2265625 133.58203125 73.2265625 126.255859375 65.900390625 c 128,-1,24
 118.9296875 58.57421875 118.9296875 58.57421875 108.57421875 58.57421875 c 128,-1,25
 98.2265625 58.57421875 98.2265625 58.57421875 90.900390625 65.900390625 c 1,26,-1
 90.90234375 65.90234375 l 0,27,28
 90.4657047857 66.3375223833 90.4657047857 66.3375223833 90.0546875 66.7890625 c 2,29,-1
 90.044921875 66.8046875 l 1,30,31
 24.9912109375 132.582042564 24.9912109375 132.582042564 24.9912109375 225.052734375 c 0,32,33
 24.9912109375 318.171086597 24.9912109375 318.171086597 90.90234375 384.099609375 c 0,34,35
 150.242832829 443.440098454 150.242832829 443.440098454 233.94921875 449.427734375 c 0,0,1
EndSplineSet
EndChar

StartChar: G
Encoding: 71 71 39
Width: 500
Flags: W
LayerCount: 2
Fore
SplineSet
250 450 m 0,0,-1
 249.999023438 450 l 0,1,2
 250.615722656 450 250.615722656 450 251.2265625 449.970703125 c 2,3,-1
 251.244140625 449.96875 l 1,4,5
 343.962438538 449.455907295 343.962438538 449.455907295 409.475361576 383.619054958 c 128,-1,6
 474.988284613 317.782202622 474.988284613 317.782202622 475 225 c 0,7,8
 475 132 475 132 409 66 c 128,-1,9
 343 0 343 0 250 0 c 0,10,11
 157.923997391 0.09294544504 157.923997391 0.09294544504 92.3174234462 64.8164879247 c 128,-1,12
 26.7108495016 129.540030404 26.7108495016 129.540030404 25.255859375 221.4375 c 0,13,14
 25 223.21224711 25 223.21224711 25 225 c 0,15,16
 25 235 25 235 32.5 242.5 c 128,-1,17
 40 250 40 250 50 250 c 128,-1,18
 60 250 60 250 67.5 242.5 c 128,-1,19
 75 235 75 235 75 225 c 0,20,21
 75 153 75 153 126.5 101.5 c 128,-1,22
 178 50 178 50 250 50 c 128,-1,23
 322 50 322 50 373.5 101.5 c 128,-1,24
 425 153 425 153 425 225 c 128,-1,25
 425 297 425 297 373.5 348.5 c 128,-1,26
 322 400 322 400 250 400 c 0,27,28
 240 400 240 400 232.5 407.5 c 128,-1,29
 225 415 225 415 225 425 c 128,-1,30
 225 435 225 435 232.5 442.5 c 128,-1,31
 240 450 240 450 250 450 c 0,0,-1
104.66796875 391.11328125 m 0,32,33
 106.634460449 391.424804688 106.634460449 391.424804688 108.58203125 391.424804688 c 0,34,35
 118.929082971 391.424804688 118.929082971 391.424804688 126.255859375 384.099609375 c 2,36,-1
 409.099609375 101.255859375 l 1,37,38
 416.42578125 93.9296875 416.42578125 93.9296875 416.42578125 83.57421875 c 128,-1,39
 416.42578125 73.2265625 416.42578125 73.2265625 409.099609375 65.900390625 c 128,-1,40
 401.7734375 58.57421875 401.7734375 58.57421875 391.41796875 58.57421875 c 128,-1,41
 381.0703125 58.57421875 381.0703125 58.57421875 373.744140625 65.900390625 c 2,42,-1
 90.900390625 348.744140625 l 1,43,44
 83.57421875 356.0703125 83.57421875 356.0703125 83.57421875 366.42578125 c 128,-1,45
 83.57421875 376.7734375 83.57421875 376.7734375 90.900390625 384.099609375 c 0,46,47
 96.6460379679 389.843718392 96.6460379679 389.843718392 104.66796875 391.11328125 c 0,32,33
EndSplineSet
EndChar

StartChar: H
Encoding: 72 72 40
Width: 500
Flags: W
LayerCount: 2
Fore
SplineSet
250 450 m 0,0,1
 343 450 343 450 409 384 c 128,-1,2
 475 318 475 318 475 225 c 0,3,4
 474.907054555 132.923997391 474.907054555 132.923997391 410.183512075 67.3174234462 c 128,-1,5
 345.459969596 1.71084950164 345.459969596 1.71084950164 253.5625 0.255859375 c 0,6,7
 251.78775289 0 251.78775289 0 250 0 c 0,8,9
 240 0 240 0 232.5 7.5 c 128,-1,10
 225 15 225 15 225 25 c 128,-1,11
 225 35 225 35 232.5 42.5 c 128,-1,12
 240 50 240 50 250 50 c 0,13,14
 322 50 322 50 373.5 101.5 c 128,-1,15
 425 153 425 153 425 225 c 128,-1,16
 425 297 425 297 373.5 348.5 c 128,-1,17
 322 400 322 400 250 400 c 128,-1,18
 178 400 178 400 126.5 348.5 c 128,-1,19
 75 297 75 297 75 225 c 0,20,21
 75 215 75 215 67.5 207.5 c 128,-1,22
 60 200 60 200 50 200 c 128,-1,23
 40 200 40 200 32.5 207.5 c 128,-1,24
 25 215 25 215 25 225 c 0,25,-1
 25 224.999023438 l 0,26,27
 25 225.615722656 25 225.615722656 25.029296875 226.2265625 c 2,28,-1
 25.03125 226.244140625 l 1,29,30
 25.5440927051 318.962438538 25.5440927051 318.962438538 91.3809450415 384.475361576 c 128,-1,31
 157.217797378 449.988284613 157.217797378 449.988284613 250 450 c 0,0,1
EndSplineSet
EndChar

StartChar: I
Encoding: 73 73 41
Width: 500
Flags: W
LayerCount: 2
Fore
SplineSet
250 450 m 0,0,1
 342.076002609 449.907054555 342.076002609 449.907054555 407.682576554 385.183512075 c 128,-1,2
 473.289150498 320.459969596 473.289150498 320.459969596 474.744140625 228.5625 c 0,3,4
 475 226.78775289 475 226.78775289 475 225 c 0,5,6
 475 215 475 215 467.5 207.5 c 128,-1,7
 460 200 460 200 450 200 c 128,-1,8
 440 200 440 200 432.5 207.5 c 128,-1,9
 425 215 425 215 425 225 c 0,10,11
 425 297 425 297 373.5 348.5 c 128,-1,12
 322 400 322 400 250 400 c 0,13,14
 185.05240462 400 185.05240462 400 136.100699111 357.738987909 c 128,-1,15
 87.1489936009 315.477975817 87.1489936009 315.477975817 77.154296875 252.376953125 c 0,16,17
 75 238.771568943 75 238.771568943 75 225 c 0,18,19
 75 215 75 215 67.5 207.5 c 128,-1,20
 60 200 60 200 50 200 c 128,-1,21
 40 200 40 200 32.5 207.5 c 128,-1,22
 25 215 25 215 25 225 c 0,23,24
 25.2705327276 231.131110692 25.2705327276 231.131110692 25.876953125 237.248046875 c 0,25,26
 26.1947751577 247.545480734 26.1947751577 247.545480734 27.451171875 257.759765625 c 0,27,28
 28.4991315761 263.21739845 28.4991315761 263.21739845 29.810546875 268.603515625 c 0,29,30
 31.6099924792 278.941161969 31.6099924792 278.941161969 34.361328125 289.05859375 c 0,31,32
 36.0656572546 293.973403333 36.0656572546 293.973403333 38.0078125 298.833984375 c 0,33,34
 41.3385662262 309.117282287 41.3385662262 309.117282287 45.638671875 319.03125 c 0,35,36
 48.0038039482 323.606279472 48.0038039482 323.606279472 50.578125 328.07421875 c 0,37,38
 55.3595691275 337.840603862 55.3595691275 337.840603862 61.05859375 347.09765625 c 0,39,40
 64.0168841959 351.242184643 64.0168841959 351.242184643 67.14453125 355.228515625 c 0,41,42
 73.2949475727 364.273673563 73.2949475727 364.273673563 80.30859375 372.6953125 c 0,43,44
 83.8160279705 376.365612654 83.8160279705 376.365612654 87.486328125 379.873046875 c 0,45,46
 94.8633952431 387.960595294 94.8633952431 387.960595294 102.98046875 395.28515625 c 0,47,48
 107.224323434 398.623985604 107.224323434 398.623985604 111.634765625 401.763671875 c 0,49,50
 119.843104115 408.504826487 119.843104115 408.504826487 128.64453125 414.439453125 c 0,51,52
 133.234522232 417.087524845 133.234522232 417.087524845 137.93359375 419.51171875 c 0,53,54
 147.104480277 425.081333186 147.104480277 425.081333186 156.779296875 429.759765625 c 0,55,56
 161.391129625 431.597419481 161.391129625 431.597419481 166.10546875 433.23828125 c 0,57,58
 176.243371355 437.584155021 176.243371355 437.584155021 186.783203125 440.923828125 c 0,59,60
 193.11839149 442.495772665 193.11839149 442.495772665 199.53125 443.697265625 c 0,61,62
 208.694537411 446.093293397 208.694537411 446.093293397 218.056640625 447.71484375 c 0,63,64
 233.949919435 449.997129814 233.949919435 449.997129814 250 450 c 0,0,1
EndSplineSet
EndChar

StartChar: J
Encoding: 74 74 42
Width: 500
Flags: W
LayerCount: 2
Fore
SplineSet
250 450 m 0,0,1
 260 450 260 450 267.5 442.5 c 128,-1,2
 275 435 275 435 275 425 c 128,-1,3
 275 415 275 415 267.5 407.5 c 128,-1,4
 260 400 260 400 250 400 c 0,5,6
 178 400 178 400 126.5 348.5 c 128,-1,7
 75 297 75 297 75 225 c 128,-1,8
 75 153 75 153 126.5 101.5 c 128,-1,9
 178 50 178 50 250 50 c 128,-1,10
 322 50 322 50 373.5 101.5 c 128,-1,11
 425 153 425 153 425 225 c 0,12,13
 425 235 425 235 432.5 242.5 c 128,-1,14
 440 250 440 250 450 250 c 128,-1,15
 460 250 460 250 467.5 242.5 c 128,-1,16
 475 235 475 235 475 225 c 0,17,-1
 475 225.000976562 l 0,18,19
 475 224.384277344 475 224.384277344 474.970703125 223.7734375 c 2,20,-1
 474.96875 223.755859375 l 1,21,22
 474.455907295 131.037561462 474.455907295 131.037561462 408.619054958 65.5246384244 c 128,-1,23
 342.782202622 0.0117153868283 342.782202622 0.0117153868283 250 0 c 0,24,25
 157 0 157 0 91 66 c 128,-1,26
 25 132 25 132 25 225 c 0,27,28
 25.092945445 317.076002609 25.092945445 317.076002609 89.8164879247 382.682576554 c 128,-1,29
 154.540030404 448.289150498 154.540030404 448.289150498 246.4375 449.744140625 c 0,30,31
 248.21224711 450 248.21224711 450 250 450 c 0,0,1
104.66796875 391.11328125 m 0,32,33
 106.634460449 391.424804688 106.634460449 391.424804688 108.58203125 391.424804688 c 0,34,35
 118.929082971 391.424804688 118.929082971 391.424804688 126.255859375 384.099609375 c 2,36,-1
 409.099609375 101.255859375 l 1,37,38
 416.42578125 93.9296875 416.42578125 93.9296875 416.42578125 83.57421875 c 128,-1,39
 416.42578125 73.2265625 416.42578125 73.2265625 409.099609375 65.900390625 c 128,-1,40
 401.7734375 58.57421875 401.7734375 58.57421875 391.41796875 58.57421875 c 128,-1,41
 381.0703125 58.57421875 381.0703125 58.57421875 373.744140625 65.900390625 c 2,42,-1
 90.900390625 348.744140625 l 1,43,44
 83.57421875 356.0703125 83.57421875 356.0703125 83.57421875 366.42578125 c 128,-1,45
 83.57421875 376.7734375 83.57421875 376.7734375 90.900390625 384.099609375 c 0,46,47
 96.6460379679 389.843718392 96.6460379679 389.843718392 104.66796875 391.11328125 c 0,32,33
250 350 m 128,-1,49
 302 350 302 350 338.5 313.5 c 128,-1,50
 375 277 375 277 375 225 c 128,-1,51
 375 173 375 173 338.5 136.5 c 128,-1,52
 302 100 302 100 250 100 c 128,-1,53
 198 100 198 100 161.5 136.5 c 128,-1,54
 125 173 125 173 125 225 c 128,-1,55
 125 277 125 277 161.5 313.5 c 128,-1,48
 198 350 198 350 250 350 c 128,-1,49
250 300 m 128,-1,57
 219 300 219 300 197 278 c 128,-1,58
 175 256 175 256 175 225 c 128,-1,59
 175 194 175 194 197 172 c 128,-1,60
 219 150 219 150 250 150 c 128,-1,61
 281 150 281 150 303 172 c 128,-1,62
 325 194 325 194 325 225 c 128,-1,63
 325 256 325 256 303 278 c 128,-1,56
 281 300 281 300 250 300 c 128,-1,57
EndSplineSet
EndChar

StartChar: K
Encoding: 75 75 43
Width: 500
Flags: W
LayerCount: 2
Fore
SplineSet
250 450 m 0,0,-1
 249.999023438 450 l 0,1,2
 250.615722656 450 250.615722656 450 251.2265625 449.970703125 c 2,3,-1
 251.244140625 449.96875 l 1,4,5
 343.962438538 449.455907295 343.962438538 449.455907295 409.475361576 383.619054958 c 128,-1,6
 474.988284613 317.782202622 474.988284613 317.782202622 475 225 c 0,7,8
 475 132 475 132 409 66 c 128,-1,9
 343 0 343 0 250 0 c 0,10,11
 157.923997391 0.09294544504 157.923997391 0.09294544504 92.3174234462 64.8164879247 c 128,-1,12
 26.7108495016 129.540030404 26.7108495016 129.540030404 25.255859375 221.4375 c 0,13,14
 25 223.21224711 25 223.21224711 25 225 c 0,15,16
 25 235 25 235 32.5 242.5 c 128,-1,17
 40 250 40 250 50 250 c 128,-1,18
 60 250 60 250 67.5 242.5 c 128,-1,19
 75 235 75 235 75 225 c 0,20,21
 75 153 75 153 126.5 101.5 c 128,-1,22
 178 50 178 50 250 50 c 128,-1,23
 322 50 322 50 373.5 101.5 c 128,-1,24
 425 153 425 153 425 225 c 128,-1,25
 425 297 425 297 373.5 348.5 c 128,-1,26
 322 400 322 400 250 400 c 0,27,28
 240 400 240 400 232.5 407.5 c 128,-1,29
 225 415 225 415 225 425 c 128,-1,30
 225 435 225 435 232.5 442.5 c 128,-1,31
 240 450 240 450 250 450 c 0,0,-1
EndSplineSet
EndChar

StartChar: L
Encoding: 76 76 44
Width: 500
Flags: W
LayerCount: 2
Fore
SplineSet
234.634765625 449.453125 m 0,0,1
 241.321876469 449.845703125 241.321876469 449.845703125 247.635742188 449.845703125 c 0,2,3
 254.959279186 449.845703125 254.959279186 449.845703125 262.255859375 449.376953125 c 0,4,-1
 262.512695312 449.376953125 l 0,5,6
 263.354003906 449.376953125 263.354003906 449.376953125 264.193359375 449.37109375 c 0,7,8
 279.674450873 448.363002436 279.674450873 448.363002436 294.861328125 445.2421875 c 2,9,-1
 294.861328125 445.2421875 l 0,10,-1
 295.583984375 445.13671875 l 1,11,12
 359.508091582 431.863904584 359.508091582 431.863904584 406.3984375 386.4375 c 0,13,14
 406.991315938 385.954030551 406.991315938 385.954030551 407.53515625 385.453125 c 0,15,16
 408.345196719 384.808873783 408.345196719 384.808873783 409.099609375 384.099609375 c 2,17,-1
 409.099609375 384.09765625 l 1,18,-1
 409.1171875 384.078125 l 1,19,20
 475.030273438 318.149229913 475.030273438 318.149229913 475.030273438 224.966796875 c 128,-1,21
 475.030273438 131.832635607 475.030273438 131.832635607 409.099609375 65.900390625 c 1,22,-1
 409.056640625 65.86328125 l 0,23,24
 408.651150414 65.4563632563 408.651150414 65.4563632563 408.2109375 65.0546875 c 2,25,-1
 408.1953125 65.044921875 l 0,26,27
 404.161201789 61.4142222351 404.161201789 61.4142222351 399.958984375 57.984375 c 0,28,29
 392.51302165 50.9905667207 392.51302165 50.9905667207 384.482421875 44.712890625 c 0,30,31
 377.219443645 39.6160637971 377.219443645 39.6160637971 369.57421875 35.10546875 c 0,32,33
 363.834354051 31.2017750541 363.834354051 31.2017750541 357.861328125 27.65625 c 0,34,35
 347.926770596 22.4730668889 347.926770596 22.4730668889 337.53515625 18.3046875 c 0,36,37
 333.345830993 16.3083623689 333.345830993 16.3083623689 329.099609375 14.49609375 c 0,38,39
 317.072792236 10.1504315946 317.072792236 10.1504315946 304.6328125 7.1953125 c 0,40,41
 301.698067889 6.30225857015 301.698067889 6.30225857015 298.765625 5.49609375 c 0,42,43
 284.973985187 2.53936338841 284.973985187 2.53936338841 270.921875 1.328125 c 0,44,45
 269.213245948 1.07380382369 269.213245948 1.07380382369 267.48046875 0.84375 c 0,46,47
 259.157786271 0.23046875 259.157786271 0.23046875 251.126953125 0.23046875 c 0,48,49
 244.435679041 0.23046875 244.435679041 0.23046875 237.744140625 0.623046875 c 0,50,-1
 237.487304688 0.623046875 l 0,51,52
 236.645996094 0.623046875 236.645996094 0.623046875 235.806640625 0.62890625 c 0,53,54
 220.325549127 1.63699756371 220.325549127 1.63699756371 205.138671875 4.7578125 c 2,55,-1
 205.138671875 4.7578125 l 0,56,-1
 204.416015625 4.86328125 l 1,57,58
 140.491908418 18.136095416 140.491908418 18.136095416 93.6015625 63.5625 c 0,59,60
 93.0086840623 64.0459694492 93.0086840623 64.0459694492 92.46484375 64.546875 c 0,61,62
 91.6548032806 65.1911262172 91.6548032806 65.1911262172 90.900390625 65.900390625 c 2,63,-1
 90.900390625 65.90234375 l 1,64,-1
 90.89453125 65.908203125 l 1,65,66
 24.96875 131.838727123 24.96875 131.838727123 24.96875 225.032226562 c 128,-1,67
 24.96875 318.16796875 24.96875 318.16796875 90.900390625 384.099609375 c 1,68,-1
 90.943359375 384.13671875 l 0,69,70
 91.3488495862 384.543636744 91.3488495862 384.543636744 91.7890625 384.9453125 c 2,71,-1
 91.8046875 384.955078125 l 0,72,73
 95.838798211 388.585777765 95.838798211 388.585777765 100.041015625 392.015625 c 0,74,75
 107.48697835 399.009433279 107.48697835 399.009433279 115.517578125 405.287109375 c 0,76,77
 122.780556355 410.383936203 122.780556355 410.383936203 130.42578125 414.89453125 c 0,78,79
 136.165645949 418.798224946 136.165645949 418.798224946 142.138671875 422.34375 c 0,80,81
 152.073229404 427.526933111 152.073229404 427.526933111 162.46484375 431.6953125 c 0,82,83
 166.654169007 433.691637631 166.654169007 433.691637631 170.900390625 435.50390625 c 0,84,85
 182.927207764 439.849568405 182.927207764 439.849568405 195.3671875 442.8046875 c 0,86,87
 198.301932111 443.69774143 198.301932111 443.69774143 201.234375 444.50390625 c 0,88,89
 215.026014813 447.460636612 215.026014813 447.460636612 229.078125 448.671875 c 0,90,91
 230.786754052 448.926196176 230.786754052 448.926196176 232.51953125 449.15625 c 0,92,93
 233.615404946 449.314763024 233.615404946 449.314763024 234.634765625 449.453125 c 0,0,1
250 400 m 0,94,95
 193.138895157 400 193.138895157 400 147.13671875 366.578125 c 0,96,97
 135.993487094 358.481768344 135.993487094 358.481768344 126.255859375 348.744140625 c 0,98,99
 74.974609375 297.462890625 74.974609375 297.462890625 74.974609375 224.975585938 c 128,-1,100
 74.974609375 152.537109375 74.974609375 152.537109375 126.255859375 101.255859375 c 128,-1,101
 177.517578125 49.994140625 177.517578125 49.994140625 249.830078125 49.994140625 c 0,102,103
 263.742450421 49.994140625 263.742450421 49.994140625 277.376953125 52.154296875 c 0,104,105
 333.53771536 61.04943411 333.53771536 61.04943411 373.744140625 101.255859375 c 0,106,107
 425.025390625 152.537109375 425.025390625 152.537109375 425.025390625 225.024414062 c 128,-1,108
 425.025390625 297.462890625 425.025390625 297.462890625 373.744140625 348.744140625 c 128,-1,109
 322.48828125 400 322.48828125 400 250 400 c 0,94,95
104.66796875 391.11328125 m 0,110,111
 106.634460449 391.424804688 106.634460449 391.424804688 108.58203125 391.424804688 c 0,112,113
 118.929082971 391.424804688 118.929082971 391.424804688 126.255859375 384.099609375 c 2,114,-1
 409.099609375 101.255859375 l 1,115,116
 416.42578125 93.9296875 416.42578125 93.9296875 416.42578125 83.57421875 c 128,-1,117
 416.42578125 73.2265625 416.42578125 73.2265625 409.099609375 65.900390625 c 128,-1,118
 401.7734375 58.57421875 401.7734375 58.57421875 391.41796875 58.57421875 c 128,-1,119
 381.0703125 58.57421875 381.0703125 58.57421875 373.744140625 65.900390625 c 2,120,-1
 90.900390625 348.744140625 l 1,121,122
 83.57421875 356.0703125 83.57421875 356.0703125 83.57421875 366.42578125 c 128,-1,123
 83.57421875 376.7734375 83.57421875 376.7734375 90.900390625 384.099609375 c 0,124,125
 96.6460379679 389.843718392 96.6460379679 389.843718392 104.66796875 391.11328125 c 0,110,111
EndSplineSet
EndChar

StartChar: M
Encoding: 77 77 45
Width: 500
Flags: W
LayerCount: 2
Fore
SplineSet
250 450 m 0,0,1
 342.076002609 449.907054555 342.076002609 449.907054555 407.682576554 385.183512075 c 128,-1,2
 473.289150498 320.459969596 473.289150498 320.459969596 474.744140625 228.5625 c 0,3,4
 475 226.78775289 475 226.78775289 475 225 c 0,5,6
 475 215 475 215 467.5 207.5 c 128,-1,7
 460 200 460 200 450 200 c 128,-1,8
 440 200 440 200 432.5 207.5 c 128,-1,9
 425 215 425 215 425 225 c 0,10,11
 425 297 425 297 373.5 348.5 c 128,-1,12
 322 400 322 400 250 400 c 128,-1,13
 178 400 178 400 126.5 348.5 c 128,-1,14
 75 297 75 297 75 225 c 128,-1,15
 75 153 75 153 126.5 101.5 c 128,-1,16
 178 50 178 50 250 50 c 0,17,18
 260 50 260 50 267.5 42.5 c 128,-1,19
 275 35 275 35 275 25 c 128,-1,20
 275 15 275 15 267.5 7.5 c 128,-1,21
 260 0 260 0 250 0 c 0,22,-1
 250.000976562 -0 l 0,23,24
 249.384277344 0 249.384277344 0 248.7734375 0.029296875 c 2,25,-1
 248.755859375 0.03125 l 1,26,27
 156.037561462 0.544092705062 156.037561462 0.544092705062 90.5246384244 66.3809450415 c 128,-1,28
 25.0117153868 132.217797378 25.0117153868 132.217797378 25 225 c 0,29,30
 25 318 25 318 91 384 c 128,-1,31
 157 450 157 450 250 450 c 0,0,1
EndSplineSet
EndChar

StartChar: N
Encoding: 78 78 46
Width: 500
Flags: W
LayerCount: 2
Fore
SplineSet
250 450 m 0,0,1
 342.076002609 449.907054555 342.076002609 449.907054555 407.682576554 385.183512075 c 128,-1,2
 473.289150498 320.459969596 473.289150498 320.459969596 474.744140625 228.5625 c 0,3,4
 475 226.78775289 475 226.78775289 475 225 c 0,5,6
 475 215 475 215 467.5 207.5 c 128,-1,7
 460 200 460 200 450 200 c 128,-1,8
 440 200 440 200 432.5 207.5 c 128,-1,9
 425 215 425 215 425 225 c 0,10,11
 425 297 425 297 373.5 348.5 c 128,-1,12
 322 400 322 400 250 400 c 128,-1,13
 178 400 178 400 126.5 348.5 c 128,-1,14
 75 297 75 297 75 225 c 128,-1,15
 75 153 75 153 126.5 101.5 c 128,-1,16
 178 50 178 50 250 50 c 0,17,18
 260 50 260 50 267.5 42.5 c 128,-1,19
 275 35 275 35 275 25 c 128,-1,20
 275 15 275 15 267.5 7.5 c 128,-1,21
 260 0 260 0 250 0 c 0,22,-1
 250.000976562 -0 l 0,23,24
 249.384277344 0 249.384277344 0 248.7734375 0.029296875 c 2,25,-1
 248.755859375 0.03125 l 1,26,27
 156.037561462 0.544092705062 156.037561462 0.544092705062 90.5246384244 66.3809450415 c 128,-1,28
 25.0117153868 132.217797378 25.0117153868 132.217797378 25 225 c 0,29,30
 25 318 25 318 91 384 c 128,-1,31
 157 450 157 450 250 450 c 0,0,1
104.66796875 391.11328125 m 0,32,33
 106.634460449 391.424804688 106.634460449 391.424804688 108.58203125 391.424804688 c 0,34,35
 118.929082971 391.424804688 118.929082971 391.424804688 126.255859375 384.099609375 c 2,36,-1
 409.099609375 101.255859375 l 1,37,38
 416.42578125 93.9296875 416.42578125 93.9296875 416.42578125 83.57421875 c 128,-1,39
 416.42578125 73.2265625 416.42578125 73.2265625 409.099609375 65.900390625 c 128,-1,40
 401.7734375 58.57421875 401.7734375 58.57421875 391.41796875 58.57421875 c 128,-1,41
 381.0703125 58.57421875 381.0703125 58.57421875 373.744140625 65.900390625 c 2,42,-1
 90.900390625 348.744140625 l 1,43,44
 83.57421875 356.0703125 83.57421875 356.0703125 83.57421875 366.42578125 c 128,-1,45
 83.57421875 376.7734375 83.57421875 376.7734375 90.900390625 384.099609375 c 0,46,47
 96.6460379679 389.843718392 96.6460379679 389.843718392 104.66796875 391.11328125 c 0,32,33
EndSplineSet
EndChar

StartChar: O
Encoding: 79 79 47
Width: 500
Flags: W
LayerCount: 2
Fore
SplineSet
50 250 m 128,-1,1
 60 250 60 250 67.5 242.5 c 128,-1,2
 75 235 75 235 75 225 c 0,3,4
 75 153 75 153 126.5 101.5 c 128,-1,5
 178 50 178 50 250 50 c 0,6,7
 263.771568943 50 263.771568943 50 277.376953125 52.154296875 c 0,8,9
 320.129321937 58.9277301794 320.129321937 58.9277301794 354.794921875 84.849609375 c 1,10,-1
 232.322265625 207.322265625 l 1,11,-1
 232.3671875 207.3671875 l 1,12,13
 225.03666216 214.6598045 225.03666216 214.6598045 225 225 c 0,14,15
 225 235 225 235 232.5 242.5 c 128,-1,16
 240 250 240 250 250 250 c 0,17,18
 260.35546875 250 260.35546875 250 267.677734375 242.677734375 c 2,19,-1
 390.123046875 120.232421875 l 1,20,21
 424.976817944 166.817386194 424.976817944 166.817386194 425 225 c 0,22,23
 425 235 425 235 432.5 242.5 c 128,-1,24
 440 250 440 250 450 250 c 0,25,26
 459.374241769 250 459.374241769 250 466.403149679 243.848558977 c 128,-1,27
 473.43205759 237.697117955 473.43205759 237.697117955 474.74609375 228.55859375 c 0,28,29
 474.883262136 226.833383128 474.883262136 226.833383128 475 225 c 0,30,31
 474.729467272 218.868889308 474.729467272 218.868889308 474.123046875 212.751953125 c 0,32,33
 473.805224842 202.454519266 473.805224842 202.454519266 472.548828125 192.240234375 c 0,34,35
 471.500868424 186.78260155 471.500868424 186.78260155 470.189453125 181.396484375 c 0,36,37
 468.390007521 171.058838031 468.390007521 171.058838031 465.638671875 160.94140625 c 0,38,39
 463.934342745 156.026596667 463.934342745 156.026596667 461.9921875 151.166015625 c 0,40,41
 458.661433774 140.882717713 458.661433774 140.882717713 454.361328125 130.96875 c 0,42,43
 451.996196052 126.393720528 451.996196052 126.393720528 449.421875 121.92578125 c 0,44,45
 444.640430872 112.159396138 444.640430872 112.159396138 438.94140625 102.90234375 c 0,46,47
 435.983115804 98.7578153574 435.983115804 98.7578153574 432.85546875 94.771484375 c 0,48,49
 426.705052427 85.7263264371 426.705052427 85.7263264371 419.69140625 77.3046875 c 0,50,51
 416.183972029 73.6343873455 416.183972029 73.6343873455 412.513671875 70.126953125 c 0,52,-1
 412.408203125 70.0234375 l 0,53,54
 410.974678401 67.7886540386 410.974678401 67.7886540386 409.099609375 65.900390625 c 0,55,56
 407.401027796 64.3293125815 407.401027796 64.3293125815 405.447265625 63.09765625 c 0,57,58
 401.356915411 58.807210917 401.356915411 58.807210917 397.01953125 54.71484375 c 0,59,60
 392.775676566 51.3760143955 392.775676566 51.3760143955 388.365234375 48.236328125 c 0,61,62
 380.156895885 41.4951735131 380.156895885 41.4951735131 371.35546875 35.560546875 c 0,63,64
 366.765477768 32.9124751546 366.765477768 32.9124751546 362.06640625 30.48828125 c 0,65,66
 352.895519723 24.9186668142 352.895519723 24.9186668142 343.220703125 20.240234375 c 0,67,68
 338.608870375 18.4025805194 338.608870375 18.4025805194 333.89453125 16.76171875 c 0,69,70
 323.756628645 12.4158449792 323.756628645 12.4158449792 313.216796875 9.076171875 c 0,71,72
 306.88160851 7.50422733457 306.88160851 7.50422733457 300.46875 6.302734375 c 0,73,74
 291.305462589 3.90670660267 291.305462589 3.90670660267 281.943359375 2.28515625 c 0,75,76
 266.050080565 0.00287018608098 266.050080565 0.00287018608098 250 0 c 0,77,78
 157.923997391 0.09294544504 157.923997391 0.09294544504 92.3174234462 64.8164879247 c 128,-1,79
 26.7108495016 129.540030404 26.7108495016 129.540030404 25.255859375 221.4375 c 0,80,81
 25 223.21224711 25 223.21224711 25 225 c 0,82,83
 25 235 25 235 32.5 242.5 c 128,-1,0
 40 250 40 250 50 250 c 128,-1,1
EndSplineSet
EndChar

StartChar: P
Encoding: 80 80 48
Width: 500
Flags: W
LayerCount: 2
Fore
SplineSet
264.0546875 449.390625 m 0,0,1
 346.8300979 444.149204604 346.8300979 444.149204604 406.3984375 386.4375 c 0,2,3
 407.835513931 385.363704819 407.835513931 385.363704819 409.099609375 384.099609375 c 0,4,5
 416.42578125 376.7734375 416.42578125 376.7734375 416.42578125 366.41796875 c 128,-1,6
 416.42578125 356.0703125 416.42578125 356.0703125 409.099609375 348.744140625 c 128,-1,7
 401.7734375 341.41796875 401.7734375 341.41796875 391.41796875 341.41796875 c 128,-1,8
 381.0703125 341.41796875 381.0703125 341.41796875 373.744140625 348.744140625 c 0,9,10
 322.462890625 400.025390625 322.462890625 400.025390625 249.975585938 400.025390625 c 128,-1,11
 177.537109375 400.025390625 177.537109375 400.025390625 126.255859375 348.744140625 c 128,-1,12
 74.974609375 297.462890625 74.974609375 297.462890625 74.974609375 224.975585938 c 128,-1,13
 74.974609375 152.537109375 74.974609375 152.537109375 126.255859375 101.255859375 c 128,-1,14
 177.537109375 49.974609375 177.537109375 49.974609375 250.024414062 49.974609375 c 128,-1,15
 322.462890625 49.974609375 322.462890625 49.974609375 373.744140625 101.255859375 c 0,16,17
 381.0703125 108.58203125 381.0703125 108.58203125 391.42578125 108.58203125 c 128,-1,18
 401.7734375 108.58203125 401.7734375 108.58203125 409.099609375 101.255859375 c 128,-1,19
 416.42578125 93.9296875 416.42578125 93.9296875 416.42578125 83.57421875 c 128,-1,20
 416.42578125 73.2265625 416.42578125 73.2265625 409.099609375 65.900390625 c 1,21,-1
 409.09765625 65.90234375 l 0,22,23
 408.662477617 65.4657047857 408.662477617 65.4657047857 408.2109375 65.0546875 c 2,24,-1
 408.1953125 65.044921875 l 1,25,26
 342.417957436 -0.0087890625 342.417957436 -0.0087890625 249.947265625 -0.0087890625 c 0,27,28
 156.828913403 -0.0087890625 156.828913403 -0.0087890625 90.900390625 65.90234375 c 128,-1,29
 24.96875 131.833984375 24.96875 131.833984375 24.96875 225.032226562 c 128,-1,30
 24.96875 318.16796875 24.96875 318.16796875 90.900390625 384.099609375 c 128,-1,31
 156.779215385 449.845703125 156.779215385 449.845703125 249.650390625 449.845703125 c 0,32,33
 256.872111398 449.845703125 256.872111398 449.845703125 264.0546875 449.390625 c 0,0,1
EndSplineSet
EndChar

StartChar: Q
Encoding: 81 81 49
Width: 500
Flags: W
LayerCount: 2
Fore
SplineSet
234.634765625 449.453125 m 0,0,1
 242.778139067 450.010742188 242.778139067 450.010742188 250.05078125 450.010742188 c 0,2,3
 343.170714288 450.010742188 343.170714288 450.010742188 409.099609375 384.09765625 c 128,-1,4
 475.03125 318.166015625 475.03125 318.166015625 475.03125 224.967773438 c 128,-1,5
 475.03125 131.83203125 475.03125 131.83203125 409.099609375 65.900390625 c 128,-1,6
 343.212351353 0.1474609375 343.212351353 0.1474609375 250.111328125 0.1474609375 c 0,7,8
 159.056903282 0.1474609375 159.056903282 0.1474609375 93.6015625 63.5625 c 0,9,10
 92.1644860693 64.6362951807 92.1644860693 64.6362951807 90.900390625 65.900390625 c 0,11,12
 83.57421875 73.2265625 83.57421875 73.2265625 83.57421875 83.58203125 c 128,-1,13
 83.57421875 93.9296875 83.57421875 93.9296875 90.900390625 101.255859375 c 128,-1,14
 98.2265625 108.58203125 98.2265625 108.58203125 108.58203125 108.58203125 c 128,-1,15
 118.9296875 108.58203125 118.9296875 108.58203125 126.255859375 101.255859375 c 0,16,17
 177.537109375 49.974609375 177.537109375 49.974609375 250.024414062 49.974609375 c 128,-1,18
 322.462890625 49.974609375 322.462890625 49.974609375 373.744140625 101.255859375 c 128,-1,19
 425.025390625 152.537109375 425.025390625 152.537109375 425.025390625 225.024414062 c 128,-1,20
 425.025390625 297.462890625 425.025390625 297.462890625 373.744140625 348.744140625 c 128,-1,21
 322.462890625 400.025390625 322.462890625 400.025390625 249.975585938 400.025390625 c 128,-1,22
 177.537109375 400.025390625 177.537109375 400.025390625 126.255859375 348.744140625 c 0,23,24
 118.9296875 341.41796875 118.9296875 341.41796875 108.57421875 341.41796875 c 128,-1,25
 98.2265625 341.41796875 98.2265625 341.41796875 90.900390625 348.744140625 c 128,-1,26
 83.57421875 356.0703125 83.57421875 356.0703125 83.57421875 366.42578125 c 128,-1,27
 83.57421875 376.7734375 83.57421875 376.7734375 90.900390625 384.099609375 c 1,28,-1
 90.90234375 384.09765625 l 0,29,30
 91.3375223833 384.534295214 91.3375223833 384.534295214 91.7890625 384.9453125 c 2,31,-1
 91.8046875 384.955078125 l 1,32,33
 151.23963867 443.736280718 151.23963867 443.736280718 234.634765625 449.453125 c 0,0,1
EndSplineSet
EndChar

StartChar: R
Encoding: 82 82 50
Width: 500
Flags: W
LayerCount: 2
Fore
SplineSet
234.634765625 449.453125 m 0,0,1
 241.321876469 449.845703125 241.321876469 449.845703125 247.635742188 449.845703125 c 0,2,3
 254.959279186 449.845703125 254.959279186 449.845703125 262.255859375 449.376953125 c 0,4,-1
 262.512695312 449.376953125 l 0,5,6
 263.354003906 449.376953125 263.354003906 449.376953125 264.193359375 449.37109375 c 0,7,8
 279.674450873 448.363002436 279.674450873 448.363002436 294.861328125 445.2421875 c 2,9,-1
 294.861328125 445.2421875 l 0,10,-1
 295.583984375 445.13671875 l 1,11,12
 359.508091582 431.863904584 359.508091582 431.863904584 406.3984375 386.4375 c 0,13,14
 406.991315938 385.954030551 406.991315938 385.954030551 407.53515625 385.453125 c 0,15,16
 408.345196719 384.808873783 408.345196719 384.808873783 409.099609375 384.099609375 c 2,17,-1
 409.099609375 384.09765625 l 1,18,-1
 409.1171875 384.078125 l 1,19,20
 475.030273438 318.149229913 475.030273438 318.149229913 475.030273438 224.966796875 c 128,-1,21
 475.030273438 131.832635607 475.030273438 131.832635607 409.099609375 65.900390625 c 1,22,-1
 409.056640625 65.86328125 l 0,23,24
 408.651150414 65.4563632563 408.651150414 65.4563632563 408.2109375 65.0546875 c 2,25,-1
 408.1953125 65.044921875 l 0,26,27
 404.161201789 61.4142222351 404.161201789 61.4142222351 399.958984375 57.984375 c 0,28,29
 392.51302165 50.9905667207 392.51302165 50.9905667207 384.482421875 44.712890625 c 0,30,31
 377.219443645 39.6160637971 377.219443645 39.6160637971 369.57421875 35.10546875 c 0,32,33
 363.834354051 31.2017750541 363.834354051 31.2017750541 357.861328125 27.65625 c 0,34,35
 347.926770596 22.4730668889 347.926770596 22.4730668889 337.53515625 18.3046875 c 0,36,37
 333.345830993 16.3083623689 333.345830993 16.3083623689 329.099609375 14.49609375 c 0,38,39
 317.072792236 10.1504315946 317.072792236 10.1504315946 304.6328125 7.1953125 c 0,40,41
 301.698067889 6.30225857015 301.698067889 6.30225857015 298.765625 5.49609375 c 0,42,43
 284.973985187 2.53936338841 284.973985187 2.53936338841 270.921875 1.328125 c 0,44,45
 269.213245948 1.07380382369 269.213245948 1.07380382369 267.48046875 0.84375 c 0,46,47
 259.157786271 0.23046875 259.157786271 0.23046875 251.126953125 0.23046875 c 0,48,49
 244.435679041 0.23046875 244.435679041 0.23046875 237.744140625 0.623046875 c 0,50,-1
 237.487304688 0.623046875 l 0,51,52
 236.645996094 0.623046875 236.645996094 0.623046875 235.806640625 0.62890625 c 0,53,54
 220.325549127 1.63699756371 220.325549127 1.63699756371 205.138671875 4.7578125 c 2,55,-1
 205.138671875 4.7578125 l 0,56,-1
 204.416015625 4.86328125 l 1,57,58
 140.491908418 18.136095416 140.491908418 18.136095416 93.6015625 63.5625 c 0,59,60
 93.0086840623 64.0459694492 93.0086840623 64.0459694492 92.46484375 64.546875 c 0,61,62
 91.6548032806 65.1911262172 91.6548032806 65.1911262172 90.900390625 65.900390625 c 2,63,-1
 90.900390625 65.90234375 l 1,64,-1
 90.89453125 65.908203125 l 1,65,66
 24.96875 131.838727123 24.96875 131.838727123 24.96875 225.032226562 c 128,-1,67
 24.96875 318.16796875 24.96875 318.16796875 90.900390625 384.099609375 c 1,68,-1
 90.943359375 384.13671875 l 0,69,70
 91.3488495862 384.543636744 91.3488495862 384.543636744 91.7890625 384.9453125 c 2,71,-1
 91.8046875 384.955078125 l 0,72,73
 95.838798211 388.585777765 95.838798211 388.585777765 100.041015625 392.015625 c 0,74,75
 107.48697835 399.009433279 107.48697835 399.009433279 115.517578125 405.287109375 c 0,76,77
 122.780556355 410.383936203 122.780556355 410.383936203 130.42578125 414.89453125 c 0,78,79
 136.165645949 418.798224946 136.165645949 418.798224946 142.138671875 422.34375 c 0,80,81
 152.073229404 427.526933111 152.073229404 427.526933111 162.46484375 431.6953125 c 0,82,83
 166.654169007 433.691637631 166.654169007 433.691637631 170.900390625 435.50390625 c 0,84,85
 182.927207764 439.849568405 182.927207764 439.849568405 195.3671875 442.8046875 c 0,86,87
 198.301932111 443.69774143 198.301932111 443.69774143 201.234375 444.50390625 c 0,88,89
 215.026014813 447.460636612 215.026014813 447.460636612 229.078125 448.671875 c 0,90,91
 230.786754052 448.926196176 230.786754052 448.926196176 232.51953125 449.15625 c 0,92,93
 233.615404946 449.314763024 233.615404946 449.314763024 234.634765625 449.453125 c 0,0,1
250 400 m 0,94,95
 193.138895157 400 193.138895157 400 147.13671875 366.578125 c 0,96,97
 135.993487094 358.481768344 135.993487094 358.481768344 126.255859375 348.744140625 c 0,98,99
 74.974609375 297.462890625 74.974609375 297.462890625 74.974609375 224.975585938 c 128,-1,100
 74.974609375 152.537109375 74.974609375 152.537109375 126.255859375 101.255859375 c 128,-1,101
 177.517578125 49.994140625 177.517578125 49.994140625 249.830078125 49.994140625 c 0,102,103
 263.742450421 49.994140625 263.742450421 49.994140625 277.376953125 52.154296875 c 0,104,105
 333.53771536 61.04943411 333.53771536 61.04943411 373.744140625 101.255859375 c 0,106,107
 425.025390625 152.537109375 425.025390625 152.537109375 425.025390625 225.024414062 c 128,-1,108
 425.025390625 297.462890625 425.025390625 297.462890625 373.744140625 348.744140625 c 128,-1,109
 322.48828125 400 322.48828125 400 250 400 c 0,94,95
EndSplineSet
EndChar

StartChar: S
Encoding: 83 83 51
Width: 500
Flags: W
LayerCount: 2
Fore
SplineSet
250 450 m 0,0,1
 260 450 260 450 267.5 442.5 c 128,-1,2
 275 435 275 435 275 425 c 128,-1,3
 275 415 275 415 267.5 407.5 c 128,-1,4
 260 400 260 400 250 400 c 0,5,6
 178 400 178 400 126.5 348.5 c 128,-1,7
 75 297 75 297 75 225 c 128,-1,8
 75 153 75 153 126.5 101.5 c 128,-1,9
 178 50 178 50 250 50 c 128,-1,10
 322 50 322 50 373.5 101.5 c 128,-1,11
 425 153 425 153 425 225 c 0,12,13
 425 235 425 235 432.5 242.5 c 128,-1,14
 440 250 440 250 450 250 c 128,-1,15
 460 250 460 250 467.5 242.5 c 128,-1,16
 475 235 475 235 475 225 c 0,17,-1
 475 225.000976562 l 0,18,19
 475 224.384277344 475 224.384277344 474.970703125 223.7734375 c 2,20,-1
 474.96875 223.755859375 l 1,21,22
 474.455907295 131.037561462 474.455907295 131.037561462 408.619054958 65.5246384244 c 128,-1,23
 342.782202622 0.0117153868283 342.782202622 0.0117153868283 250 0 c 0,24,25
 157 0 157 0 91 66 c 128,-1,26
 25 132 25 132 25 225 c 0,27,28
 25.092945445 317.076002609 25.092945445 317.076002609 89.8164879247 382.682576554 c 128,-1,29
 154.540030404 448.289150498 154.540030404 448.289150498 246.4375 449.744140625 c 0,30,31
 248.21224711 450 248.21224711 450 250 450 c 0,0,1
EndSplineSet
EndChar

StartChar: T
Encoding: 84 84 52
Width: 500
Flags: W
LayerCount: 2
Fore
SplineSet
108.578125 391.421875 m 128,-1,1
 118.93359375 391.421875 118.93359375 391.421875 126.255859375 384.099609375 c 128,-1,2
 133.58203125 376.7734375 133.58203125 376.7734375 133.58203125 366.41796875 c 128,-1,3
 133.58203125 356.0703125 133.58203125 356.0703125 126.255859375 348.744140625 c 0,4,5
 74.974609375 297.462890625 74.974609375 297.462890625 74.974609375 224.975585938 c 128,-1,6
 74.974609375 152.537109375 74.974609375 152.537109375 126.255859375 101.255859375 c 128,-1,7
 177.537109375 49.974609375 177.537109375 49.974609375 250.024414062 49.974609375 c 128,-1,8
 322.462890625 49.974609375 322.462890625 49.974609375 373.744140625 101.255859375 c 128,-1,9
 425.025390625 152.537109375 425.025390625 152.537109375 425.025390625 225.024414062 c 128,-1,10
 425.025390625 297.462890625 425.025390625 297.462890625 373.744140625 348.744140625 c 0,11,12
 366.41796875 356.0703125 366.41796875 356.0703125 366.41796875 366.42578125 c 128,-1,13
 366.41796875 376.7734375 366.41796875 376.7734375 373.744140625 384.099609375 c 128,-1,14
 381.0703125 391.42578125 381.0703125 391.42578125 391.42578125 391.42578125 c 128,-1,15
 401.7734375 391.42578125 401.7734375 391.42578125 409.099609375 384.099609375 c 1,16,-1
 409.09765625 384.09765625 l 0,17,18
 409.534295214 383.662477617 409.534295214 383.662477617 409.9453125 383.2109375 c 2,19,-1
 409.955078125 383.1953125 l 1,20,21
 475.008789062 317.417957436 475.008789062 317.417957436 475.008789062 224.947265625 c 0,22,23
 475.008789062 131.828913403 475.008789062 131.828913403 409.09765625 65.900390625 c 128,-1,24
 343.166015625 -0.03125 343.166015625 -0.03125 249.967773438 -0.03125 c 128,-1,25
 156.83203125 -0.03125 156.83203125 -0.03125 90.900390625 65.900390625 c 128,-1,26
 25.1474609375 131.787648647 25.1474609375 131.787648647 25.1474609375 224.888671875 c 0,27,28
 25.1474609375 315.943096718 25.1474609375 315.943096718 88.5625 381.3984375 c 0,29,30
 89.6362951807 382.835513931 89.6362951807 382.835513931 90.900390625 384.099609375 c 0,31,0
 98.22265625 391.421875 98.22265625 391.421875 108.578125 391.421875 c 128,-1,1
EndSplineSet
EndChar

StartChar: U
Encoding: 85 85 53
Width: 500
Flags: W
LayerCount: 2
Fore
SplineSet
250 250 m 0,0,1
 260.35546875 250 260.35546875 250 267.677734375 242.677734375 c 2,2,-1
 409.099609375 101.255859375 l 1,3,4
 416.42578125 93.9296875 416.42578125 93.9296875 416.42578125 83.57421875 c 128,-1,5
 416.42578125 73.2265625 416.42578125 73.2265625 409.099609375 65.900390625 c 128,-1,6
 401.7734375 58.57421875 401.7734375 58.57421875 391.41796875 58.57421875 c 128,-1,7
 381.0703125 58.57421875 381.0703125 58.57421875 373.744140625 65.900390625 c 2,8,-1
 232.322265625 207.322265625 l 1,9,-1
 232.3671875 207.3671875 l 1,10,11
 225.03666216 214.6598045 225.03666216 214.6598045 225 225 c 0,12,13
 225 235 225 235 232.5 242.5 c 128,-1,14
 240 250 240 250 250 250 c 0,0,1
EndSplineSet
EndChar

StartChar: V
Encoding: 86 86 54
Width: 500
Flags: W
LayerCount: 2
Fore
SplineSet
233.94921875 449.427734375 m 0,0,1
 242.404418635 450.032226562 242.404418635 450.032226562 250.03125 450.032226562 c 0,2,3
 343.166992188 450.032226562 343.166992188 450.032226562 409.099609375 384.099609375 c 128,-1,4
 474.852539062 318.212351353 474.852539062 318.212351353 474.852539062 225.111328125 c 0,5,6
 474.852539062 134.056903282 474.852539062 134.056903282 411.4375 68.6015625 c 0,7,8
 410.363704819 67.1644860693 410.363704819 67.1644860693 409.099609375 65.900390625 c 0,9,10
 401.7734375 58.57421875 401.7734375 58.57421875 391.41796875 58.57421875 c 128,-1,11
 381.0703125 58.57421875 381.0703125 58.57421875 373.744140625 65.900390625 c 128,-1,12
 366.41796875 73.2265625 366.41796875 73.2265625 366.41796875 83.58203125 c 128,-1,13
 366.41796875 93.9296875 366.41796875 93.9296875 373.744140625 101.255859375 c 0,14,15
 425.025390625 152.537109375 425.025390625 152.537109375 425.025390625 225.024414062 c 128,-1,16
 425.025390625 297.462890625 425.025390625 297.462890625 373.744140625 348.744140625 c 128,-1,17
 322.462890625 400.025390625 322.462890625 400.025390625 249.975585938 400.025390625 c 128,-1,18
 177.537109375 400.025390625 177.537109375 400.025390625 126.255859375 348.744140625 c 128,-1,19
 74.974609375 297.462890625 74.974609375 297.462890625 74.974609375 224.975585938 c 128,-1,20
 74.974609375 152.537109375 74.974609375 152.537109375 126.255859375 101.255859375 c 0,21,22
 133.58203125 93.9296875 133.58203125 93.9296875 133.58203125 83.57421875 c 128,-1,23
 133.58203125 73.2265625 133.58203125 73.2265625 126.255859375 65.900390625 c 128,-1,24
 118.9296875 58.57421875 118.9296875 58.57421875 108.57421875 58.57421875 c 128,-1,25
 98.2265625 58.57421875 98.2265625 58.57421875 90.900390625 65.900390625 c 1,26,-1
 90.90234375 65.90234375 l 0,27,28
 90.4657047857 66.3375223833 90.4657047857 66.3375223833 90.0546875 66.7890625 c 2,29,-1
 90.044921875 66.8046875 l 1,30,31
 24.9912109375 132.582042564 24.9912109375 132.582042564 24.9912109375 225.052734375 c 0,32,33
 24.9912109375 318.171086597 24.9912109375 318.171086597 90.90234375 384.099609375 c 0,34,35
 150.242832829 443.440098454 150.242832829 443.440098454 233.94921875 449.427734375 c 0,0,1
104.66796875 391.11328125 m 0,36,37
 106.634460449 391.424804688 106.634460449 391.424804688 108.58203125 391.424804688 c 0,38,39
 118.929082971 391.424804688 118.929082971 391.424804688 126.255859375 384.099609375 c 2,40,-1
 409.099609375 101.255859375 l 1,41,42
 416.42578125 93.9296875 416.42578125 93.9296875 416.42578125 83.57421875 c 128,-1,43
 416.42578125 73.2265625 416.42578125 73.2265625 409.099609375 65.900390625 c 128,-1,44
 401.7734375 58.57421875 401.7734375 58.57421875 391.41796875 58.57421875 c 128,-1,45
 381.0703125 58.57421875 381.0703125 58.57421875 373.744140625 65.900390625 c 2,46,-1
 90.900390625 348.744140625 l 1,47,48
 83.57421875 356.0703125 83.57421875 356.0703125 83.57421875 366.42578125 c 128,-1,49
 83.57421875 376.7734375 83.57421875 376.7734375 90.900390625 384.099609375 c 0,50,51
 96.6460379679 389.843718392 96.6460379679 389.843718392 104.66796875 391.11328125 c 0,36,37
EndSplineSet
EndChar

StartChar: W
Encoding: 87 87 55
Width: 500
Flags: W
LayerCount: 2
Fore
SplineSet
50 250 m 128,-1,1
 60 250 60 250 67.5 242.5 c 128,-1,2
 75 235 75 235 75 225 c 0,3,4
 75 153 75 153 126.5 101.5 c 128,-1,5
 178 50 178 50 250 50 c 0,6,7
 263.771568943 50 263.771568943 50 277.376953125 52.154296875 c 0,8,9
 340.477975817 62.1489936009 340.477975817 62.1489936009 382.738987909 111.100699111 c 128,-1,10
 425 160.05240462 425 160.05240462 425 225 c 0,11,12
 425 235 425 235 432.5 242.5 c 128,-1,13
 440 250 440 250 450 250 c 0,14,15
 459.374241769 250 459.374241769 250 466.403149679 243.848558977 c 128,-1,16
 473.43205759 237.697117955 473.43205759 237.697117955 474.74609375 228.55859375 c 0,17,18
 474.883262136 226.833383128 474.883262136 226.833383128 475 225 c 0,19,20
 474.729467272 218.868889308 474.729467272 218.868889308 474.123046875 212.751953125 c 0,21,22
 473.805224842 202.454519266 473.805224842 202.454519266 472.548828125 192.240234375 c 0,23,24
 471.500868424 186.78260155 471.500868424 186.78260155 470.189453125 181.396484375 c 0,25,26
 468.390007521 171.058838031 468.390007521 171.058838031 465.638671875 160.94140625 c 0,27,28
 463.934342745 156.026596667 463.934342745 156.026596667 461.9921875 151.166015625 c 0,29,30
 458.661433774 140.882717713 458.661433774 140.882717713 454.361328125 130.96875 c 0,31,32
 451.996196052 126.393720528 451.996196052 126.393720528 449.421875 121.92578125 c 0,33,34
 444.640430872 112.159396138 444.640430872 112.159396138 438.94140625 102.90234375 c 0,35,36
 435.983115804 98.7578153574 435.983115804 98.7578153574 432.85546875 94.771484375 c 0,37,38
 426.705052427 85.7263264371 426.705052427 85.7263264371 419.69140625 77.3046875 c 0,39,40
 416.183972029 73.6343873455 416.183972029 73.6343873455 412.513671875 70.126953125 c 0,41,42
 405.136604757 62.0394047056 405.136604757 62.0394047056 397.01953125 54.71484375 c 0,43,44
 392.775676566 51.3760143955 392.775676566 51.3760143955 388.365234375 48.236328125 c 0,45,46
 380.156895885 41.4951735131 380.156895885 41.4951735131 371.35546875 35.560546875 c 0,47,48
 366.765477768 32.9124751546 366.765477768 32.9124751546 362.06640625 30.48828125 c 0,49,50
 352.895519723 24.9186668142 352.895519723 24.9186668142 343.220703125 20.240234375 c 0,51,52
 338.608870375 18.4025805194 338.608870375 18.4025805194 333.89453125 16.76171875 c 0,53,54
 323.756628645 12.4158449792 323.756628645 12.4158449792 313.216796875 9.076171875 c 0,55,56
 306.88160851 7.50422733457 306.88160851 7.50422733457 300.46875 6.302734375 c 0,57,58
 291.305462589 3.90670660267 291.305462589 3.90670660267 281.943359375 2.28515625 c 0,59,60
 266.050080565 0.00287018608098 266.050080565 0.00287018608098 250 0 c 0,61,62
 157.923997391 0.09294544504 157.923997391 0.09294544504 92.3174234462 64.8164879247 c 128,-1,63
 26.7108495016 129.540030404 26.7108495016 129.540030404 25.255859375 221.4375 c 0,64,65
 25 223.21224711 25 223.21224711 25 225 c 0,66,67
 25 235 25 235 32.5 242.5 c 128,-1,0
 40 250 40 250 50 250 c 128,-1,1
EndSplineSet
EndChar

StartChar: X
Encoding: 88 88 56
Width: 500
Flags: W
LayerCount: 2
Fore
SplineSet
250 450 m 0,0,1
 343 450 343 450 409 384 c 128,-1,2
 475 318 475 318 475 225 c 0,3,4
 474.907054555 132.923997391 474.907054555 132.923997391 410.183512075 67.3174234462 c 128,-1,5
 345.459969596 1.71084950164 345.459969596 1.71084950164 253.5625 0.255859375 c 0,6,7
 251.78775289 0 251.78775289 0 250 0 c 0,8,9
 240 0 240 0 232.5 7.5 c 128,-1,10
 225 15 225 15 225 25 c 128,-1,11
 225 35 225 35 232.5 42.5 c 128,-1,12
 240 50 240 50 250 50 c 0,13,14
 322 50 322 50 373.5 101.5 c 128,-1,15
 425 153 425 153 425 225 c 128,-1,16
 425 297 425 297 373.5 348.5 c 128,-1,17
 322 400 322 400 250 400 c 128,-1,18
 178 400 178 400 126.5 348.5 c 128,-1,19
 75 297 75 297 75 225 c 0,20,21
 75 215 75 215 67.5 207.5 c 128,-1,22
 60 200 60 200 50 200 c 128,-1,23
 40 200 40 200 32.5 207.5 c 128,-1,24
 25 215 25 215 25 225 c 0,25,-1
 25 224.999023438 l 0,26,27
 25 225.615722656 25 225.615722656 25.029296875 226.2265625 c 2,28,-1
 25.03125 226.244140625 l 1,29,30
 25.5440927051 318.962438538 25.5440927051 318.962438538 91.3809450415 384.475361576 c 128,-1,31
 157.217797378 449.988284613 157.217797378 449.988284613 250 450 c 0,0,1
104.66796875 391.11328125 m 0,32,33
 106.634460449 391.424804688 106.634460449 391.424804688 108.58203125 391.424804688 c 0,34,35
 118.929082971 391.424804688 118.929082971 391.424804688 126.255859375 384.099609375 c 2,36,-1
 409.099609375 101.255859375 l 1,37,38
 416.42578125 93.9296875 416.42578125 93.9296875 416.42578125 83.57421875 c 128,-1,39
 416.42578125 73.2265625 416.42578125 73.2265625 409.099609375 65.900390625 c 128,-1,40
 401.7734375 58.57421875 401.7734375 58.57421875 391.41796875 58.57421875 c 128,-1,41
 381.0703125 58.57421875 381.0703125 58.57421875 373.744140625 65.900390625 c 2,42,-1
 90.900390625 348.744140625 l 1,43,44
 83.57421875 356.0703125 83.57421875 356.0703125 83.57421875 366.42578125 c 128,-1,45
 83.57421875 376.7734375 83.57421875 376.7734375 90.900390625 384.099609375 c 0,46,47
 96.6460379679 389.843718392 96.6460379679 389.843718392 104.66796875 391.11328125 c 0,32,33
EndSplineSet
EndChar

StartChar: Y
Encoding: 89 89 57
Width: 500
Flags: W
LayerCount: 2
Fore
SplineSet
234.634765625 449.453125 m 0,0,1
 242.778139067 450.010742188 242.778139067 450.010742188 250.05078125 450.010742188 c 0,2,3
 343.170714288 450.010742188 343.170714288 450.010742188 409.099609375 384.09765625 c 128,-1,4
 475.03125 318.166015625 475.03125 318.166015625 475.03125 224.967773438 c 128,-1,5
 475.03125 131.83203125 475.03125 131.83203125 409.099609375 65.900390625 c 128,-1,6
 343.212351353 0.1474609375 343.212351353 0.1474609375 250.111328125 0.1474609375 c 0,7,8
 159.056903282 0.1474609375 159.056903282 0.1474609375 93.6015625 63.5625 c 0,9,10
 92.1644860693 64.6362951807 92.1644860693 64.6362951807 90.900390625 65.900390625 c 0,11,12
 83.57421875 73.2265625 83.57421875 73.2265625 83.57421875 83.58203125 c 128,-1,13
 83.57421875 93.9296875 83.57421875 93.9296875 90.900390625 101.255859375 c 128,-1,14
 98.2265625 108.58203125 98.2265625 108.58203125 108.58203125 108.58203125 c 128,-1,15
 118.9296875 108.58203125 118.9296875 108.58203125 126.255859375 101.255859375 c 0,16,17
 177.537109375 49.974609375 177.537109375 49.974609375 250.024414062 49.974609375 c 128,-1,18
 322.462890625 49.974609375 322.462890625 49.974609375 373.744140625 101.255859375 c 128,-1,19
 425.025390625 152.537109375 425.025390625 152.537109375 425.025390625 225.024414062 c 128,-1,20
 425.025390625 297.462890625 425.025390625 297.462890625 373.744140625 348.744140625 c 128,-1,21
 322.462890625 400.025390625 322.462890625 400.025390625 249.975585938 400.025390625 c 128,-1,22
 177.537109375 400.025390625 177.537109375 400.025390625 126.255859375 348.744140625 c 0,23,24
 118.9296875 341.41796875 118.9296875 341.41796875 108.57421875 341.41796875 c 128,-1,25
 98.2265625 341.41796875 98.2265625 341.41796875 90.900390625 348.744140625 c 128,-1,26
 83.57421875 356.0703125 83.57421875 356.0703125 83.57421875 366.42578125 c 128,-1,27
 83.57421875 376.7734375 83.57421875 376.7734375 90.900390625 384.099609375 c 1,28,-1
 90.90234375 384.09765625 l 0,29,30
 91.3375223833 384.534295214 91.3375223833 384.534295214 91.7890625 384.9453125 c 2,31,-1
 91.8046875 384.955078125 l 1,32,33
 151.23963867 443.736280718 151.23963867 443.736280718 234.634765625 449.453125 c 0,0,1
104.66796875 391.11328125 m 0,34,35
 106.634460449 391.424804688 106.634460449 391.424804688 108.58203125 391.424804688 c 0,36,37
 118.929082971 391.424804688 118.929082971 391.424804688 126.255859375 384.099609375 c 2,38,-1
 409.099609375 101.255859375 l 1,39,40
 416.42578125 93.9296875 416.42578125 93.9296875 416.42578125 83.57421875 c 128,-1,41
 416.42578125 73.2265625 416.42578125 73.2265625 409.099609375 65.900390625 c 128,-1,42
 401.7734375 58.57421875 401.7734375 58.57421875 391.41796875 58.57421875 c 128,-1,43
 381.0703125 58.57421875 381.0703125 58.57421875 373.744140625 65.900390625 c 2,44,-1
 90.900390625 348.744140625 l 1,45,46
 83.57421875 356.0703125 83.57421875 356.0703125 83.57421875 366.42578125 c 128,-1,47
 83.57421875 376.7734375 83.57421875 376.7734375 90.900390625 384.099609375 c 0,48,49
 96.6460379679 389.843718392 96.6460379679 389.843718392 104.66796875 391.11328125 c 0,34,35
250 350 m 128,-1,51
 302 350 302 350 338.5 313.5 c 128,-1,52
 375 277 375 277 375 225 c 128,-1,53
 375 173 375 173 338.5 136.5 c 128,-1,54
 302 100 302 100 250 100 c 128,-1,55
 198 100 198 100 161.5 136.5 c 128,-1,56
 125 173 125 173 125 225 c 128,-1,57
 125 277 125 277 161.5 313.5 c 128,-1,50
 198 350 198 350 250 350 c 128,-1,51
250 300 m 128,-1,59
 219 300 219 300 197 278 c 128,-1,60
 175 256 175 256 175 225 c 128,-1,61
 175 194 175 194 197 172 c 128,-1,62
 219 150 219 150 250 150 c 128,-1,63
 281 150 281 150 303 172 c 128,-1,64
 325 194 325 194 325 225 c 128,-1,65
 325 256 325 256 303 278 c 128,-1,58
 281 300 281 300 250 300 c 128,-1,59
EndSplineSet
EndChar

StartChar: Z
Encoding: 90 90 58
Width: 500
Flags: W
LayerCount: 2
Fore
SplineSet
250 450 m 0,0,1
 260 450 260 450 267.5 442.5 c 128,-1,2
 275 435 275 435 275 425 c 128,-1,3
 275 415 275 415 267.5 407.5 c 128,-1,4
 260 400 260 400 250 400 c 0,5,6
 178 400 178 400 126.5 348.5 c 128,-1,7
 75 297 75 297 75 225 c 128,-1,8
 75 153 75 153 126.5 101.5 c 128,-1,9
 178 50 178 50 250 50 c 128,-1,10
 322 50 322 50 373.5 101.5 c 128,-1,11
 425 153 425 153 425 225 c 0,12,13
 425 235 425 235 432.5 242.5 c 128,-1,14
 440 250 440 250 450 250 c 128,-1,15
 460 250 460 250 467.5 242.5 c 128,-1,16
 475 235 475 235 475 225 c 0,17,-1
 475 225.000976562 l 0,18,19
 475 224.384277344 475 224.384277344 474.970703125 223.7734375 c 2,20,-1
 474.96875 223.755859375 l 1,21,22
 474.455907295 131.037561462 474.455907295 131.037561462 408.619054958 65.5246384244 c 128,-1,23
 342.782202622 0.0117153868283 342.782202622 0.0117153868283 250 0 c 0,24,25
 157 0 157 0 91 66 c 128,-1,26
 25 132 25 132 25 225 c 0,27,28
 25.092945445 317.076002609 25.092945445 317.076002609 89.8164879247 382.682576554 c 128,-1,29
 154.540030404 448.289150498 154.540030404 448.289150498 246.4375 449.744140625 c 0,30,31
 248.21224711 450 248.21224711 450 250 450 c 0,0,1
104.66796875 391.11328125 m 0,32,33
 106.634460449 391.424804688 106.634460449 391.424804688 108.58203125 391.424804688 c 0,34,35
 118.929082971 391.424804688 118.929082971 391.424804688 126.255859375 384.099609375 c 2,36,-1
 409.099609375 101.255859375 l 1,37,38
 416.42578125 93.9296875 416.42578125 93.9296875 416.42578125 83.57421875 c 128,-1,39
 416.42578125 73.2265625 416.42578125 73.2265625 409.099609375 65.900390625 c 128,-1,40
 401.7734375 58.57421875 401.7734375 58.57421875 391.41796875 58.57421875 c 128,-1,41
 381.0703125 58.57421875 381.0703125 58.57421875 373.744140625 65.900390625 c 2,42,-1
 90.900390625 348.744140625 l 1,43,44
 83.57421875 356.0703125 83.57421875 356.0703125 83.57421875 366.42578125 c 128,-1,45
 83.57421875 376.7734375 83.57421875 376.7734375 90.900390625 384.099609375 c 0,46,47
 96.6460379679 389.843718392 96.6460379679 389.843718392 104.66796875 391.11328125 c 0,32,33
EndSplineSet
EndChar

StartChar: bracketleft
Encoding: 91 91 59
Width: 500
Flags: W
LayerCount: 2
Fore
SplineSet
250 550 m 0,0,1
 301.238592177 549.673127357 301.238592177 549.673127357 338.388671875 513.388671875 c 0,2,3
 345.710693359 506.066650391 345.710693359 506.066650391 345.710693359 495.7109375 c 128,-1,4
 345.710693359 485.355224609 345.710693359 485.355224609 338.388671875 478.033203125 c 128,-1,5
 331.066650391 470.711181641 331.066650391 470.711181641 320.7109375 470.711181641 c 128,-1,6
 310.355224609 470.711181641 310.355224609 470.711181641 303.033203125 478.033203125 c 1,7,-1
 302.83203125 477.83203125 l 1,8,9
 280.997208646 499.834255213 280.997208646 499.834255213 250 500 c 128,-1,10
 219 500 219 500 197 478 c 128,-1,11
 175 456 175 456 175 425 c 2,12,-1
 175 25 l 2,13,14
 175 -6 175 -6 197 -28 c 128,-1,15
 219 -50 219 -50 250 -50 c 128,-1,16
 280.997208646 -49.8342552133 280.997208646 -49.8342552133 302.83203125 -27.83203125 c 1,17,-1
 303.033203125 -28.033203125 l 1,18,19
 310.355224609 -20.7111816406 310.355224609 -20.7111816406 320.7109375 -20.7111816406 c 128,-1,20
 331.066650391 -20.7111816406 331.066650391 -20.7111816406 338.388671875 -28.033203125 c 128,-1,21
 345.710693359 -35.3552246094 345.710693359 -35.3552246094 345.710693359 -45.7109375 c 128,-1,22
 345.710693359 -56.0666503906 345.710693359 -56.0666503906 338.388671875 -63.388671875 c 0,23,24
 301.245595552 -99.6731825953 301.245595552 -99.6731825953 250 -100 c 0,25,26
 198.93259342 -100 198.93259342 -100 162.547007041 -64.25055354 c 128,-1,27
 126.161420663 -28.5011070799 126.161420663 -28.5011070799 125.12890625 22.443359375 c 0,28,29
 125 23.7060546875 125 23.7060546875 125 25 c 2,30,-1
 125 425 l 2,31,32
 125 426.295410156 125 426.295410156 125.12890625 427.556640625 c 0,33,34
 126.161420663 478.50110708 126.161420663 478.50110708 162.547007041 514.25055354 c 128,-1,35
 198.93259342 550 198.93259342 550 250 550 c 0,0,1
EndSplineSet
EndChar

StartChar: backslash
Encoding: 92 92 60
Width: 500
Flags: W
LayerCount: 2
Fore
SplineSet
104.66796875 391.11328125 m 0,0,1
 106.634460449 391.424804688 106.634460449 391.424804688 108.58203125 391.424804688 c 0,2,3
 118.929082971 391.424804688 118.929082971 391.424804688 126.255859375 384.099609375 c 2,4,-1
 409.099609375 101.255859375 l 1,5,6
 416.42578125 93.9296875 416.42578125 93.9296875 416.42578125 83.57421875 c 128,-1,7
 416.42578125 73.2265625 416.42578125 73.2265625 409.099609375 65.900390625 c 128,-1,8
 401.7734375 58.57421875 401.7734375 58.57421875 391.41796875 58.57421875 c 128,-1,9
 381.0703125 58.57421875 381.0703125 58.57421875 373.744140625 65.900390625 c 2,10,-1
 90.900390625 348.744140625 l 1,11,12
 83.57421875 356.0703125 83.57421875 356.0703125 83.57421875 366.42578125 c 128,-1,13
 83.57421875 376.7734375 83.57421875 376.7734375 90.900390625 384.099609375 c 0,14,15
 96.6460379679 389.843718392 96.6460379679 389.843718392 104.66796875 391.11328125 c 0,0,1
EndSplineSet
EndChar

StartChar: bracketright
Encoding: 93 93 61
Width: 500
Flags: W
LayerCount: 2
Fore
SplineSet
250 550 m 0,0,1
 301.06740658 550 301.06740658 550 337.452992959 514.25055354 c 128,-1,2
 373.838579337 478.50110708 373.838579337 478.50110708 374.87109375 427.556640625 c 0,3,4
 374.878976988 427.17123786 374.878976988 427.17123786 374.939488494 426.31718929 c 128,-1,5
 375 425.46314072 375 425.46314072 375 425 c 2,6,-1
 375 25 l 2,7,8
 375 24.536990282 375 24.536990282 374.93949115 23.6832251626 c 128,-1,9
 374.878982299 22.8294600431 374.878982299 22.8294600431 374.87109375 22.443359375 c 0,10,11
 373.838579337 -28.5011070799 373.838579337 -28.5011070799 337.452992959 -64.25055354 c 128,-1,12
 301.06740658 -100 301.06740658 -100 250 -100 c 0,13,14
 198.75689324 -99.6730985567 198.75689324 -99.6730985567 161.611328125 -63.388671875 c 0,15,16
 154.289306641 -56.0666503906 154.289306641 -56.0666503906 154.289306641 -45.7109375 c 128,-1,17
 154.289306641 -35.3552246094 154.289306641 -35.3552246094 161.611328125 -28.033203125 c 128,-1,18
 168.933349609 -20.7111816406 168.933349609 -20.7111816406 179.2890625 -20.7111816406 c 128,-1,19
 189.644775391 -20.7111816406 189.644775391 -20.7111816406 196.966796875 -28.033203125 c 1,20,-1
 197.16796875 -27.83203125 l 1,21,22
 219.002791354 -49.8342552133 219.002791354 -49.8342552133 250 -50 c 128,-1,23
 281 -50 281 -50 303 -28 c 128,-1,24
 325 -6 325 -6 325 25 c 2,25,-1
 325 425 l 2,26,27
 325 456 325 456 303 478 c 128,-1,28
 281 500 281 500 250 500 c 128,-1,29
 219.002791354 499.834255213 219.002791354 499.834255213 197.16796875 477.83203125 c 1,30,-1
 196.966796875 478.033203125 l 1,31,32
 189.644775391 470.711181641 189.644775391 470.711181641 179.2890625 470.711181641 c 128,-1,33
 168.933349609 470.711181641 168.933349609 470.711181641 161.611328125 478.033203125 c 128,-1,34
 154.289306641 485.355224609 154.289306641 485.355224609 154.289306641 495.7109375 c 128,-1,35
 154.289306641 506.066650391 154.289306641 506.066650391 161.611328125 513.388671875 c 0,36,37
 198.754404448 549.673182595 198.754404448 549.673182595 250 550 c 0,0,1
EndSplineSet
EndChar

StartChar: asciicircum
Encoding: 94 94 62
Width: 500
Flags: W
LayerCount: 2
Fore
SplineSet
250 450 m 128,-1,1
 260 450 260 450 267.5 442.5 c 128,-1,2
 275 435 275 435 275 425 c 128,-1,3
 275 415 275 415 267.5 407.5 c 128,-1,4
 260 400 260 400 250 400 c 128,-1,5
 240 400 240 400 232.5 407.5 c 128,-1,6
 225 415 225 415 225 425 c 128,-1,7
 225 435 225 435 232.5 442.5 c 128,-1,0
 240 450 240 450 250 450 c 128,-1,1
EndSplineSet
EndChar

StartChar: underscore
Encoding: 95 95 63
Width: 500
Flags: W
LayerCount: 2
Fore
SplineSet
250 50 m 128,-1,1
 260 50 260 50 267.5 42.5 c 128,-1,2
 275 35 275 35 275 25 c 128,-1,3
 275 15 275 15 267.5 7.5 c 128,-1,4
 260 0 260 0 250 0 c 128,-1,5
 240 0 240 0 232.5 7.5 c 128,-1,6
 225 15 225 15 225 25 c 128,-1,7
 225 35 225 35 232.5 42.5 c 128,-1,0
 240 50 240 50 250 50 c 128,-1,1
EndSplineSet
EndChar

StartChar: grave
Encoding: 96 96 64
Width: 500
Flags: W
LayerCount: 2
Fore
SplineSet
50 250 m 128,-1,1
 60 250 60 250 67.5 242.5 c 128,-1,2
 75 235 75 235 75 225 c 128,-1,3
 75 215 75 215 67.5 207.5 c 128,-1,4
 60 200 60 200 50 200 c 128,-1,5
 40 200 40 200 32.5 207.5 c 128,-1,6
 25 215 25 215 25 225 c 128,-1,7
 25 235 25 235 32.5 242.5 c 128,-1,0
 40 250 40 250 50 250 c 128,-1,1
EndSplineSet
EndChar

StartChar: a
Encoding: 97 97 65
Width: 500
Flags: W
LayerCount: 2
Fore
SplineSet
250 450 m 0,0,1
 342.076002609 449.907054555 342.076002609 449.907054555 407.682576554 385.183512075 c 128,-1,2
 473.289150498 320.459969596 473.289150498 320.459969596 474.744140625 228.5625 c 0,3,4
 475 226.78775289 475 226.78775289 475 225 c 0,5,6
 475 215 475 215 467.5 207.5 c 128,-1,7
 460 200 460 200 450 200 c 128,-1,8
 440 200 440 200 432.5 207.5 c 128,-1,9
 425 215 425 215 425 225 c 0,10,11
 425 297 425 297 373.5 348.5 c 128,-1,12
 322 400 322 400 250 400 c 0,13,14
 191.921893394 399.759378898 191.921893394 399.759378898 145.513671875 364.841796875 c 1,15,-1
 267.677734375 242.677734375 l 1,16,17
 275 235.35546875 275 235.35546875 275 225 c 0,18,19
 275 215 275 215 267.5 207.5 c 128,-1,20
 260 200 260 200 250 200 c 0,21,22
 239.6598045 200.03666216 239.6598045 200.03666216 232.3671875 207.3671875 c 1,23,-1
 232.322265625 207.322265625 l 1,24,-1
 110.15234375 329.4921875 l 1,25,26
 84.135574878 295.006719746 84.135574878 295.006719746 77.154296875 252.376953125 c 0,27,28
 75 238.771568943 75 238.771568943 75 225 c 0,29,30
 75 215 75 215 67.5 207.5 c 128,-1,31
 60 200 60 200 50 200 c 128,-1,32
 40 200 40 200 32.5 207.5 c 128,-1,33
 25 215 25 215 25 225 c 0,34,35
 25.2705327276 231.131110692 25.2705327276 231.131110692 25.876953125 237.248046875 c 0,36,37
 26.1947751577 247.545480734 26.1947751577 247.545480734 27.451171875 257.759765625 c 0,38,39
 28.4991315761 263.21739845 28.4991315761 263.21739845 29.810546875 268.603515625 c 0,40,41
 31.6099924792 278.941161969 31.6099924792 278.941161969 34.361328125 289.05859375 c 0,42,43
 36.0656572546 293.973403333 36.0656572546 293.973403333 38.0078125 298.833984375 c 0,44,45
 41.3385662262 309.117282287 41.3385662262 309.117282287 45.638671875 319.03125 c 0,46,47
 48.0038039482 323.606279472 48.0038039482 323.606279472 50.578125 328.07421875 c 0,48,49
 55.3595691275 337.840603862 55.3595691275 337.840603862 61.05859375 347.09765625 c 0,50,51
 64.0168841959 351.242184643 64.0168841959 351.242184643 67.14453125 355.228515625 c 0,52,53
 73.2949475727 364.273673563 73.2949475727 364.273673563 80.30859375 372.6953125 c 0,54,55
 83.8160279705 376.365612654 83.8160279705 376.365612654 87.486328125 379.873046875 c 0,56,57
 87.72265625 380.109375 87.72265625 380.109375 88.208984375 380.591796875 c 0,58,59
 89.3975077189 382.463429837 89.3975077189 382.463429837 90.900390625 384.099609375 c 0,60,61
 92.7318945128 385.869722071 92.7318945128 385.869722071 94.890625 387.23828125 c 0,62,63
 98.8395271426 391.37071776 98.8395271426 391.37071776 102.98046875 395.28515625 c 0,64,65
 107.224323434 398.623985604 107.224323434 398.623985604 111.634765625 401.763671875 c 0,66,67
 119.843104115 408.504826487 119.843104115 408.504826487 128.64453125 414.439453125 c 0,68,69
 133.234522232 417.087524845 133.234522232 417.087524845 137.93359375 419.51171875 c 0,70,71
 147.104480277 425.081333186 147.104480277 425.081333186 156.779296875 429.759765625 c 0,72,73
 161.391129625 431.597419481 161.391129625 431.597419481 166.10546875 433.23828125 c 0,74,75
 176.243371355 437.584155021 176.243371355 437.584155021 186.783203125 440.923828125 c 0,76,77
 193.11839149 442.495772665 193.11839149 442.495772665 199.53125 443.697265625 c 0,78,79
 208.694537411 446.093293397 208.694537411 446.093293397 218.056640625 447.71484375 c 0,80,81
 233.949919435 449.997129814 233.949919435 449.997129814 250 450 c 0,0,1
EndSplineSet
EndChar

StartChar: b
Encoding: 98 98 66
Width: 500
Flags: W
LayerCount: 2
Fore
SplineSet
264.0546875 449.390625 m 0,0,1
 346.8300979 444.149204604 346.8300979 444.149204604 406.3984375 386.4375 c 0,2,3
 407.835513931 385.363704819 407.835513931 385.363704819 409.099609375 384.099609375 c 0,4,5
 416.42578125 376.7734375 416.42578125 376.7734375 416.42578125 366.41796875 c 128,-1,6
 416.42578125 356.0703125 416.42578125 356.0703125 409.099609375 348.744140625 c 128,-1,7
 401.7734375 341.41796875 401.7734375 341.41796875 391.41796875 341.41796875 c 128,-1,8
 381.0703125 341.41796875 381.0703125 341.41796875 373.744140625 348.744140625 c 0,9,10
 322.462890625 400.025390625 322.462890625 400.025390625 249.975585938 400.025390625 c 128,-1,11
 177.537109375 400.025390625 177.537109375 400.025390625 126.255859375 348.744140625 c 128,-1,12
 74.974609375 297.462890625 74.974609375 297.462890625 74.974609375 224.975585938 c 128,-1,13
 74.974609375 152.537109375 74.974609375 152.537109375 126.255859375 101.255859375 c 128,-1,14
 177.537109375 49.974609375 177.537109375 49.974609375 250.024414062 49.974609375 c 128,-1,15
 322.462890625 49.974609375 322.462890625 49.974609375 373.744140625 101.255859375 c 0,16,17
 381.0703125 108.58203125 381.0703125 108.58203125 391.42578125 108.58203125 c 128,-1,18
 401.7734375 108.58203125 401.7734375 108.58203125 409.099609375 101.255859375 c 128,-1,19
 416.42578125 93.9296875 416.42578125 93.9296875 416.42578125 83.57421875 c 128,-1,20
 416.42578125 73.2265625 416.42578125 73.2265625 409.099609375 65.900390625 c 1,21,-1
 409.09765625 65.90234375 l 0,22,23
 408.662477617 65.4657047857 408.662477617 65.4657047857 408.2109375 65.0546875 c 2,24,-1
 408.1953125 65.044921875 l 1,25,26
 342.417957436 -0.0087890625 342.417957436 -0.0087890625 249.947265625 -0.0087890625 c 0,27,28
 156.828913403 -0.0087890625 156.828913403 -0.0087890625 90.900390625 65.90234375 c 128,-1,29
 24.96875 131.833984375 24.96875 131.833984375 24.96875 225.032226562 c 128,-1,30
 24.96875 318.16796875 24.96875 318.16796875 90.900390625 384.099609375 c 128,-1,31
 156.779215385 449.845703125 156.779215385 449.845703125 249.650390625 449.845703125 c 0,32,33
 256.872111398 449.845703125 256.872111398 449.845703125 264.0546875 449.390625 c 0,0,1
104.66796875 391.11328125 m 0,34,35
 106.634460449 391.424804688 106.634460449 391.424804688 108.58203125 391.424804688 c 0,36,37
 118.929082971 391.424804688 118.929082971 391.424804688 126.255859375 384.099609375 c 2,38,-1
 409.099609375 101.255859375 l 1,39,40
 416.42578125 93.9296875 416.42578125 93.9296875 416.42578125 83.57421875 c 128,-1,41
 416.42578125 73.2265625 416.42578125 73.2265625 409.099609375 65.900390625 c 128,-1,42
 401.7734375 58.57421875 401.7734375 58.57421875 391.41796875 58.57421875 c 128,-1,43
 381.0703125 58.57421875 381.0703125 58.57421875 373.744140625 65.900390625 c 2,44,-1
 90.900390625 348.744140625 l 1,45,46
 83.57421875 356.0703125 83.57421875 356.0703125 83.57421875 366.42578125 c 128,-1,47
 83.57421875 376.7734375 83.57421875 376.7734375 90.900390625 384.099609375 c 0,48,49
 96.6460379679 389.843718392 96.6460379679 389.843718392 104.66796875 391.11328125 c 0,34,35
EndSplineSet
EndChar

StartChar: c
Encoding: 99 99 67
Width: 500
Flags: W
LayerCount: 2
Fore
SplineSet
234.634765625 449.453125 m 0,0,1
 242.778139067 450.010742188 242.778139067 450.010742188 250.05078125 450.010742188 c 0,2,3
 343.170714288 450.010742188 343.170714288 450.010742188 409.099609375 384.09765625 c 128,-1,4
 475.03125 318.166015625 475.03125 318.166015625 475.03125 224.967773438 c 128,-1,5
 475.03125 131.83203125 475.03125 131.83203125 409.099609375 65.900390625 c 128,-1,6
 343.212351353 0.1474609375 343.212351353 0.1474609375 250.111328125 0.1474609375 c 0,7,8
 159.056903282 0.1474609375 159.056903282 0.1474609375 93.6015625 63.5625 c 0,9,10
 92.1644860693 64.6362951807 92.1644860693 64.6362951807 90.900390625 65.900390625 c 0,11,12
 83.57421875 73.2265625 83.57421875 73.2265625 83.57421875 83.58203125 c 128,-1,13
 83.57421875 93.9296875 83.57421875 93.9296875 90.900390625 101.255859375 c 128,-1,14
 98.2265625 108.58203125 98.2265625 108.58203125 108.58203125 108.58203125 c 128,-1,15
 118.9296875 108.58203125 118.9296875 108.58203125 126.255859375 101.255859375 c 0,16,17
 177.537109375 49.974609375 177.537109375 49.974609375 250.024414062 49.974609375 c 128,-1,18
 322.462890625 49.974609375 322.462890625 49.974609375 373.744140625 101.255859375 c 128,-1,19
 425.025390625 152.537109375 425.025390625 152.537109375 425.025390625 225.024414062 c 128,-1,20
 425.025390625 297.462890625 425.025390625 297.462890625 373.744140625 348.744140625 c 128,-1,21
 322.462890625 400.025390625 322.462890625 400.025390625 249.975585938 400.025390625 c 128,-1,22
 177.537109375 400.025390625 177.537109375 400.025390625 126.255859375 348.744140625 c 0,23,24
 118.9296875 341.41796875 118.9296875 341.41796875 108.57421875 341.41796875 c 128,-1,25
 98.2265625 341.41796875 98.2265625 341.41796875 90.900390625 348.744140625 c 128,-1,26
 83.57421875 356.0703125 83.57421875 356.0703125 83.57421875 366.42578125 c 128,-1,27
 83.57421875 376.7734375 83.57421875 376.7734375 90.900390625 384.099609375 c 1,28,-1
 90.90234375 384.09765625 l 0,29,30
 91.3375223833 384.534295214 91.3375223833 384.534295214 91.7890625 384.9453125 c 2,31,-1
 91.8046875 384.955078125 l 1,32,33
 151.23963867 443.736280718 151.23963867 443.736280718 234.634765625 449.453125 c 0,0,1
104.66796875 391.11328125 m 0,34,35
 106.634460449 391.424804688 106.634460449 391.424804688 108.58203125 391.424804688 c 0,36,37
 118.929082971 391.424804688 118.929082971 391.424804688 126.255859375 384.099609375 c 2,38,-1
 409.099609375 101.255859375 l 1,39,40
 416.42578125 93.9296875 416.42578125 93.9296875 416.42578125 83.57421875 c 128,-1,41
 416.42578125 73.2265625 416.42578125 73.2265625 409.099609375 65.900390625 c 128,-1,42
 401.7734375 58.57421875 401.7734375 58.57421875 391.41796875 58.57421875 c 128,-1,43
 381.0703125 58.57421875 381.0703125 58.57421875 373.744140625 65.900390625 c 2,44,-1
 90.900390625 348.744140625 l 1,45,46
 83.57421875 356.0703125 83.57421875 356.0703125 83.57421875 366.42578125 c 128,-1,47
 83.57421875 376.7734375 83.57421875 376.7734375 90.900390625 384.099609375 c 0,48,49
 96.6460379679 389.843718392 96.6460379679 389.843718392 104.66796875 391.11328125 c 0,34,35
EndSplineSet
EndChar

StartChar: d
Encoding: 100 100 68
Width: 500
Flags: W
LayerCount: 2
Fore
SplineSet
108.578125 391.421875 m 128,-1,1
 118.93359375 391.421875 118.93359375 391.421875 126.255859375 384.099609375 c 128,-1,2
 133.58203125 376.7734375 133.58203125 376.7734375 133.58203125 366.41796875 c 128,-1,3
 133.58203125 356.0703125 133.58203125 356.0703125 126.255859375 348.744140625 c 0,4,5
 74.974609375 297.462890625 74.974609375 297.462890625 74.974609375 224.975585938 c 128,-1,6
 74.974609375 152.537109375 74.974609375 152.537109375 126.255859375 101.255859375 c 128,-1,7
 177.537109375 49.974609375 177.537109375 49.974609375 250.024414062 49.974609375 c 128,-1,8
 322.462890625 49.974609375 322.462890625 49.974609375 373.744140625 101.255859375 c 128,-1,9
 425.025390625 152.537109375 425.025390625 152.537109375 425.025390625 225.024414062 c 128,-1,10
 425.025390625 297.462890625 425.025390625 297.462890625 373.744140625 348.744140625 c 0,11,12
 366.41796875 356.0703125 366.41796875 356.0703125 366.41796875 366.42578125 c 128,-1,13
 366.41796875 376.7734375 366.41796875 376.7734375 373.744140625 384.099609375 c 128,-1,14
 381.0703125 391.42578125 381.0703125 391.42578125 391.42578125 391.42578125 c 128,-1,15
 401.7734375 391.42578125 401.7734375 391.42578125 409.099609375 384.099609375 c 1,16,-1
 409.09765625 384.09765625 l 0,17,18
 409.534295214 383.662477617 409.534295214 383.662477617 409.9453125 383.2109375 c 2,19,-1
 409.955078125 383.1953125 l 1,20,21
 475.008789062 317.417957436 475.008789062 317.417957436 475.008789062 224.947265625 c 0,22,23
 475.008789062 131.828913403 475.008789062 131.828913403 409.09765625 65.900390625 c 128,-1,24
 343.166015625 -0.03125 343.166015625 -0.03125 249.967773438 -0.03125 c 128,-1,25
 156.83203125 -0.03125 156.83203125 -0.03125 90.900390625 65.900390625 c 128,-1,26
 25.1474609375 131.787648647 25.1474609375 131.787648647 25.1474609375 224.888671875 c 0,27,28
 25.1474609375 315.943096718 25.1474609375 315.943096718 88.5625 381.3984375 c 0,29,30
 89.6362951807 382.835513931 89.6362951807 382.835513931 90.900390625 384.099609375 c 0,31,0
 98.22265625 391.421875 98.22265625 391.421875 108.578125 391.421875 c 128,-1,1
104.66796875 391.11328125 m 0,32,33
 106.634460449 391.424804688 106.634460449 391.424804688 108.58203125 391.424804688 c 0,34,35
 118.929082971 391.424804688 118.929082971 391.424804688 126.255859375 384.099609375 c 2,36,-1
 409.099609375 101.255859375 l 1,37,38
 416.42578125 93.9296875 416.42578125 93.9296875 416.42578125 83.57421875 c 128,-1,39
 416.42578125 73.2265625 416.42578125 73.2265625 409.099609375 65.900390625 c 128,-1,40
 401.7734375 58.57421875 401.7734375 58.57421875 391.41796875 58.57421875 c 128,-1,41
 381.0703125 58.57421875 381.0703125 58.57421875 373.744140625 65.900390625 c 2,42,-1
 90.900390625 348.744140625 l 1,43,44
 83.57421875 356.0703125 83.57421875 356.0703125 83.57421875 366.42578125 c 128,-1,45
 83.57421875 376.7734375 83.57421875 376.7734375 90.900390625 384.099609375 c 0,46,47
 96.6460379679 389.843718392 96.6460379679 389.843718392 104.66796875 391.11328125 c 0,32,33
EndSplineSet
EndChar

StartChar: e
Encoding: 101 101 69
Width: 500
Flags: W
LayerCount: 2
Fore
SplineSet
106.794921875 391.357421875 m 0,0,1
 107.730624112 391.424804688 107.730624112 391.424804688 108.58203125 391.424804688 c 0,2,3
 118.929082971 391.424804688 118.929082971 391.424804688 126.255859375 384.099609375 c 2,4,-1
 267.677734375 242.677734375 l 1,5,6
 275 235.35546875 275 235.35546875 275 225 c 0,7,8
 275 215 275 215 267.5 207.5 c 128,-1,9
 260 200 260 200 250 200 c 0,10,11
 239.6598045 200.03666216 239.6598045 200.03666216 232.3671875 207.3671875 c 1,12,-1
 232.322265625 207.322265625 l 1,13,-1
 90.900390625 348.744140625 l 1,14,15
 83.57421875 356.0703125 83.57421875 356.0703125 83.57421875 366.42578125 c 128,-1,16
 83.57421875 376.7734375 83.57421875 376.7734375 90.900390625 384.099609375 c 0,17,18
 97.4938401442 390.693058894 97.4938401442 390.693058894 106.794921875 391.357421875 c 0,0,1
EndSplineSet
EndChar

StartChar: f
Encoding: 102 102 70
Width: 500
Flags: W
LayerCount: 2
Fore
SplineSet
233.94921875 449.427734375 m 0,0,1
 242.404418635 450.032226562 242.404418635 450.032226562 250.03125 450.032226562 c 0,2,3
 343.166992188 450.032226562 343.166992188 450.032226562 409.099609375 384.099609375 c 128,-1,4
 474.852539062 318.212351353 474.852539062 318.212351353 474.852539062 225.111328125 c 0,5,6
 474.852539062 134.056903282 474.852539062 134.056903282 411.4375 68.6015625 c 0,7,8
 410.363704819 67.1644860693 410.363704819 67.1644860693 409.099609375 65.900390625 c 0,9,10
 401.7734375 58.57421875 401.7734375 58.57421875 391.41796875 58.57421875 c 128,-1,11
 381.0703125 58.57421875 381.0703125 58.57421875 373.744140625 65.900390625 c 128,-1,12
 366.41796875 73.2265625 366.41796875 73.2265625 366.41796875 83.58203125 c 128,-1,13
 366.41796875 93.9296875 366.41796875 93.9296875 373.744140625 101.255859375 c 0,14,15
 425.025390625 152.537109375 425.025390625 152.537109375 425.025390625 225.024414062 c 128,-1,16
 425.025390625 297.462890625 425.025390625 297.462890625 373.744140625 348.744140625 c 128,-1,17
 322.462890625 400.025390625 322.462890625 400.025390625 249.975585938 400.025390625 c 128,-1,18
 177.537109375 400.025390625 177.537109375 400.025390625 126.255859375 348.744140625 c 128,-1,19
 74.974609375 297.462890625 74.974609375 297.462890625 74.974609375 224.975585938 c 128,-1,20
 74.974609375 152.537109375 74.974609375 152.537109375 126.255859375 101.255859375 c 0,21,22
 133.58203125 93.9296875 133.58203125 93.9296875 133.58203125 83.57421875 c 128,-1,23
 133.58203125 73.2265625 133.58203125 73.2265625 126.255859375 65.900390625 c 128,-1,24
 118.9296875 58.57421875 118.9296875 58.57421875 108.57421875 58.57421875 c 128,-1,25
 98.2265625 58.57421875 98.2265625 58.57421875 90.900390625 65.900390625 c 1,26,-1
 90.90234375 65.90234375 l 0,27,28
 90.4657047857 66.3375223833 90.4657047857 66.3375223833 90.0546875 66.7890625 c 2,29,-1
 90.044921875 66.8046875 l 1,30,31
 24.9912109375 132.582042564 24.9912109375 132.582042564 24.9912109375 225.052734375 c 0,32,33
 24.9912109375 318.171086597 24.9912109375 318.171086597 90.90234375 384.099609375 c 0,34,35
 150.242832829 443.440098454 150.242832829 443.440098454 233.94921875 449.427734375 c 0,0,1
EndSplineSet
EndChar

StartChar: g
Encoding: 103 103 71
Width: 500
Flags: W
LayerCount: 2
Fore
SplineSet
250 450 m 0,0,-1
 249.999023438 450 l 0,1,2
 250.615722656 450 250.615722656 450 251.2265625 449.970703125 c 2,3,-1
 251.244140625 449.96875 l 1,4,5
 343.962438538 449.455907295 343.962438538 449.455907295 409.475361576 383.619054958 c 128,-1,6
 474.988284613 317.782202622 474.988284613 317.782202622 475 225 c 0,7,8
 475 132 475 132 409 66 c 128,-1,9
 343 0 343 0 250 0 c 0,10,11
 157.923997391 0.09294544504 157.923997391 0.09294544504 92.3174234462 64.8164879247 c 128,-1,12
 26.7108495016 129.540030404 26.7108495016 129.540030404 25.255859375 221.4375 c 0,13,14
 25 223.21224711 25 223.21224711 25 225 c 0,15,16
 25 235 25 235 32.5 242.5 c 128,-1,17
 40 250 40 250 50 250 c 128,-1,18
 60 250 60 250 67.5 242.5 c 128,-1,19
 75 235 75 235 75 225 c 0,20,21
 75 153 75 153 126.5 101.5 c 128,-1,22
 178 50 178 50 250 50 c 128,-1,23
 322 50 322 50 373.5 101.5 c 128,-1,24
 425 153 425 153 425 225 c 128,-1,25
 425 297 425 297 373.5 348.5 c 128,-1,26
 322 400 322 400 250 400 c 0,27,28
 240 400 240 400 232.5 407.5 c 128,-1,29
 225 415 225 415 225 425 c 128,-1,30
 225 435 225 435 232.5 442.5 c 128,-1,31
 240 450 240 450 250 450 c 0,0,-1
104.66796875 391.11328125 m 0,32,33
 106.634460449 391.424804688 106.634460449 391.424804688 108.58203125 391.424804688 c 0,34,35
 118.929082971 391.424804688 118.929082971 391.424804688 126.255859375 384.099609375 c 2,36,-1
 409.099609375 101.255859375 l 1,37,38
 416.42578125 93.9296875 416.42578125 93.9296875 416.42578125 83.57421875 c 128,-1,39
 416.42578125 73.2265625 416.42578125 73.2265625 409.099609375 65.900390625 c 128,-1,40
 401.7734375 58.57421875 401.7734375 58.57421875 391.41796875 58.57421875 c 128,-1,41
 381.0703125 58.57421875 381.0703125 58.57421875 373.744140625 65.900390625 c 2,42,-1
 90.900390625 348.744140625 l 1,43,44
 83.57421875 356.0703125 83.57421875 356.0703125 83.57421875 366.42578125 c 128,-1,45
 83.57421875 376.7734375 83.57421875 376.7734375 90.900390625 384.099609375 c 0,46,47
 96.6460379679 389.843718392 96.6460379679 389.843718392 104.66796875 391.11328125 c 0,32,33
EndSplineSet
EndChar

StartChar: h
Encoding: 104 104 72
Width: 500
Flags: W
LayerCount: 2
Fore
SplineSet
250 450 m 0,0,1
 343 450 343 450 409 384 c 128,-1,2
 475 318 475 318 475 225 c 0,3,4
 474.907054555 132.923997391 474.907054555 132.923997391 410.183512075 67.3174234462 c 128,-1,5
 345.459969596 1.71084950164 345.459969596 1.71084950164 253.5625 0.255859375 c 0,6,7
 251.78775289 0 251.78775289 0 250 0 c 0,8,9
 240 0 240 0 232.5 7.5 c 128,-1,10
 225 15 225 15 225 25 c 128,-1,11
 225 35 225 35 232.5 42.5 c 128,-1,12
 240 50 240 50 250 50 c 0,13,14
 322 50 322 50 373.5 101.5 c 128,-1,15
 425 153 425 153 425 225 c 128,-1,16
 425 297 425 297 373.5 348.5 c 128,-1,17
 322 400 322 400 250 400 c 128,-1,18
 178 400 178 400 126.5 348.5 c 128,-1,19
 75 297 75 297 75 225 c 0,20,21
 75 215 75 215 67.5 207.5 c 128,-1,22
 60 200 60 200 50 200 c 128,-1,23
 40 200 40 200 32.5 207.5 c 128,-1,24
 25 215 25 215 25 225 c 0,25,-1
 25 224.999023438 l 0,26,27
 25 225.615722656 25 225.615722656 25.029296875 226.2265625 c 2,28,-1
 25.03125 226.244140625 l 1,29,30
 25.5440927051 318.962438538 25.5440927051 318.962438538 91.3809450415 384.475361576 c 128,-1,31
 157.217797378 449.988284613 157.217797378 449.988284613 250 450 c 0,0,1
EndSplineSet
EndChar

StartChar: i
Encoding: 105 105 73
Width: 500
Flags: W
LayerCount: 2
Fore
SplineSet
250 450 m 0,0,1
 342.076002609 449.907054555 342.076002609 449.907054555 407.682576554 385.183512075 c 128,-1,2
 473.289150498 320.459969596 473.289150498 320.459969596 474.744140625 228.5625 c 0,3,4
 475 226.78775289 475 226.78775289 475 225 c 0,5,6
 475 215 475 215 467.5 207.5 c 128,-1,7
 460 200 460 200 450 200 c 128,-1,8
 440 200 440 200 432.5 207.5 c 128,-1,9
 425 215 425 215 425 225 c 0,10,11
 425 297 425 297 373.5 348.5 c 128,-1,12
 322 400 322 400 250 400 c 0,13,14
 185.05240462 400 185.05240462 400 136.100699111 357.738987909 c 128,-1,15
 87.1489936009 315.477975817 87.1489936009 315.477975817 77.154296875 252.376953125 c 0,16,17
 75 238.771568943 75 238.771568943 75 225 c 0,18,19
 75 215 75 215 67.5 207.5 c 128,-1,20
 60 200 60 200 50 200 c 128,-1,21
 40 200 40 200 32.5 207.5 c 128,-1,22
 25 215 25 215 25 225 c 0,23,24
 25.2705327276 231.131110692 25.2705327276 231.131110692 25.876953125 237.248046875 c 0,25,26
 26.1947751577 247.545480734 26.1947751577 247.545480734 27.451171875 257.759765625 c 0,27,28
 28.4991315761 263.21739845 28.4991315761 263.21739845 29.810546875 268.603515625 c 0,29,30
 31.6099924792 278.941161969 31.6099924792 278.941161969 34.361328125 289.05859375 c 0,31,32
 36.0656572546 293.973403333 36.0656572546 293.973403333 38.0078125 298.833984375 c 0,33,34
 41.3385662262 309.117282287 41.3385662262 309.117282287 45.638671875 319.03125 c 0,35,36
 48.0038039482 323.606279472 48.0038039482 323.606279472 50.578125 328.07421875 c 0,37,38
 55.3595691275 337.840603862 55.3595691275 337.840603862 61.05859375 347.09765625 c 0,39,40
 64.0168841959 351.242184643 64.0168841959 351.242184643 67.14453125 355.228515625 c 0,41,42
 73.2949475727 364.273673563 73.2949475727 364.273673563 80.30859375 372.6953125 c 0,43,44
 83.8160279705 376.365612654 83.8160279705 376.365612654 87.486328125 379.873046875 c 0,45,46
 94.8633952431 387.960595294 94.8633952431 387.960595294 102.98046875 395.28515625 c 0,47,48
 107.224323434 398.623985604 107.224323434 398.623985604 111.634765625 401.763671875 c 0,49,50
 119.843104115 408.504826487 119.843104115 408.504826487 128.64453125 414.439453125 c 0,51,52
 133.234522232 417.087524845 133.234522232 417.087524845 137.93359375 419.51171875 c 0,53,54
 147.104480277 425.081333186 147.104480277 425.081333186 156.779296875 429.759765625 c 0,55,56
 161.391129625 431.597419481 161.391129625 431.597419481 166.10546875 433.23828125 c 0,57,58
 176.243371355 437.584155021 176.243371355 437.584155021 186.783203125 440.923828125 c 0,59,60
 193.11839149 442.495772665 193.11839149 442.495772665 199.53125 443.697265625 c 0,61,62
 208.694537411 446.093293397 208.694537411 446.093293397 218.056640625 447.71484375 c 0,63,64
 233.949919435 449.997129814 233.949919435 449.997129814 250 450 c 0,0,1
EndSplineSet
EndChar

StartChar: j
Encoding: 106 106 74
Width: 500
Flags: W
LayerCount: 2
Fore
SplineSet
250 450 m 0,0,1
 260 450 260 450 267.5 442.5 c 128,-1,2
 275 435 275 435 275 425 c 128,-1,3
 275 415 275 415 267.5 407.5 c 128,-1,4
 260 400 260 400 250 400 c 0,5,6
 178 400 178 400 126.5 348.5 c 128,-1,7
 75 297 75 297 75 225 c 128,-1,8
 75 153 75 153 126.5 101.5 c 128,-1,9
 178 50 178 50 250 50 c 128,-1,10
 322 50 322 50 373.5 101.5 c 128,-1,11
 425 153 425 153 425 225 c 0,12,13
 425 235 425 235 432.5 242.5 c 128,-1,14
 440 250 440 250 450 250 c 128,-1,15
 460 250 460 250 467.5 242.5 c 128,-1,16
 475 235 475 235 475 225 c 0,17,-1
 475 225.000976562 l 0,18,19
 475 224.384277344 475 224.384277344 474.970703125 223.7734375 c 2,20,-1
 474.96875 223.755859375 l 1,21,22
 474.455907295 131.037561462 474.455907295 131.037561462 408.619054958 65.5246384244 c 128,-1,23
 342.782202622 0.0117153868283 342.782202622 0.0117153868283 250 0 c 0,24,25
 157 0 157 0 91 66 c 128,-1,26
 25 132 25 132 25 225 c 0,27,28
 25.092945445 317.076002609 25.092945445 317.076002609 89.8164879247 382.682576554 c 128,-1,29
 154.540030404 448.289150498 154.540030404 448.289150498 246.4375 449.744140625 c 0,30,31
 248.21224711 450 248.21224711 450 250 450 c 0,0,1
104.66796875 391.11328125 m 0,32,33
 106.634460449 391.424804688 106.634460449 391.424804688 108.58203125 391.424804688 c 0,34,35
 118.929082971 391.424804688 118.929082971 391.424804688 126.255859375 384.099609375 c 2,36,-1
 409.099609375 101.255859375 l 1,37,38
 416.42578125 93.9296875 416.42578125 93.9296875 416.42578125 83.57421875 c 128,-1,39
 416.42578125 73.2265625 416.42578125 73.2265625 409.099609375 65.900390625 c 128,-1,40
 401.7734375 58.57421875 401.7734375 58.57421875 391.41796875 58.57421875 c 128,-1,41
 381.0703125 58.57421875 381.0703125 58.57421875 373.744140625 65.900390625 c 2,42,-1
 90.900390625 348.744140625 l 1,43,44
 83.57421875 356.0703125 83.57421875 356.0703125 83.57421875 366.42578125 c 128,-1,45
 83.57421875 376.7734375 83.57421875 376.7734375 90.900390625 384.099609375 c 0,46,47
 96.6460379679 389.843718392 96.6460379679 389.843718392 104.66796875 391.11328125 c 0,32,33
250 350 m 128,-1,49
 302 350 302 350 338.5 313.5 c 128,-1,50
 375 277 375 277 375 225 c 128,-1,51
 375 173 375 173 338.5 136.5 c 128,-1,52
 302 100 302 100 250 100 c 128,-1,53
 198 100 198 100 161.5 136.5 c 128,-1,54
 125 173 125 173 125 225 c 128,-1,55
 125 277 125 277 161.5 313.5 c 128,-1,48
 198 350 198 350 250 350 c 128,-1,49
250 300 m 128,-1,57
 219 300 219 300 197 278 c 128,-1,58
 175 256 175 256 175 225 c 128,-1,59
 175 194 175 194 197 172 c 128,-1,60
 219 150 219 150 250 150 c 128,-1,61
 281 150 281 150 303 172 c 128,-1,62
 325 194 325 194 325 225 c 128,-1,63
 325 256 325 256 303 278 c 128,-1,56
 281 300 281 300 250 300 c 128,-1,57
EndSplineSet
EndChar

StartChar: k
Encoding: 107 107 75
Width: 500
Flags: W
LayerCount: 2
Fore
SplineSet
250 450 m 0,0,-1
 249.999023438 450 l 0,1,2
 250.615722656 450 250.615722656 450 251.2265625 449.970703125 c 2,3,-1
 251.244140625 449.96875 l 1,4,5
 343.962438538 449.455907295 343.962438538 449.455907295 409.475361576 383.619054958 c 128,-1,6
 474.988284613 317.782202622 474.988284613 317.782202622 475 225 c 0,7,8
 475 132 475 132 409 66 c 128,-1,9
 343 0 343 0 250 0 c 0,10,11
 157.923997391 0.09294544504 157.923997391 0.09294544504 92.3174234462 64.8164879247 c 128,-1,12
 26.7108495016 129.540030404 26.7108495016 129.540030404 25.255859375 221.4375 c 0,13,14
 25 223.21224711 25 223.21224711 25 225 c 0,15,16
 25 235 25 235 32.5 242.5 c 128,-1,17
 40 250 40 250 50 250 c 128,-1,18
 60 250 60 250 67.5 242.5 c 128,-1,19
 75 235 75 235 75 225 c 0,20,21
 75 153 75 153 126.5 101.5 c 128,-1,22
 178 50 178 50 250 50 c 128,-1,23
 322 50 322 50 373.5 101.5 c 128,-1,24
 425 153 425 153 425 225 c 128,-1,25
 425 297 425 297 373.5 348.5 c 128,-1,26
 322 400 322 400 250 400 c 0,27,28
 240 400 240 400 232.5 407.5 c 128,-1,29
 225 415 225 415 225 425 c 128,-1,30
 225 435 225 435 232.5 442.5 c 128,-1,31
 240 450 240 450 250 450 c 0,0,-1
EndSplineSet
EndChar

StartChar: l
Encoding: 108 108 76
Width: 500
Flags: W
LayerCount: 2
Fore
SplineSet
234.634765625 449.453125 m 0,0,1
 241.321876469 449.845703125 241.321876469 449.845703125 247.635742188 449.845703125 c 0,2,3
 254.959279186 449.845703125 254.959279186 449.845703125 262.255859375 449.376953125 c 0,4,-1
 262.512695312 449.376953125 l 0,5,6
 263.354003906 449.376953125 263.354003906 449.376953125 264.193359375 449.37109375 c 0,7,8
 279.674450873 448.363002436 279.674450873 448.363002436 294.861328125 445.2421875 c 2,9,-1
 294.861328125 445.2421875 l 0,10,-1
 295.583984375 445.13671875 l 1,11,12
 359.508091582 431.863904584 359.508091582 431.863904584 406.3984375 386.4375 c 0,13,14
 406.991315938 385.954030551 406.991315938 385.954030551 407.53515625 385.453125 c 0,15,16
 408.345196719 384.808873783 408.345196719 384.808873783 409.099609375 384.099609375 c 2,17,-1
 409.099609375 384.09765625 l 1,18,-1
 409.1171875 384.078125 l 1,19,20
 475.030273438 318.149229913 475.030273438 318.149229913 475.030273438 224.966796875 c 128,-1,21
 475.030273438 131.832635607 475.030273438 131.832635607 409.099609375 65.900390625 c 1,22,-1
 409.056640625 65.86328125 l 0,23,24
 408.651150414 65.4563632563 408.651150414 65.4563632563 408.2109375 65.0546875 c 2,25,-1
 408.1953125 65.044921875 l 0,26,27
 404.161201789 61.4142222351 404.161201789 61.4142222351 399.958984375 57.984375 c 0,28,29
 392.51302165 50.9905667207 392.51302165 50.9905667207 384.482421875 44.712890625 c 0,30,31
 377.219443645 39.6160637971 377.219443645 39.6160637971 369.57421875 35.10546875 c 0,32,33
 363.834354051 31.2017750541 363.834354051 31.2017750541 357.861328125 27.65625 c 0,34,35
 347.926770596 22.4730668889 347.926770596 22.4730668889 337.53515625 18.3046875 c 0,36,37
 333.345830993 16.3083623689 333.345830993 16.3083623689 329.099609375 14.49609375 c 0,38,39
 317.072792236 10.1504315946 317.072792236 10.1504315946 304.6328125 7.1953125 c 0,40,41
 301.698067889 6.30225857015 301.698067889 6.30225857015 298.765625 5.49609375 c 0,42,43
 284.973985187 2.53936338841 284.973985187 2.53936338841 270.921875 1.328125 c 0,44,45
 269.213245948 1.07380382369 269.213245948 1.07380382369 267.48046875 0.84375 c 0,46,47
 259.157786271 0.23046875 259.157786271 0.23046875 251.126953125 0.23046875 c 0,48,49
 244.435679041 0.23046875 244.435679041 0.23046875 237.744140625 0.623046875 c 0,50,-1
 237.487304688 0.623046875 l 0,51,52
 236.645996094 0.623046875 236.645996094 0.623046875 235.806640625 0.62890625 c 0,53,54
 220.325549127 1.63699756371 220.325549127 1.63699756371 205.138671875 4.7578125 c 2,55,-1
 205.138671875 4.7578125 l 0,56,-1
 204.416015625 4.86328125 l 1,57,58
 140.491908418 18.136095416 140.491908418 18.136095416 93.6015625 63.5625 c 0,59,60
 93.0086840623 64.0459694492 93.0086840623 64.0459694492 92.46484375 64.546875 c 0,61,62
 91.6548032806 65.1911262172 91.6548032806 65.1911262172 90.900390625 65.900390625 c 2,63,-1
 90.900390625 65.90234375 l 1,64,-1
 90.89453125 65.908203125 l 1,65,66
 24.96875 131.838727123 24.96875 131.838727123 24.96875 225.032226562 c 128,-1,67
 24.96875 318.16796875 24.96875 318.16796875 90.900390625 384.099609375 c 1,68,-1
 90.943359375 384.13671875 l 0,69,70
 91.3488495862 384.543636744 91.3488495862 384.543636744 91.7890625 384.9453125 c 2,71,-1
 91.8046875 384.955078125 l 0,72,73
 95.838798211 388.585777765 95.838798211 388.585777765 100.041015625 392.015625 c 0,74,75
 107.48697835 399.009433279 107.48697835 399.009433279 115.517578125 405.287109375 c 0,76,77
 122.780556355 410.383936203 122.780556355 410.383936203 130.42578125 414.89453125 c 0,78,79
 136.165645949 418.798224946 136.165645949 418.798224946 142.138671875 422.34375 c 0,80,81
 152.073229404 427.526933111 152.073229404 427.526933111 162.46484375 431.6953125 c 0,82,83
 166.654169007 433.691637631 166.654169007 433.691637631 170.900390625 435.50390625 c 0,84,85
 182.927207764 439.849568405 182.927207764 439.849568405 195.3671875 442.8046875 c 0,86,87
 198.301932111 443.69774143 198.301932111 443.69774143 201.234375 444.50390625 c 0,88,89
 215.026014813 447.460636612 215.026014813 447.460636612 229.078125 448.671875 c 0,90,91
 230.786754052 448.926196176 230.786754052 448.926196176 232.51953125 449.15625 c 0,92,93
 233.615404946 449.314763024 233.615404946 449.314763024 234.634765625 449.453125 c 0,0,1
250 400 m 0,94,95
 193.138895157 400 193.138895157 400 147.13671875 366.578125 c 0,96,97
 135.993487094 358.481768344 135.993487094 358.481768344 126.255859375 348.744140625 c 0,98,99
 74.974609375 297.462890625 74.974609375 297.462890625 74.974609375 224.975585938 c 128,-1,100
 74.974609375 152.537109375 74.974609375 152.537109375 126.255859375 101.255859375 c 128,-1,101
 177.517578125 49.994140625 177.517578125 49.994140625 249.830078125 49.994140625 c 0,102,103
 263.742450421 49.994140625 263.742450421 49.994140625 277.376953125 52.154296875 c 0,104,105
 333.53771536 61.04943411 333.53771536 61.04943411 373.744140625 101.255859375 c 0,106,107
 425.025390625 152.537109375 425.025390625 152.537109375 425.025390625 225.024414062 c 128,-1,108
 425.025390625 297.462890625 425.025390625 297.462890625 373.744140625 348.744140625 c 128,-1,109
 322.48828125 400 322.48828125 400 250 400 c 0,94,95
104.66796875 391.11328125 m 0,110,111
 106.634460449 391.424804688 106.634460449 391.424804688 108.58203125 391.424804688 c 0,112,113
 118.929082971 391.424804688 118.929082971 391.424804688 126.255859375 384.099609375 c 2,114,-1
 409.099609375 101.255859375 l 1,115,116
 416.42578125 93.9296875 416.42578125 93.9296875 416.42578125 83.57421875 c 128,-1,117
 416.42578125 73.2265625 416.42578125 73.2265625 409.099609375 65.900390625 c 128,-1,118
 401.7734375 58.57421875 401.7734375 58.57421875 391.41796875 58.57421875 c 128,-1,119
 381.0703125 58.57421875 381.0703125 58.57421875 373.744140625 65.900390625 c 2,120,-1
 90.900390625 348.744140625 l 1,121,122
 83.57421875 356.0703125 83.57421875 356.0703125 83.57421875 366.42578125 c 128,-1,123
 83.57421875 376.7734375 83.57421875 376.7734375 90.900390625 384.099609375 c 0,124,125
 96.6460379679 389.843718392 96.6460379679 389.843718392 104.66796875 391.11328125 c 0,110,111
EndSplineSet
EndChar

StartChar: m
Encoding: 109 109 77
Width: 500
Flags: W
LayerCount: 2
Fore
SplineSet
250 450 m 0,0,1
 342.076002609 449.907054555 342.076002609 449.907054555 407.682576554 385.183512075 c 128,-1,2
 473.289150498 320.459969596 473.289150498 320.459969596 474.744140625 228.5625 c 0,3,4
 475 226.78775289 475 226.78775289 475 225 c 0,5,6
 475 215 475 215 467.5 207.5 c 128,-1,7
 460 200 460 200 450 200 c 128,-1,8
 440 200 440 200 432.5 207.5 c 128,-1,9
 425 215 425 215 425 225 c 0,10,11
 425 297 425 297 373.5 348.5 c 128,-1,12
 322 400 322 400 250 400 c 128,-1,13
 178 400 178 400 126.5 348.5 c 128,-1,14
 75 297 75 297 75 225 c 128,-1,15
 75 153 75 153 126.5 101.5 c 128,-1,16
 178 50 178 50 250 50 c 0,17,18
 260 50 260 50 267.5 42.5 c 128,-1,19
 275 35 275 35 275 25 c 128,-1,20
 275 15 275 15 267.5 7.5 c 128,-1,21
 260 0 260 0 250 0 c 0,22,-1
 250.000976562 -0 l 0,23,24
 249.384277344 0 249.384277344 0 248.7734375 0.029296875 c 2,25,-1
 248.755859375 0.03125 l 1,26,27
 156.037561462 0.544092705062 156.037561462 0.544092705062 90.5246384244 66.3809450415 c 128,-1,28
 25.0117153868 132.217797378 25.0117153868 132.217797378 25 225 c 0,29,30
 25 318 25 318 91 384 c 128,-1,31
 157 450 157 450 250 450 c 0,0,1
EndSplineSet
EndChar

StartChar: n
Encoding: 110 110 78
Width: 500
Flags: W
LayerCount: 2
Fore
SplineSet
250 450 m 0,0,1
 342.076002609 449.907054555 342.076002609 449.907054555 407.682576554 385.183512075 c 128,-1,2
 473.289150498 320.459969596 473.289150498 320.459969596 474.744140625 228.5625 c 0,3,4
 475 226.78775289 475 226.78775289 475 225 c 0,5,6
 475 215 475 215 467.5 207.5 c 128,-1,7
 460 200 460 200 450 200 c 128,-1,8
 440 200 440 200 432.5 207.5 c 128,-1,9
 425 215 425 215 425 225 c 0,10,11
 425 297 425 297 373.5 348.5 c 128,-1,12
 322 400 322 400 250 400 c 128,-1,13
 178 400 178 400 126.5 348.5 c 128,-1,14
 75 297 75 297 75 225 c 128,-1,15
 75 153 75 153 126.5 101.5 c 128,-1,16
 178 50 178 50 250 50 c 0,17,18
 260 50 260 50 267.5 42.5 c 128,-1,19
 275 35 275 35 275 25 c 128,-1,20
 275 15 275 15 267.5 7.5 c 128,-1,21
 260 0 260 0 250 0 c 0,22,-1
 250.000976562 -0 l 0,23,24
 249.384277344 0 249.384277344 0 248.7734375 0.029296875 c 2,25,-1
 248.755859375 0.03125 l 1,26,27
 156.037561462 0.544092705062 156.037561462 0.544092705062 90.5246384244 66.3809450415 c 128,-1,28
 25.0117153868 132.217797378 25.0117153868 132.217797378 25 225 c 0,29,30
 25 318 25 318 91 384 c 128,-1,31
 157 450 157 450 250 450 c 0,0,1
104.66796875 391.11328125 m 0,32,33
 106.634460449 391.424804688 106.634460449 391.424804688 108.58203125 391.424804688 c 0,34,35
 118.929082971 391.424804688 118.929082971 391.424804688 126.255859375 384.099609375 c 2,36,-1
 409.099609375 101.255859375 l 1,37,38
 416.42578125 93.9296875 416.42578125 93.9296875 416.42578125 83.57421875 c 128,-1,39
 416.42578125 73.2265625 416.42578125 73.2265625 409.099609375 65.900390625 c 128,-1,40
 401.7734375 58.57421875 401.7734375 58.57421875 391.41796875 58.57421875 c 128,-1,41
 381.0703125 58.57421875 381.0703125 58.57421875 373.744140625 65.900390625 c 2,42,-1
 90.900390625 348.744140625 l 1,43,44
 83.57421875 356.0703125 83.57421875 356.0703125 83.57421875 366.42578125 c 128,-1,45
 83.57421875 376.7734375 83.57421875 376.7734375 90.900390625 384.099609375 c 0,46,47
 96.6460379679 389.843718392 96.6460379679 389.843718392 104.66796875 391.11328125 c 0,32,33
EndSplineSet
EndChar

StartChar: o
Encoding: 111 111 79
Width: 500
Flags: W
LayerCount: 2
Fore
SplineSet
50 250 m 128,-1,1
 60 250 60 250 67.5 242.5 c 128,-1,2
 75 235 75 235 75 225 c 0,3,4
 75 153 75 153 126.5 101.5 c 128,-1,5
 178 50 178 50 250 50 c 0,6,7
 263.771568943 50 263.771568943 50 277.376953125 52.154296875 c 0,8,9
 320.129321937 58.9277301794 320.129321937 58.9277301794 354.794921875 84.849609375 c 1,10,-1
 232.322265625 207.322265625 l 1,11,-1
 232.3671875 207.3671875 l 1,12,13
 225.03666216 214.6598045 225.03666216 214.6598045 225 225 c 0,14,15
 225 235 225 235 232.5 242.5 c 128,-1,16
 240 250 240 250 250 250 c 0,17,18
 260.35546875 250 260.35546875 250 267.677734375 242.677734375 c 2,19,-1
 390.123046875 120.232421875 l 1,20,21
 424.976817944 166.817386194 424.976817944 166.817386194 425 225 c 0,22,23
 425 235 425 235 432.5 242.5 c 128,-1,24
 440 250 440 250 450 250 c 0,25,26
 459.374241769 250 459.374241769 250 466.403149679 243.848558977 c 128,-1,27
 473.43205759 237.697117955 473.43205759 237.697117955 474.74609375 228.55859375 c 0,28,29
 474.883262136 226.833383128 474.883262136 226.833383128 475 225 c 0,30,31
 474.729467272 218.868889308 474.729467272 218.868889308 474.123046875 212.751953125 c 0,32,33
 473.805224842 202.454519266 473.805224842 202.454519266 472.548828125 192.240234375 c 0,34,35
 471.500868424 186.78260155 471.500868424 186.78260155 470.189453125 181.396484375 c 0,36,37
 468.390007521 171.058838031 468.390007521 171.058838031 465.638671875 160.94140625 c 0,38,39
 463.934342745 156.026596667 463.934342745 156.026596667 461.9921875 151.166015625 c 0,40,41
 458.661433774 140.882717713 458.661433774 140.882717713 454.361328125 130.96875 c 0,42,43
 451.996196052 126.393720528 451.996196052 126.393720528 449.421875 121.92578125 c 0,44,45
 444.640430872 112.159396138 444.640430872 112.159396138 438.94140625 102.90234375 c 0,46,47
 435.983115804 98.7578153574 435.983115804 98.7578153574 432.85546875 94.771484375 c 0,48,49
 426.705052427 85.7263264371 426.705052427 85.7263264371 419.69140625 77.3046875 c 0,50,51
 416.183972029 73.6343873455 416.183972029 73.6343873455 412.513671875 70.126953125 c 0,52,-1
 412.408203125 70.0234375 l 0,53,54
 410.974678401 67.7886540386 410.974678401 67.7886540386 409.099609375 65.900390625 c 0,55,56
 407.401027796 64.3293125815 407.401027796 64.3293125815 405.447265625 63.09765625 c 0,57,58
 401.356915411 58.807210917 401.356915411 58.807210917 397.01953125 54.71484375 c 0,59,60
 392.775676566 51.3760143955 392.775676566 51.3760143955 388.365234375 48.236328125 c 0,61,62
 380.156895885 41.4951735131 380.156895885 41.4951735131 371.35546875 35.560546875 c 0,63,64
 366.765477768 32.9124751546 366.765477768 32.9124751546 362.06640625 30.48828125 c 0,65,66
 352.895519723 24.9186668142 352.895519723 24.9186668142 343.220703125 20.240234375 c 0,67,68
 338.608870375 18.4025805194 338.608870375 18.4025805194 333.89453125 16.76171875 c 0,69,70
 323.756628645 12.4158449792 323.756628645 12.4158449792 313.216796875 9.076171875 c 0,71,72
 306.88160851 7.50422733457 306.88160851 7.50422733457 300.46875 6.302734375 c 0,73,74
 291.305462589 3.90670660267 291.305462589 3.90670660267 281.943359375 2.28515625 c 0,75,76
 266.050080565 0.00287018608098 266.050080565 0.00287018608098 250 0 c 0,77,78
 157.923997391 0.09294544504 157.923997391 0.09294544504 92.3174234462 64.8164879247 c 128,-1,79
 26.7108495016 129.540030404 26.7108495016 129.540030404 25.255859375 221.4375 c 0,80,81
 25 223.21224711 25 223.21224711 25 225 c 0,82,83
 25 235 25 235 32.5 242.5 c 128,-1,0
 40 250 40 250 50 250 c 128,-1,1
EndSplineSet
EndChar

StartChar: p
Encoding: 112 112 80
Width: 500
Flags: W
LayerCount: 2
Fore
SplineSet
264.0546875 449.390625 m 0,0,1
 346.8300979 444.149204604 346.8300979 444.149204604 406.3984375 386.4375 c 0,2,3
 407.835513931 385.363704819 407.835513931 385.363704819 409.099609375 384.099609375 c 0,4,5
 416.42578125 376.7734375 416.42578125 376.7734375 416.42578125 366.41796875 c 128,-1,6
 416.42578125 356.0703125 416.42578125 356.0703125 409.099609375 348.744140625 c 128,-1,7
 401.7734375 341.41796875 401.7734375 341.41796875 391.41796875 341.41796875 c 128,-1,8
 381.0703125 341.41796875 381.0703125 341.41796875 373.744140625 348.744140625 c 0,9,10
 322.462890625 400.025390625 322.462890625 400.025390625 249.975585938 400.025390625 c 128,-1,11
 177.537109375 400.025390625 177.537109375 400.025390625 126.255859375 348.744140625 c 128,-1,12
 74.974609375 297.462890625 74.974609375 297.462890625 74.974609375 224.975585938 c 128,-1,13
 74.974609375 152.537109375 74.974609375 152.537109375 126.255859375 101.255859375 c 128,-1,14
 177.537109375 49.974609375 177.537109375 49.974609375 250.024414062 49.974609375 c 128,-1,15
 322.462890625 49.974609375 322.462890625 49.974609375 373.744140625 101.255859375 c 0,16,17
 381.0703125 108.58203125 381.0703125 108.58203125 391.42578125 108.58203125 c 128,-1,18
 401.7734375 108.58203125 401.7734375 108.58203125 409.099609375 101.255859375 c 128,-1,19
 416.42578125 93.9296875 416.42578125 93.9296875 416.42578125 83.57421875 c 128,-1,20
 416.42578125 73.2265625 416.42578125 73.2265625 409.099609375 65.900390625 c 1,21,-1
 409.09765625 65.90234375 l 0,22,23
 408.662477617 65.4657047857 408.662477617 65.4657047857 408.2109375 65.0546875 c 2,24,-1
 408.1953125 65.044921875 l 1,25,26
 342.417957436 -0.0087890625 342.417957436 -0.0087890625 249.947265625 -0.0087890625 c 0,27,28
 156.828913403 -0.0087890625 156.828913403 -0.0087890625 90.900390625 65.90234375 c 128,-1,29
 24.96875 131.833984375 24.96875 131.833984375 24.96875 225.032226562 c 128,-1,30
 24.96875 318.16796875 24.96875 318.16796875 90.900390625 384.099609375 c 128,-1,31
 156.779215385 449.845703125 156.779215385 449.845703125 249.650390625 449.845703125 c 0,32,33
 256.872111398 449.845703125 256.872111398 449.845703125 264.0546875 449.390625 c 0,0,1
EndSplineSet
EndChar

StartChar: q
Encoding: 113 113 81
Width: 500
Flags: W
LayerCount: 2
Fore
SplineSet
234.634765625 449.453125 m 0,0,1
 242.778139067 450.010742188 242.778139067 450.010742188 250.05078125 450.010742188 c 0,2,3
 343.170714288 450.010742188 343.170714288 450.010742188 409.099609375 384.09765625 c 128,-1,4
 475.03125 318.166015625 475.03125 318.166015625 475.03125 224.967773438 c 128,-1,5
 475.03125 131.83203125 475.03125 131.83203125 409.099609375 65.900390625 c 128,-1,6
 343.212351353 0.1474609375 343.212351353 0.1474609375 250.111328125 0.1474609375 c 0,7,8
 159.056903282 0.1474609375 159.056903282 0.1474609375 93.6015625 63.5625 c 0,9,10
 92.1644860693 64.6362951807 92.1644860693 64.6362951807 90.900390625 65.900390625 c 0,11,12
 83.57421875 73.2265625 83.57421875 73.2265625 83.57421875 83.58203125 c 128,-1,13
 83.57421875 93.9296875 83.57421875 93.9296875 90.900390625 101.255859375 c 128,-1,14
 98.2265625 108.58203125 98.2265625 108.58203125 108.58203125 108.58203125 c 128,-1,15
 118.9296875 108.58203125 118.9296875 108.58203125 126.255859375 101.255859375 c 0,16,17
 177.537109375 49.974609375 177.537109375 49.974609375 250.024414062 49.974609375 c 128,-1,18
 322.462890625 49.974609375 322.462890625 49.974609375 373.744140625 101.255859375 c 128,-1,19
 425.025390625 152.537109375 425.025390625 152.537109375 425.025390625 225.024414062 c 128,-1,20
 425.025390625 297.462890625 425.025390625 297.462890625 373.744140625 348.744140625 c 128,-1,21
 322.462890625 400.025390625 322.462890625 400.025390625 249.975585938 400.025390625 c 128,-1,22
 177.537109375 400.025390625 177.537109375 400.025390625 126.255859375 348.744140625 c 0,23,24
 118.9296875 341.41796875 118.9296875 341.41796875 108.57421875 341.41796875 c 128,-1,25
 98.2265625 341.41796875 98.2265625 341.41796875 90.900390625 348.744140625 c 128,-1,26
 83.57421875 356.0703125 83.57421875 356.0703125 83.57421875 366.42578125 c 128,-1,27
 83.57421875 376.7734375 83.57421875 376.7734375 90.900390625 384.099609375 c 1,28,-1
 90.90234375 384.09765625 l 0,29,30
 91.3375223833 384.534295214 91.3375223833 384.534295214 91.7890625 384.9453125 c 2,31,-1
 91.8046875 384.955078125 l 1,32,33
 151.23963867 443.736280718 151.23963867 443.736280718 234.634765625 449.453125 c 0,0,1
EndSplineSet
EndChar

StartChar: r
Encoding: 114 114 82
Width: 500
Flags: W
LayerCount: 2
Fore
SplineSet
234.634765625 449.453125 m 0,0,1
 241.321876469 449.845703125 241.321876469 449.845703125 247.635742188 449.845703125 c 0,2,3
 254.959279186 449.845703125 254.959279186 449.845703125 262.255859375 449.376953125 c 0,4,-1
 262.512695312 449.376953125 l 0,5,6
 263.354003906 449.376953125 263.354003906 449.376953125 264.193359375 449.37109375 c 0,7,8
 279.674450873 448.363002436 279.674450873 448.363002436 294.861328125 445.2421875 c 2,9,-1
 294.861328125 445.2421875 l 0,10,-1
 295.583984375 445.13671875 l 1,11,12
 359.508091582 431.863904584 359.508091582 431.863904584 406.3984375 386.4375 c 0,13,14
 406.991315938 385.954030551 406.991315938 385.954030551 407.53515625 385.453125 c 0,15,16
 408.345196719 384.808873783 408.345196719 384.808873783 409.099609375 384.099609375 c 2,17,-1
 409.099609375 384.09765625 l 1,18,-1
 409.1171875 384.078125 l 1,19,20
 475.030273438 318.149229913 475.030273438 318.149229913 475.030273438 224.966796875 c 128,-1,21
 475.030273438 131.832635607 475.030273438 131.832635607 409.099609375 65.900390625 c 1,22,-1
 409.056640625 65.86328125 l 0,23,24
 408.651150414 65.4563632563 408.651150414 65.4563632563 408.2109375 65.0546875 c 2,25,-1
 408.1953125 65.044921875 l 0,26,27
 404.161201789 61.4142222351 404.161201789 61.4142222351 399.958984375 57.984375 c 0,28,29
 392.51302165 50.9905667207 392.51302165 50.9905667207 384.482421875 44.712890625 c 0,30,31
 377.219443645 39.6160637971 377.219443645 39.6160637971 369.57421875 35.10546875 c 0,32,33
 363.834354051 31.2017750541 363.834354051 31.2017750541 357.861328125 27.65625 c 0,34,35
 347.926770596 22.4730668889 347.926770596 22.4730668889 337.53515625 18.3046875 c 0,36,37
 333.345830993 16.3083623689 333.345830993 16.3083623689 329.099609375 14.49609375 c 0,38,39
 317.072792236 10.1504315946 317.072792236 10.1504315946 304.6328125 7.1953125 c 0,40,41
 301.698067889 6.30225857015 301.698067889 6.30225857015 298.765625 5.49609375 c 0,42,43
 284.973985187 2.53936338841 284.973985187 2.53936338841 270.921875 1.328125 c 0,44,45
 269.213245948 1.07380382369 269.213245948 1.07380382369 267.48046875 0.84375 c 0,46,47
 259.157786271 0.23046875 259.157786271 0.23046875 251.126953125 0.23046875 c 0,48,49
 244.435679041 0.23046875 244.435679041 0.23046875 237.744140625 0.623046875 c 0,50,-1
 237.487304688 0.623046875 l 0,51,52
 236.645996094 0.623046875 236.645996094 0.623046875 235.806640625 0.62890625 c 0,53,54
 220.325549127 1.63699756371 220.325549127 1.63699756371 205.138671875 4.7578125 c 2,55,-1
 205.138671875 4.7578125 l 0,56,-1
 204.416015625 4.86328125 l 1,57,58
 140.491908418 18.136095416 140.491908418 18.136095416 93.6015625 63.5625 c 0,59,60
 93.0086840623 64.0459694492 93.0086840623 64.0459694492 92.46484375 64.546875 c 0,61,62
 91.6548032806 65.1911262172 91.6548032806 65.1911262172 90.900390625 65.900390625 c 2,63,-1
 90.900390625 65.90234375 l 1,64,-1
 90.89453125 65.908203125 l 1,65,66
 24.96875 131.838727123 24.96875 131.838727123 24.96875 225.032226562 c 128,-1,67
 24.96875 318.16796875 24.96875 318.16796875 90.900390625 384.099609375 c 1,68,-1
 90.943359375 384.13671875 l 0,69,70
 91.3488495862 384.543636744 91.3488495862 384.543636744 91.7890625 384.9453125 c 2,71,-1
 91.8046875 384.955078125 l 0,72,73
 95.838798211 388.585777765 95.838798211 388.585777765 100.041015625 392.015625 c 0,74,75
 107.48697835 399.009433279 107.48697835 399.009433279 115.517578125 405.287109375 c 0,76,77
 122.780556355 410.383936203 122.780556355 410.383936203 130.42578125 414.89453125 c 0,78,79
 136.165645949 418.798224946 136.165645949 418.798224946 142.138671875 422.34375 c 0,80,81
 152.073229404 427.526933111 152.073229404 427.526933111 162.46484375 431.6953125 c 0,82,83
 166.654169007 433.691637631 166.654169007 433.691637631 170.900390625 435.50390625 c 0,84,85
 182.927207764 439.849568405 182.927207764 439.849568405 195.3671875 442.8046875 c 0,86,87
 198.301932111 443.69774143 198.301932111 443.69774143 201.234375 444.50390625 c 0,88,89
 215.026014813 447.460636612 215.026014813 447.460636612 229.078125 448.671875 c 0,90,91
 230.786754052 448.926196176 230.786754052 448.926196176 232.51953125 449.15625 c 0,92,93
 233.615404946 449.314763024 233.615404946 449.314763024 234.634765625 449.453125 c 0,0,1
250 400 m 0,94,95
 193.138895157 400 193.138895157 400 147.13671875 366.578125 c 0,96,97
 135.993487094 358.481768344 135.993487094 358.481768344 126.255859375 348.744140625 c 0,98,99
 74.974609375 297.462890625 74.974609375 297.462890625 74.974609375 224.975585938 c 128,-1,100
 74.974609375 152.537109375 74.974609375 152.537109375 126.255859375 101.255859375 c 128,-1,101
 177.517578125 49.994140625 177.517578125 49.994140625 249.830078125 49.994140625 c 0,102,103
 263.742450421 49.994140625 263.742450421 49.994140625 277.376953125 52.154296875 c 0,104,105
 333.53771536 61.04943411 333.53771536 61.04943411 373.744140625 101.255859375 c 0,106,107
 425.025390625 152.537109375 425.025390625 152.537109375 425.025390625 225.024414062 c 128,-1,108
 425.025390625 297.462890625 425.025390625 297.462890625 373.744140625 348.744140625 c 128,-1,109
 322.48828125 400 322.48828125 400 250 400 c 0,94,95
EndSplineSet
EndChar

StartChar: s
Encoding: 115 115 83
Width: 500
Flags: W
LayerCount: 2
Fore
SplineSet
250 450 m 0,0,1
 260 450 260 450 267.5 442.5 c 128,-1,2
 275 435 275 435 275 425 c 128,-1,3
 275 415 275 415 267.5 407.5 c 128,-1,4
 260 400 260 400 250 400 c 0,5,6
 178 400 178 400 126.5 348.5 c 128,-1,7
 75 297 75 297 75 225 c 128,-1,8
 75 153 75 153 126.5 101.5 c 128,-1,9
 178 50 178 50 250 50 c 128,-1,10
 322 50 322 50 373.5 101.5 c 128,-1,11
 425 153 425 153 425 225 c 0,12,13
 425 235 425 235 432.5 242.5 c 128,-1,14
 440 250 440 250 450 250 c 128,-1,15
 460 250 460 250 467.5 242.5 c 128,-1,16
 475 235 475 235 475 225 c 0,17,-1
 475 225.000976562 l 0,18,19
 475 224.384277344 475 224.384277344 474.970703125 223.7734375 c 2,20,-1
 474.96875 223.755859375 l 1,21,22
 474.455907295 131.037561462 474.455907295 131.037561462 408.619054958 65.5246384244 c 128,-1,23
 342.782202622 0.0117153868283 342.782202622 0.0117153868283 250 0 c 0,24,25
 157 0 157 0 91 66 c 128,-1,26
 25 132 25 132 25 225 c 0,27,28
 25.092945445 317.076002609 25.092945445 317.076002609 89.8164879247 382.682576554 c 128,-1,29
 154.540030404 448.289150498 154.540030404 448.289150498 246.4375 449.744140625 c 0,30,31
 248.21224711 450 248.21224711 450 250 450 c 0,0,1
EndSplineSet
EndChar

